<svg xmlns="http://www.w3.org/2000/svg" width="40" height="40" viewBox="0 0 40 40">
    <path d="M39.745 11.461L28.539.255A.869.869 0 0 0 27.924 0H12.076a.87.87 0 0 0-.615.255L.255 11.461a.869.869 0 0 0-.255.615v15.848a.869.869 0 0 0 1.739 0V12.436l10.7-10.7h15.125l10.7 10.7v15.128l-10.7 10.7H12.436l-5.349-5.351a.869.869 0 1 0-1.23 1.229l5.6 5.6a.869.869 0 0 0 .615.255h15.852a.87.87 0 0 0 .615-.255l11.206-11.203a.869.869 0 0 0 .255-.615V12.076a.869.869 0 0 0-.255-.615z"/>
    <path d="M99.394 74.4a.869.869 0 0 0 .869-.869v-8.888a2.868 2.868 0 0 0-2.863-2.864h-.04a2.847 2.847 0 0 0-1.164.248 2.869 2.869 0 0 0-2.826-2.4h-.04a3.125 3.125 0 0 0-2.973 2.417 2.847 2.847 0 0 0-1.2-.266h-.04a2.868 2.868 0 0 0-2.864 2.864v.1a2.847 2.847 0 0 0-1.126-.231h-.04a2.868 2.868 0 0 0-2.865 2.864v12.18a6.252 6.252 0 0 0 6.24 6.245h3.314a12.266 12.266 0 0 0 7.324-2.444l5.985-4.558a2.864 2.864 0 0 0 .944-3.9l-.02-.034a2.868 2.868 0 0 0-3.928-.99c-.018.011-.036.022-.054.035l-2.8 1.964a6.651 6.651 0 0 0-6.514 1.862.869.869 0 1 0 1.263 1.2 4.99 4.99 0 0 1 5.12-1.288.868.868 0 0 0 .841-.143L103 75.351a1.127 1.127 0 0 1 1.52.4l.02.034a1.126 1.126 0 0 1-.389 1.544.869.869 0 0 0-.081.055l-6.016 4.582a10.512 10.512 0 0 1-6.276 2.095h-3.316a4.511 4.511 0 0 1-4.506-4.506V67.377a1.127 1.127 0 0 1 1.126-1.126h.04a1.127 1.127 0 0 1 1.126 1.126v9.693a.869.869 0 0 0 1.739 0V64.643a1.127 1.127 0 0 1 1.126-1.126h.04a1.127 1.127 0 0 1 1.126 1.126v9.692a.869.869 0 0 0 1.739 0V62.571a1.43 1.43 0 0 1 1.311-1.206h.04a1.127 1.127 0 0 1 1.126 1.126v11.845a.869.869 0 0 0 1.739 0v-9.693a1.127 1.127 0 0 1 1.126-1.126h.04a1.127 1.127 0 0 1 1.126 1.126v8.883a.87.87 0 0 0 .868.874z" transform="translate(-72.686 -52.715)"/>
</svg>
