<svg xmlns="http://www.w3.org/2000/svg" width="40" height="44.752" viewBox="0 0 40 44.752">
    <g>
        <path d="M61.761 12.435l3.747-3.766-3.938-3.918-3.806 3.827a19.941 19.941 0 0 0-6.179-3.036V3a3 3 0 0 0-3-3h-5.143a3 3 0 0 0-3 3v2.542a20.015 20.015 0 1 0 21.318 6.893zm2.365 13.249a18.065 18.065 0 0 1-4.652 11.209l-1.538-1.538-1.318 1.318 1.538 1.538a18.064 18.064 0 0 1-11.209 4.652v-2.184h-1.866v2.184a18.063 18.063 0 0 1-11.208-4.652l1.538-1.538-1.318-1.318-1.538 1.538A18.066 18.066 0 0 1 27.9 25.684h2.184v-1.865H27.9a18.064 18.064 0 0 1 4.654-11.209l1.538 1.538 1.318-1.318-1.538-1.538A18.065 18.065 0 0 1 45.081 6.64v2.184h1.865V6.64a18.066 18.066 0 0 1 11.209 4.652l-1.538 1.538 1.318 1.318 1.538-1.537a18.063 18.063 0 0 1 4.652 11.209h-2.184v1.865h2.184zm-2.548-18.3l1.294 1.288-2.332 2.347q-.627-.663-1.314-1.268zM42.308 3a1.136 1.136 0 0 1 1.134-1.134h5.142A1.136 1.136 0 0 1 49.72 3v2.1a20.042 20.042 0 0 0-7.412 0z" transform="translate(-26.014)"/>
        <path d="M244.906 108.443l1.6.961-8.653 14.366-1.6-.961z" transform="translate(-26.014) translate(-191.038 -98.539)"/>
    </g>
</svg>
