<svg xmlns="http://www.w3.org/2000/svg" xmlns:xlink="http://www.w3.org/1999/xlink" width="450" height="333.004" viewBox="0 0 450 333.004">
    <defs>
        <linearGradient id="linear-gradient" x1=".5" x2=".5" y1="1" gradientUnits="objectBoundingBox">
            <stop offset="0" stop-color="gray" stop-opacity=".251"/>
            <stop offset=".54" stop-color="gray" stop-opacity=".122"/>
            <stop offset="1" stop-color="gray" stop-opacity=".102"/>
        </linearGradient>
        <linearGradient id="linear-gradient-2" x1=".5" x2=".5" y1="1" y2="0" xlink:href="#linear-gradient"/>
        <linearGradient id="linear-gradient-3" x1="-.211" x2="-.211" y1="3.614" y2=".343" xlink:href="#linear-gradient"/>
        <linearGradient id="linear-gradient-4" x1="-.036" x2="-.036" y1="4.542" y2="1.284" xlink:href="#linear-gradient"/>
        <linearGradient id="linear-gradient-5" x1="-.017" x2="-.017" y1="4.446" y2="1.187" xlink:href="#linear-gradient"/>
        <linearGradient id="linear-gradient-6" x1="-1.04" x2="-1.04" y1="1.715" y2=".715" xlink:href="#linear-gradient"/>
        <linearGradient id="linear-gradient-7" x1=".551" x2=".551" y1=".784" y2=".225" xlink:href="#linear-gradient"/>
        <linearGradient id="linear-gradient-8" x1=".5" x2=".5" y1="1" y2="0" xlink:href="#linear-gradient"/>
        <style>
            .cls-1,.cls-31,.cls-33{fill:#496ba4}.cls-1,.cls-11,.cls-35{opacity:.1}.cls-4{fill:#f6bac2}.cls-5{fill:#b77983}.cls-13,.cls-6{opacity:.05}.cls-7{fill:#d39999}.cls-47{fill:none}.cls-9{fill:#4b4442}.cls-10{fill:#8499f0}.cls-11,.cls-30{fill:#fff}.cls-14{fill:#b7b6cc}.cls-15{opacity:.5}.cls-17{fill:#f9fafb}.cls-33{opacity:.3}.cls-36{fill:#a8a8a8}.cls-37,.cls-40{opacity:.2}.cls-39{fill:#f6f7f9}.cls-42{fill:#ae6e79}.cls-43{fill:#bebed0}.cls-45{fill:#42383c}.cls-47{stroke:#565987;stroke-miterlimit:10}.cls-48{fill:#ffd037}
        </style>
    </defs>
    <g id="undraw_upload_87y9" transform="translate(0 .039)">
        <path id="Path_24" d="M280.375 70.9c-14.764-6-30.366-11.015-46.294-10.376a68.839 68.839 0 0 0-56.907 35.652c-9.342 17.5-10.494 38.021-14.518 57.444-4.957 23.934-14.45 46.679-24.595 68.923-5.45 11.932-11.2 24.153-12.091 37.251-1.243 18.181 7.459 36.3 21.1 48.409s31.776 18.475 49.956 19.867c9.68.742 19.793.056 28.392-4.444 9.1-4.761 15.725-13.368 24.857-18.058 8.464-4.365 18.363-4.96 27.864-4.392a124.885 124.885 0 0 1 36.38 7.722c13.278 4.984 25.627 12.2 38.878 17.248s28.054 7.872 41.6 3.655c12.71-3.968 22.775-13.57 31.844-23.312a408.023 408.023 0 0 0 40.594-51.305c8.178-12.237 15.789-25.149 19.407-39.413 6.911-27.268-2.6-58.035-23.709-76.66-17.477-15.427-40.947-22.125-63.917-26.188-20.944-3.706-45.162-3.936-64.442-13.594-18.389-9.229-35.119-20.594-54.399-28.429z" class="cls-1" transform="translate(-89.186 -48.55)"/>
        <path id="Path_25" fill="url(#linear-gradient)" d="M798.71 139.614c-5.672.226-5.958 14.856-5.6 15.495s-1.287 7.241-1.287 7.241-2.574 10.011-2.276 11.872a3.466 3.466 0 0 1-1.386 3.079c-2.518.992-5.676 4.19-6.514 5.067l-.211.226a18.318 18.318 0 0 0-2.868 2.214c-.429.627-1.589.127-1.589.127a31 31 0 0 0-3.726-.19c-.294.087-.755-.452-1.017-.794-.123-.163-.2-.286-.2-.286l-.1-2.952a2.412 2.412 0 0 0-.4-.246c.068-.333.151-.679.254-1.032a8.846 8.846 0 0 0 3.61-3.235c.1-.151.183-.306.266-.46a1.193 1.193 0 0 0 .751.21 1.489 1.489 0 0 0 .35-.032 2.824 2.824 0 0 0 1.017-.512 5.437 5.437 0 0 0 1.891-2.214 3.584 3.584 0 0 0 .179-.528c-.06.1-.123.2-.187.294a3.049 3.049 0 0 0-.211-2.575 8.463 8.463 0 0 1-.993-1.46c-.334-.956.3-1.944.687-2.881a4.841 4.841 0 0 0 .354-2.714 3.468 3.468 0 0 0-1.47-2.289c-1.561-1.012-3.678-.456-5.485-.944a14.862 14.862 0 0 1-1.887-.758 14.312 14.312 0 0 0-2.888-.9c-.981-.194-2.169-.214-2.78.552a5.708 5.708 0 0 0-.453.766 2.84 2.84 0 0 1-1.775 1.274 6.664 6.664 0 0 1-1.092.115 1.055 1.055 0 0 0 0-.452c-.461-1.508.858-2.627 2.574-3.3s8.242-5.809 9-7.027 6.069-5.039 6.069-5.039 7.944-2.246 10.55-10.428-12.464 5.714-13.982 6.13a15.464 15.464 0 0 0-3.69 1.984l-9.664 5.583a35 35 0 0 0-5.211 3.595 17.479 17.479 0 0 0-3.821 5.452s-.926 1.508-2.276 3.69a10.052 10.052 0 0 1-2.947 3.131l.044-.079c-.107.131-3.432 4.325-3.726 6.158s-1.648 9.3-1.648 9.3-1.192 5.869-2.01 7.023a20.11 20.11 0 0 1-1.057 3.821c-.393.452-1.986 5.226-1.716 5.71 0 0-1.517 3.305-1.251 4.555l-2.737 6.547s-1.486 3.238-1.386 5.131c.048.917.087 1.984.115 2.857v.8c-.147.246-.524.873-.918 1.631a8.485 8.485 0 0 0-1.128 3.329c.063 1.492.068 5.134-.62 6.472l-.2-.079a2.775 2.775 0 0 0-.4 1.317l.048.024c0 .115-.036.234-.048.361-.167 1.52.075 3.635-.306 4.1-.528.643-.266 14.888-.266 14.888s-.858 8.916.858 14.566l-.131 4.424a41.163 41.163 0 0 0 .131 4.762 46.375 46.375 0 0 1 .266 4.813l.989 7.059s-1.323 10.908-.2 13.6a14.813 14.813 0 0 1 1.191 4.686 7.3 7.3 0 0 0 1.819.7v.4l-.258 6.634v.365s-.032.175-.056.464v.163a.194.194 0 0 0 0 .048v.139a.981.981 0 0 0 0 .107.774.774 0 0 1 0 .1V312.538a1.153 1.153 0 0 0 .032.2.2.2 0 0 0 0 .048 1.017 1.017 0 0 0 .044.218.843.843 0 0 0 .052.214.052.052 0 0 1 0 .024.389.389 0 0 0 .032.111.2.2 0 0 0 0 .052.645.645 0 0 0 .04.135v.032c.04.111.079.222.127.333a.14.14 0 0 0 0 .036c0 .04.036.083.056.123l.024.056.052.107.032.06.056.1.036.059c0 .032.036.063.056.1a.742.742 0 0 1 .04.063l.06.091.044.06.064.091.048.059.072.087.048.056.083.1.044.048.135.131a.2.2 0 0 0 .044.04 1.081 1.081 0 0 0 .1.091l.064.052.087.071.076.056.087.063.083.056.087.056.091.052.091.056.1.048.1.048.1.048.1.044.107.044.107.04.111.04.119.036.187.056.155.04.123.024.127.028h.135l.131.02h1.676l.215-.02h.131l.361-.04s4.5.671 4.647-1.107a1.42 1.42 0 0 1 .02-.286v-.226a.575.575 0 0 1 0-.083v-2.258c-.028-.881-.072-1.7-.1-2.155a2.883 2.883 0 0 0-.024-.4s-1.533-2.309-1.283-3.174a22.818 22.818 0 0 0 .195-3.8s-.6-1.409-1-2.654c-.032-.1-.06-.19-.087-.282a14.667 14.667 0 0 0 .937-1.19 15.064 15.064 0 0 0-1.12-9.047.563.563 0 0 1-.242-.464.2.2 0 0 1 0-.048l.767-9.368-.465-5.452s-.33-3.726.4-5.329l1.45-14.114 2.057-8.21s.659-.321 1.192 1.222 1.843 8.531 1.843 8.531l3.178 11.551s.528 4.107.989 4.686.465 3.143.465 3.143a8.112 8.112 0 0 1 .858 2.952 12.757 12.757 0 0 0 .326 4.17c.326.833.465 6.746.465 6.746a13.611 13.611 0 0 0 .131 5.841 20.544 20.544 0 0 1 .33 6.674 4.526 4.526 0 0 0 .27.373c-.032.087-.068.175-.1.254-.207.536-.37.913-.37.913a23.376 23.376 0 0 0 .2 3.8c.246.865-1.287 3.174-1.287 3.174s0 .143-.024.4c-.028.456-.071 1.27-.1 2.155v2.262a.486.486 0 0 0 0 .075v.23a1.464 1.464 0 0 0 .02.286c.151 1.778 4.651 1.107 4.651 1.107l.361.044h2.01l.135-.024.131-.02.127-.028.127-.024.155-.04.187-.055.115-.036.111-.04a.851.851 0 0 0 .107-.04l.107-.044.1-.044.1-.044.1-.052.091-.048.1-.052.087-.056.091-.055.08-.056.087-.064a.533.533 0 0 0 .075-.056.725.725 0 0 0 .087-.067l.068-.056.1-.087.044-.044.135-.131.04-.048.087-.091.044-.06a.788.788 0 0 0 .076-.087l.044-.06.068-.091.04-.06.063-.091a.569.569 0 0 1 .04-.063c0-.032.036-.064.056-.1l.036-.06c0-.036.036-.067.052-.1a.44.44 0 0 0 .032-.06c0-.036.036-.072.052-.107l.028-.056c0-.04.036-.079.056-.123v-.036c.044-.111.087-.222.123-.333v-.032a.423.423 0 0 1 .044-.131.292.292 0 0 1 0-.056.151.151 0 0 1 .032-.111v-.02a.051.051 0 0 0 0-.024.964.964 0 0 1 .056-.21 1.375 1.375 0 0 1 .044-.214v-.052a1.517 1.517 0 0 1 .032-.194.156.156 0 0 0 0-.067V312.1a.951.951 0 0 1 0-.107v-.139a.188.188 0 0 1 0-.048v-.159c-.024-.29-.052-.464-.052-.464v-.361l-.25-6.42V304c.369-.206.747-.44 1.14-.714 0 0-.068-3.658.989-5.131s-.528-5.329-.528-5.329l-.659-13.8.262-6.349a6.308 6.308 0 0 1-.794-3.079 11.193 11.193 0 0 0-1.057-3.968s-.659-2.182.135-2.825-.858-14.681-.858-14.681.4-10.257-.357-16.348v-.1l.21-.1c-.064-.488-.131-.944-.207-1.369l-.222.067a11.148 11.148 0 0 0-.4-1.587l-1.057-4.845s-.024-.254-.052-.623c-.036-.436-.076-1.028-.083-1.547a2.63 2.63 0 0 1 .071-.651l-.056-.048a1.443 1.443 0 0 1 .056-.337l-.23-.194s-.032-.218-.056-.552a6.2 6.2 0 0 1 .286-2.75c.528-1.059 5.958-5.071 5.958-5.071l3.029-6.069s3.035-4.269 5.342-5.1 9.5-5.611 9.5-5.611a23.682 23.682 0 0 0 2.705-3.174l.083-.127h.048v-.088l6.752-10.106c2.7-2.182 2.8-6.833 2.8-6.833l.7-10.626-.23-6.285.326-3.571s5.935-15.088.267-14.865zm-38.679 27.5a8.5 8.5 0 0 0-1.12 4.214v.385a8.469 8.469 0 0 0 .9 3.8 3.114 3.114 0 0 0-.655 1.163 6.308 6.308 0 0 1-1.366-2.559 2.664 2.664 0 0 0-1.056-1.73 7.261 7.261 0 0 1 .063-2.278l.036-.032s.028-.048.083-.127c.282-.425 1.231-1.857 2.212-3.488a3.131 3.131 0 0 0 .5.167l.6.151z" transform="translate(-452.672 -91.89)"/>
        <path id="Path_26" fill="url(#linear-gradient-2)" d="M855.422 216.661c.06-.135.107-.278.155-.421a8.752 8.752 0 0 0-.4.972c.086-.186.17-.369.245-.551z" transform="translate(-528.824 -142.511)"/>
        <path id="Path_27" d="M805.523 239.252s-1.243 5.92-3.535 6.686 2.78 7.539 2.78 7.539l10.514-.575.191-2.194s-1.986-4.393 1.339-9.737-11.289-1.719-11.289-1.719z" class="cls-4" transform="translate(-496.401 -155.667)"/>
        <path id="Path_28" d="M754.212 567.934c-.143 1.766-4.492 1.1-4.492 1.1-7.213 1-6.022-6.063-6.022-6.063v-.361l.25-6.587.072-1.837s7.944-3.627 7.741-2.865a4.512 4.512 0 0 0 .322 1.714c.4 1.234.965 2.631.965 2.631a23.7 23.7 0 0 1-.191 3.77c-.238.857 1.243 3.151 1.243 3.151s0 .143.024.4a46.268 46.268 0 0 1 .088 4.947z" class="cls-5" transform="translate(-461.579 -344.57)"/>
        <path id="Path_29" d="M798.418 571.053s-4.349.671-4.492-1.1a45.09 45.09 0 0 1 .074-4.963 3.539 3.539 0 0 1 .02-.4s1.482-2.293 1.243-3.151a23.742 23.742 0 0 1-.191-3.773s.155-.369.358-.9a10.973 10.973 0 0 0 .933-3.44c-.191-.766 7.741 2.861 7.741 2.861l.079 2.055.242 6.368v.361s1.21 7.086-6.007 6.082z" class="cls-5" transform="translate(-491.879 -345.781)"/>
        <path id="Path_30" d="M816.3 138.459a16.278 16.278 0 0 1-10.192 10.341s-5.132 3.8-5.863 4.992-7.038 6.3-8.7 6.972-2.927 1.782-2.483 3.274c.4 1.385-3.948 8.162-4.6 9.17l-.079.127-1.37 1.432-4.651 2.353-3.789-1.21-.481-4.547 2.01-3.571a9.858 9.858 0 0 0 2.848-3.107c1.307-2.167 2.2-3.658 2.2-3.658a17.454 17.454 0 0 1 3.694-5.412 33.433 33.433 0 0 1 5.033-3.571l9.338-5.555a15.06 15.06 0 0 1 3.575-1.984c1.471-.423 16.029-14.16 13.51-6.046z" class="cls-4" transform="translate(-479.943 -94.049)"/>
        <path id="Path_31" d="M778.36 222.69l6.212-1.242a.4.4 0 0 0-.111.258l-.079.127-1.37 1.432-4.651 2.353-3.789-1.21-.481-4.547 2.01-3.571a7.111 7.111 0 0 0-.048 6.785z" class="cls-6" transform="translate(-479.943 -142.541)"/>
        <path id="Path_32" d="M863.261 270.194a1.191 1.191 0 0 0-.044.127 1.741 1.741 0 0 1-.23.4l-2.506 1.222-3.825.4-1.986-4.805 1.323-5.265.731-.984.2-.222c.076.952.461 5.92.437 7.412-.032 1.655 1.192 1.786 1.192 1.786z" class="cls-6" transform="translate(-528.517 -169.547)"/>
        <path id="Path_33" d="M794.863 243.4a1.163 1.163 0 0 0-.044.127 23.215 23.215 0 0 1-2.61 3.151s-6.947 4.742-9.175 5.555-5.164 5.059-5.164 5.059l-2.931 6.043s-5.255 3.968-5.763 5.031a6.266 6.266 0 0 0-.274 2.73 2.823 2.823 0 0 0 .048.548l-1.549 1.615-1.235 1.286-1.74 1.809-2.832-.4-8.826-1.4-1.692-.952-9.394-5.285s0-.329-.024-.833c0-.222 0-.476-.024-.758-.028-.857-.068-1.924-.111-2.833-.1-1.877 1.339-5.091 1.339-5.091l2.641-6.5c-.254-1.238 1.211-4.519 1.211-4.519-.254-.476 1.275-5.218 1.656-5.662a20.167 20.167 0 0 0 1.021-3.789c.794-1.143 1.942-6.968 1.942-6.968s1.307-7.384 1.589-9.229 3.5-5.98 3.6-6.107c-2.292 4.2-.286 7.253-.286 7.253l2.3-.4 6.216-1.21c-.286.19-.1 2.289-.1 2.289a2.646 2.646 0 0 1 1.017 1.718 6.589 6.589 0 0 0 1.4 2.639l.032.036a3.107 3.107 0 0 1 1.5-2.135l1.434 1.913.481 2.289s-.131.321-.957.956.35 2.289.35 2.289a11.651 11.651 0 0 1 .512 3.151 4.648 4.648 0 0 1 2.7-.921 8.182 8.182 0 0 0 1.625-2.325.961.961 0 0 1 1.37-.635 8.808 8.808 0 0 1 1.561-1.083c.767-.4 1.656.4 1.656.4l.1 2.932s.076.119.2.282c.25.349.7.885.981.794a29.127 29.127 0 0 1 3.6.19s1.116.476 1.529-.127a18.843 18.843 0 0 1 2.78-2.194s.457 5.908.457 7.559 1.192 1.786 1.192 1.786z" class="cls-7" transform="translate(-460.309 -142.384)"/>
        <path id="Path_34" fill="none" d="M875.873 284.732h-.083c.151-.397.083 0 .083 0z" transform="translate(-541.248 -183.719)"/>
        <ellipse id="Ellipse_2" cx=".572" cy=".571" class="cls-9" rx=".572" ry=".571" transform="translate(307.914 96.573)"/>
        <ellipse id="Ellipse_3" cx=".572" cy=".571" class="cls-9" rx=".572" ry=".571" transform="translate(303.739 104.881)"/>
        <ellipse id="Ellipse_4" cx=".572" cy=".571" class="cls-9" rx=".572" ry=".571" transform="translate(295.521 122.67)"/>
        <ellipse id="Ellipse_5" cx=".572" cy=".571" class="cls-9" rx=".572" ry=".571" transform="translate(299.406 113.694)"/>
        <path id="Path_35" d="M752.655 553.034c-2.987 3.547-6.212 3.488-8.135 2.988l.071-1.837s7.944-3.627 7.741-2.865a4.208 4.208 0 0 0 .323 1.714z" class="cls-6" transform="translate(-462.118 -344.57)"/>
        <path id="Path_36" d="M806.548 558.285c-5.072 2.928-8.047-.5-8.738-1.476a10.968 10.968 0 0 0 .933-3.44c-.191-.766 7.741 2.861 7.741 2.861z" class="cls-6" transform="translate(-494.242 -345.805)"/>
        <path id="Path_37" d="M768.911 426.775c-1.017 1.464-.957 5.091-.957 5.091-6.562 4.71-10-1.02-10-1.02a21.052 21.052 0 0 0-.318-6.618 13.8 13.8 0 0 1-.127-5.793 55.829 55.829 0 0 0-.449-6.682 12.768 12.768 0 0 1-.318-4.139 8.158 8.158 0 0 0-.826-2.924s0-2.547-.449-3.119-.953-4.65-.953-4.65l-3.054-11.455s-1.275-6.936-1.784-8.464-1.148-1.21-1.148-1.21L746.691 384l-1.4 14c-.7 1.587-.4 5.285-.4 5.285l.445 5.408-.739 9.293a.2.2 0 0 0 0 .048.567.567 0 0 0 .23.46 15.278 15.278 0 0 1 1.068 8.975c-4.842 7-10.7 3.373-10.7 3.373a14.843 14.843 0 0 0-1.144-4.642c-1.084-2.674.191-13.491.191-13.491l-.957-7a46.814 46.814 0 0 0-.254-4.762 41.87 41.87 0 0 1-.127-4.71l.127-4.392c-1.656-5.6-.83-14.447-.83-14.447s-.254-14.13.258-14.769c.369-.46.135-2.555.294-4.067a2.836 2.836 0 0 1 .373-1.306l.064-.063c.83-1.02.83-5.091.763-6.686a8.582 8.582 0 0 1 1.092-3.3c.4-.77.759-1.4.894-1.635l.056-.091s3.63.893 13.251 5.476a18.1 18.1 0 0 0 5.473 1.694 12.192 12.192 0 0 0 2.856.044 9.978 9.978 0 0 0 4.107-1.333 7.217 7.217 0 0 0 1.775-1.424 11.858 11.858 0 0 0 0 2.563c.024.369.052.619.052.619l1.061 4.722a12.382 12.382 0 0 1 .4 1.71c.076.421.139.877.2 1.361a131.8 131.8 0 0 1 .346 16.217s1.589 13.939.83 14.574-.131 2.8-.131 2.8a11.288 11.288 0 0 1 1.021 3.944 6.343 6.343 0 0 0 .767 3.055l-.258 6.3.667 13.67s1.519 3.838.499 5.302z" class="cls-10" transform="translate(-454.566 -220.469)"/>
        <path id="Path_38" d="M806.13 489.476s4.826-2.778 5.879-1.528-5.879 1.528-5.879 1.528z" class="cls-6" transform="translate(-499.257 -306.213)"/>
        <path id="Path_39" d="M813.2 496.14s-.794.4.957.9-.957-.9-.957-.9z" class="cls-6" transform="translate(-503.409 -311.349)"/>
        <path id="Path_40" d="M739.993 476.8c-.163.048 4.016 2.817 7.789.524-.016-.003-6.848-.813-7.789-.524z" class="cls-6" transform="translate(-459.387 -299.644)"/>
        <path id="Path_41" d="M752.955 490.24a5.12 5.12 0 0 1-3.487 2.579c-2.344.333 3.487-2.579 3.487-2.579z" class="cls-6" transform="translate(-464.766 -307.79)"/>
        <path id="Path_42" d="M797.71 502.52s5.5 8.729 4.445 10.789-4.445-10.789-4.445-10.789z" class="cls-6" transform="translate(-494.181 -315.197)"/>
        <path id="Path_43" d="M773.5 369.09l-.572 17.09s3.392-.143 3.972-5.773 1-10.217 1-10.217z" class="cls-6" transform="translate(-479.244 -234.711)"/>
        <path id="Path_44" d="M773.022 368.13l-.572 17.09s3.392-.143 3.972-5.777 1.013-10.213 1.013-10.213z" class="cls-10" transform="translate(-478.955 -234.132)"/>
        <path id="Path_45" d="M743.212 369.258s-2.677 7.17-8.8 3.7a2.819 2.819 0 0 1 .373-1.305c1.676.7 5.561 1.73 7.15-2.92z" class="cls-6" transform="translate(-456.024 -234.494)"/>
        <path id="Path_46" d="M742.732 367.334s-2.677 7.17-8.8 3.7a2.836 2.836 0 0 1 .373-1.305c1.676.706 5.561 1.73 7.15-2.916z" class="cls-6" transform="translate(-455.735 -233.336)"/>
        <path id="Path_47" d="M742.732 368.294s-2.677 7.17-8.8 3.7a2.836 2.836 0 0 1 .373-1.305c1.676.706 5.561 1.73 7.15-2.916z" class="cls-10" transform="translate(-455.735 -233.915)"/>
        <path id="Path_48" d="M801.135 378.731c-6.729 3.2-9.2-4.341-9.2-4.341l1.589.048c.278 4.821 5.6 3.523 7.42 2.932.068.436.132.877.191 1.361z" class="cls-6" transform="translate(-490.703 -237.908)"/>
        <path id="Path_49" d="M802.1 377.285c-6.725 3.194-9.2-4.345-9.2-4.345l1.589.048c.278 4.821 5.6 3.527 7.42 2.936.063.42.127.876.191 1.361z" class="cls-6" transform="translate(-491.282 -237.033)"/>
        <path id="Path_50" d="M801.615 377.765c-6.725 3.194-9.2-4.345-9.2-4.345l1.589.048c.278 4.825 5.6 3.527 7.42 2.936.068.42.132.877.191 1.361z" class="cls-10" transform="translate(-490.993 -237.323)"/>
        <path id="Path_51" d="M742.732 368.294s-2.677 7.17-8.8 3.7a2.836 2.836 0 0 1 .373-1.305c1.676.706 5.561 1.73 7.15-2.916z" class="cls-11" transform="translate(-455.735 -233.915)"/>
        <path id="Path_52" d="M801.615 377.765c-6.725 3.194-9.2-4.345-9.2-4.345l1.589.048c.278 4.825 5.6 3.527 7.42 2.936.068.42.132.877.191 1.361z" class="cls-11" transform="translate(-490.993 -237.323)"/>
        <path id="Path_53" d="M754.263 583.73a11.267 11.267 0 0 1-.048 1.321c-.143 1.766-4.492 1.1-4.492 1.1-3.972.552-5.4-1.353-5.875-3.174a7.259 7.259 0 0 1-.218-1.809 7.486 7.486 0 0 1 .071-1.087v-.361a2.66 2.66 0 0 1 2.471.5c1.768 1.432 4.111.333 4.111.333a5.52 5.52 0 0 1 2.383.714c.373.321.989-.452 1.458-1.19.028.476.072 1.337.1 2.258.031.474.039.95.039 1.395z" class="cls-6" transform="translate(-461.582 -361.695)"/>
        <path id="Path_54" d="M747.288 586.024s-1.192 1.167-3.44-.635a7.258 7.258 0 0 1-.218-1.809 20.786 20.786 0 0 0 3.658 2.444z" class="cls-6" transform="translate(-461.582 -364.093)"/>
        <path id="Path_55" d="M768.441 587.877a.9.9 0 0 1-1.291-.206 8.492 8.492 0 0 0 1.271-1.19c.012.475.02.951.02 1.396z" class="cls-6" transform="translate(-475.76 -365.842)"/>
        <path id="Path_56" d="M793.869 585.794a12.192 12.192 0 0 0 .044 1.321c.143 1.77 4.492 1.1 4.492 1.1 3.972.555 5.4-1.349 5.875-3.174a7.615 7.615 0 0 0 .147-2.9v-.361a2.691 2.691 0 0 0-2.475.5c-1.768 1.432-4.107.333-4.107.333a5.542 5.542 0 0 0-2.383.718c-.373.321-.989-.452-1.454-1.19-.028.476-.076 1.337-.1 2.258-.035.47-.043.946-.039 1.395z" class="cls-6" transform="translate(-491.865 -362.942)"/>
        <path id="Path_57" d="M811.43 588.07s1.192 1.167 3.436-.635a7.226 7.226 0 0 0 .222-1.805 21.235 21.235 0 0 1-3.658 2.44z" class="cls-6" transform="translate(-502.452 -365.33)"/>
        <path id="Path_58" d="M793.868 589.937a.894.894 0 0 0 1.287-.206 8.387 8.387 0 0 1-1.271-1.19c-.012.471-.02.947-.016 1.396z" class="cls-6" transform="translate(-491.865 -367.085)"/>
        <path id="Path_59" d="M774.142 285s-6.117 16.868-3.761 18.332S774.142 285 774.142 285z" class="cls-6" transform="translate(-477.382 -183.987)"/>
        <path id="Path_60" d="M790.781 271.88s-1.152 5.6-.576 6.111.576-6.111.576-6.111z" class="cls-6" transform="translate(-489.56 -176.073)"/>
        <path id="Path_61" d="M812.323 304.77s-7.519 7-7.01 7.575 7.01-7.575 7.01-7.575z" class="cls-6" transform="translate(-498.749 -195.913)"/>
        <path id="Path_62" d="M822.93 260.306c-2.848.869-9.505 2.9-9.581 2.885l.369-1.516a4.648 4.648 0 0 1 2.7-.921 8.179 8.179 0 0 0 1.625-2.325.962.962 0 0 1 1.37-.635 9.038 9.038 0 0 1 1.561-1.083c.767-.4 1.656.4 1.656.4l.1 2.928.2.267z" class="cls-6" transform="translate(-503.609 -166.856)"/>
        <path id="Path_63" d="M822.93 259.366c-2.848.869-9.505 2.9-9.581 2.881l.369-1.512a4.648 4.648 0 0 1 2.7-.921 8.18 8.18 0 0 0 1.625-2.325.961.961 0 0 1 1.37-.635 8.817 8.817 0 0 1 1.561-1.083c.767-.4 1.656.4 1.656.4l.1 2.932s.077.097.2.263z" class="cls-7" transform="translate(-503.609 -166.289)"/>
        <path id="Path_64" d="M808.2 249.666a11.614 11.614 0 0 1 .508 3.151l-1.108.881-2.105-6.063-.1-3.151-.04-.179.032.036a3.091 3.091 0 0 1 1.5-2.131l1.434 1.909.481 2.29s-.131.321-.957.956.355 2.301.355 2.301z" class="cls-6" transform="translate(-498.793 -158.176)"/>
        <path id="Path_65" d="M808.69 249.168a11.652 11.652 0 0 1 .512 3.151l-1.108.893-2.105-6.063-.1-3.151-.044-.179.032.036a3.107 3.107 0 0 1 1.5-2.135l1.434 1.913.481 2.29s-.131.321-.957.956.355 2.289.355 2.289z" class="cls-7" transform="translate(-499.088 -157.88)"/>
        <path id="Path_66" d="M822.259 221.284a8.523 8.523 0 1 1-2.5-6.1 8.595 8.595 0 0 1 2.5 6.1z" class="cls-6" transform="translate(-498.612 -140.369)"/>
        <path id="Path_67" d="M822.247 220.32a8.547 8.547 0 1 1-2.505-6.089 8.6 8.6 0 0 1 2.505 6.089z" class="cls-4" transform="translate(-498.6 -139.79)"/>
        <path id="Path_68" d="M823.9 220.3a8.536 8.536 0 0 1-1.251 4.464c-.127-.226-.2-.488-.33-.718-.179-.321-.592-.591-.9-.4a.916.916 0 0 0-.282.4c-.25.528-.7 1.056-1.279 1.044a1.267 1.267 0 0 1-1.088-.928 3.808 3.808 0 0 1-.064-1.516 3.452 3.452 0 0 0-.663-2.916 4.349 4.349 0 0 0-1.66-.742 2.177 2.177 0 0 1-1.43-1.055c-.159-.4-.119-.817-.262-1.19a2.085 2.085 0 0 0-1.545-1.135 4.054 4.054 0 0 1-2.7.924 10.146 10.146 0 0 1-2.661-.421 8.6 8.6 0 0 1 16.118 4.178z" class="cls-6" transform="translate(-500.252 -139.774)"/>
        <path id="Path_69" fill="#7e646b" d="M812.578 209.89c.143.4.1.825.262 1.19a2.168 2.168 0 0 0 1.43 1.055 4.372 4.372 0 0 1 1.66.738 3.464 3.464 0 0 1 .663 2.92 3.809 3.809 0 0 0 .064 1.516 1.275 1.275 0 0 0 1.088.928 1.58 1.58 0 0 0 1.279-1.044.926.926 0 0 1 .282-.4c.306-.2.719.067.9.4a3.931 3.931 0 0 0 .512.964 1.145 1.145 0 0 0 1.045.238 2.634 2.634 0 0 0 .981-.508 5.374 5.374 0 0 0 1.827-2.194 3.148 3.148 0 0 0-.115-2.778 8.342 8.342 0 0 1-.957-1.452c-.326-.948.286-1.924.663-2.853a4.948 4.948 0 0 0 .337-2.694 3.46 3.46 0 0 0-1.418-2.274c-1.509-1-3.551-.452-5.3-.936a13.451 13.451 0 0 1-1.823-.75 13.512 13.512 0 0 0-2.78-.889 2.71 2.71 0 0 0-2.7.544 6 6 0 0 0-.437.762 2.744 2.744 0 0 1-1.716 1.262c-.512.123-1.049.091-1.589.167a1.748 1.748 0 0 0-1.323.758 2.628 2.628 0 0 0-.087 1.587 1.61 1.61 0 0 1-.4 1.5c-.2.155-.481.23-.6.448a.63.63 0 0 0 .187.75 1.792 1.792 0 0 0 .759.333 11.619 11.619 0 0 0 3.047.52 4.022 4.022 0 0 0 2.836-1.044c-.068.067-.5.04-.584.036a2.321 2.321 0 0 1 2.007 1.2z" transform="translate(-498.138 -133.292)"/>
        <g id="Group_1" class="cls-13" transform="translate(306.251 70.976)">
            <path id="Path_70" d="M823.406 227.212a2.706 2.706 0 0 1-.981.512 1.153 1.153 0 0 1-1.041-.242 3.875 3.875 0 0 1-.516-.964c-.179-.321-.592-.591-.9-.4a.972.972 0 0 0-.282.4 1.555 1.555 0 0 1-1.279 1.044 1.259 1.259 0 0 1-1.084-.928 3.811 3.811 0 0 1-.068-1.516 3.454 3.454 0 0 0-.659-2.916 4.372 4.372 0 0 0-1.664-.742 2.186 2.186 0 0 1-1.43-1.055c-.159-.4-.119-.817-.262-1.19a2.076 2.076 0 0 0-1.545-1.135 4.126 4.126 0 0 1-2.7.928 11.792 11.792 0 0 1-3.047-.524 1.841 1.841 0 0 1-.759-.329.839.839 0 0 1-.123-.143 1.112 1.112 0 0 0-.445.345.63.63 0 0 0 .187.75 1.793 1.793 0 0 0 .759.333 11.621 11.621 0 0 0 3.046.52 4.09 4.09 0 0 0 2.7-.924 2.079 2.079 0 0 1 1.549 1.131c.143.4.1.825.262 1.19a2.177 2.177 0 0 0 1.43 1.055 4.372 4.372 0 0 1 1.66.738 3.465 3.465 0 0 1 .663 2.92 3.808 3.808 0 0 0 .064 1.516 1.275 1.275 0 0 0 1.088.928 1.58 1.58 0 0 0 1.279-1.044.925.925 0 0 1 .282-.4c.306-.2.719.067.9.4a3.811 3.811 0 0 0 .516.964 1.137 1.137 0 0 0 1.041.238 2.634 2.634 0 0 0 .981-.508 5.372 5.372 0 0 0 1.827-2.194 3.508 3.508 0 0 0 .171-.524 5.66 5.66 0 0 1-1.62 1.766z" transform="translate(-804.565 -214.554)"/>
            <path id="Path_71" d="M854 220.114c.083-.183.163-.365.238-.544a3.6 3.6 0 0 0 .147-.421 9.36 9.36 0 0 0-.385.965z" transform="translate(-834.365 -215.242)"/>
            <path id="Path_72" d="M807.091 211.677a1.626 1.626 0 0 0 .361-1.46 6.5 6.5 0 0 1-.076-.917 1.349 1.349 0 0 0-.218.278 2.626 2.626 0 0 0-.087 1.587 3.085 3.085 0 0 1 .02.512z" transform="translate(-806.028 -209.3)"/>
        </g>
        <path id="Path_73" d="M768.02 352.482c-.739.052-1.776.107-3.023.151-.866.028-1.835.048-2.872.048-.906 0-1.863 0-2.856-.044a61.292 61.292 0 0 1-9.362-.964c-4.127-.794-7.944-2.163-10.327-4.48.4-.77.759-1.409.894-1.635 0-.222 0-.48-.024-.758 4.19 1.984 17.254 7.5 27.268 4.365a2.831 2.831 0 0 0 .048.548l.226.19a12.032 12.032 0 0 0 .028 2.579z" class="cls-6" transform="translate(-459.141 -220.059)"/>
        <path id="Path_74" d="M768.02 351.516c-.739.052-1.776.107-3.023.147-.866.032-1.835.048-2.872.048-.906 0-1.863 0-2.856-.044a61.277 61.277 0 0 1-9.362-.96c-4.127-.794-7.944-2.166-10.327-4.484.4-.77.759-1.4.894-1.635 0-.222 0-.476-.024-.758 4.19 1.984 17.254 7.5 27.268 4.385a2.83 2.83 0 0 0 .048.548l.226.19a11.883 11.883 0 0 0 .028 2.563z" class="cls-9" transform="translate(-459.141 -219.474)"/>
        <path id="Path_75" d="M310.157 532.714a5.451 5.451 0 0 1-1.219-4.154l17.532-143.31 1.454-11.9a5.5 5.5 0 0 1 5.418-4.825l51.354-.341a5.49 5.49 0 0 0 5.458-5.638l-.02-.544a5.494 5.494 0 0 1 5.493-5.678h53.963a5.49 5.49 0 0 1 5.493 5.476 5.856 5.856 0 0 1-.048.738 5.489 5.489 0 0 0 5.307 6.214l51.827 1.321a5.485 5.485 0 0 1 5.275 6.412l-25.909 151.174-.489 2.857a5.366 5.366 0 0 1-.794 2.048z" class="cls-14" transform="translate(-199.525 -227.008)"/>
        <g id="Group_2" class="cls-15" transform="translate(207.249 97.753)">
            <path id="Rectangle_11" fill="url(#linear-gradient-3)" d="M0 0H104.339V31.959H0z" transform="rotate(-55.39 81.77 42.922)"/>
        </g>
        <path id="Rectangle_12" d="M0 0H30.287V102.912H0z" class="cls-17" transform="rotate(34.61 -25.256 477.999)"/>
        <path id="Rectangle_13" fill="#f7b643" d="M0 0H21.406V21.399H0z" transform="rotate(34.81 -29.797 480.15)"/>
        <path id="Rectangle_14" fill="#f7b643" d="M0 0H21.435V21.428H0z" opacity="0.5" transform="rotate(34.61 -71.667 471.366)"/>
        <path id="Rectangle_15" fill="#f7b643" d="M0 0H21.435V21.428H0z" opacity="0.3" transform="rotate(34.61 -113.191 458.38)"/>
        <g id="Group_3" class="cls-15" transform="translate(201.773 92.668)">
            <path id="Rectangle_16" fill="url(#linear-gradient-4)" d="M0 0H103.917V31.945H0z" transform="rotate(-73.7 66.495 49.872)"/>
        </g>
        <path id="Rectangle_17" d="M0 0H30.315V102.503H0z" class="cls-17" transform="rotate(16.3 -211.89 857.973)"/>
        <path id="Rectangle_18" fill="#f97878" d="M0 0H21.445V21.427H0z" transform="rotate(16.3 -219.917 872.777)"/>
        <path id="Rectangle_19" fill="#f97878" d="M0 0H21.445V21.427H0z" opacity="0.5" transform="rotate(16.3 -310.47 859.763)"/>
        <path id="Rectangle_20" fill="#f97878" d="M0 0H21.445V21.427H0z" opacity="0.3" transform="rotate(16.3 -401.006 846.755)"/>
        <g id="Group_4" class="cls-15" transform="translate(201.828 94.412)">
            <path id="Rectangle_21" fill="url(#linear-gradient-5)" d="M0 0H103.903V31.927H0z" transform="rotate(-85.41 56.106 51.772)"/>
        </g>
        <path id="Rectangle_22" d="M0 0H30.337V102.501H0z" class="cls-17" transform="rotate(4.44 -1089.503 2679.919)"/>
        <path id="Rectangle_23" fill="#73b53b" d="M0 0H21.451V21.429H0z" transform="rotate(4.44 -1112.578 2734.597)"/>
        <path id="Rectangle_24" fill="#73b53b" d="M0 0H21.451V21.429H0z" opacity="0.5" transform="rotate(4.44 -1435.398 2720.715)"/>
        <path id="Rectangle_25" fill="#73b53b" d="M0 0H21.451V21.429H0z" opacity="0.3" transform="rotate(4.44 -1758.317 2706.874)"/>
        <g id="Group_5" class="cls-15" transform="translate(196.438 97.204)">
            <path id="Rectangle_26" fill="url(#linear-gradient-6)" d="M0 0H31.924V103.902H0z" transform="rotate(-2.61 31.913 .727)"/>
        </g>
        <path id="Rectangle_27" d="M0 0H30.351V102.505H0z" class="cls-30" transform="rotate(-2.61 2278.409 -4285.548)"/>
        <path id="Rectangle_28" d="M0 0H21.454V21.432H0z" class="cls-31" transform="rotate(-2.61 2312.45 -4384.01)"/>
        <path id="Rectangle_29" fill="#496ba4" d="M0 0H21.481V21.459H0z" opacity="0.5" transform="rotate(-2.862 2619.595 -4021.337)"/>
        <path id="Rectangle_30" d="M0 0H21.454V21.432H0z" class="cls-33" transform="rotate(-2.61 3448.196 -4409.919)"/>
        <path id="Path_76" fill="#e6ecf8" d="M350.576 445.522l-26.962 10.42-39.406 15.217c-1.49-2.778-3.682-6.531-6.395-11.011-9.334-15.451-24.777-39.485-38.528-60.606-15.491-23.808-28.825-43.9-28.825-43.9l9.652-2.778L298.956 330z" transform="translate(-140.187 -211.132)"/>
        <path id="Path_77" d="M365.23 445.522l-26.962 10.42a202.858 202.858 0 0 1-45.813 4.206c-9.334-15.451-24.777-39.485-38.528-60.606l-19.157-46.691L313.61 330z" class="cls-35" transform="translate(-154.841 -211.132)"/>
        <path id="Path_78" d="M379.593 421.558s-41.885 24.752-104.42 19.153L225.32 319.292l23.892-4.1 82.594-14.17L378.675 419.2z" class="cls-31" transform="translate(-149.145 -193.651)"/>
        <path id="Path_79" d="M414.918 419.237a198.186 198.186 0 0 1-32.753-.933c-12.424-1.46-24.92-4.468-35.633-9.983a107.989 107.989 0 0 1-23.292-15.63c-17.37-15.606-28.118-37.929-37.77-77.462l82.594-14.169z" class="cls-35" transform="translate(-185.403 -193.675)"/>
        <path id="Path_80" d="M437.14 358.7s-30.874 6.039-62.3 2.321c-12.424-1.46-24.92-4.468-35.633-9.983a108.088 108.088 0 0 1-23.292-15.63c-21.5-19.32-32.848-48.928-44.554-108.721 0 0 51.326 12.376 102.081-14.733-.017.016 17.09 106.666 63.698 146.746z" class="cls-17" transform="translate(-176.898 -139.923)"/>
        <path id="Path_81" d="M442.455 531.242c-12.424-1.46-24.92-4.468-35.633-9.983a108.089 108.089 0 0 1-23.292-15.63c18.3-1.484 20.932-11.479 20.932-11.479 13.569 21.51 37.993 37.092 37.993 37.092z" class="cls-35" transform="translate(-244.514 -310.148)"/>
        <path id="Path_82" d="M338.2 287.154s41.738-2.357 53.392-11.344l1.767 5.674s-27.578 12.154-55.159 12.3z" class="cls-33" transform="translate(-217.189 -178.444)"/>
        <path id="Path_83" d="M338.2 349.243s40.411-2.21 70.944-16.943l1.033 2.357s-24.229 14.13-71.977 17.828z" class="cls-33" transform="translate(-217.189 -212.519)"/>
        <path id="Path_84" d="M346.39 376.753s40.411-2.21 70.94-16.943l1.033 2.357s-24.229 14.126-71.973 17.828z" class="cls-33" transform="translate(-222.126 -229.113)"/>
        <path id="Path_85" d="M354.57 404.3s40.411-2.21 70.944-16.943l1.029 2.357s-24.229 14.13-71.973 17.828z" class="cls-33" transform="translate(-227.057 -245.732)"/>
        <path id="Path_86" d="M362.76 431.853s40.411-2.21 70.94-16.943l1.033 2.357S410.5 431.4 362.76 435.095z" class="cls-33" transform="translate(-231.994 -262.35)"/>
        <path id="Path_87" d="M370.94 459.413s40.411-2.21 70.944-16.943l1.029 2.357s-24.229 14.126-71.973 17.828z" class="cls-33" transform="translate(-236.925 -278.975)"/>
        <path id="Path_88" d="M1063.58 827.207s-16.794-1.012-14.816 10.745a2.858 2.858 0 0 0 1.494 3.02s.028-.873 1.72-.576a7.722 7.722 0 0 0 1.827.087 3.774 3.774 0 0 0 2.228-.92s4.723-1.948 6.558-9.654c0 0 1.359-1.682 1.3-2.115l-2.832 1.19a5.066 5.066 0 0 1 .206 3.738s-.091-3.662-.635-3.571c-.111 0-1.474.706-1.474.706s1.664 3.571.4 6.142c0 0 .477-4.385-.929-5.884l-1.986 1.163s1.946 3.674.627 6.674c0 0 .338-4.6-1.049-6.392l-1.807 1.409s1.831 3.623.715 6.111c0 0-.147-5.357-1.108-5.761a10.273 10.273 0 0 0-1.819 1.984s1.251 2.627.473 4.016c0 0-.477-3.571-.866-3.571a11.782 11.782 0 0 0-1.74 3.968 8.574 8.574 0 0 1 1.358-4.21 4.77 4.77 0 0 0-2.415 1.25s.246-1.674 2.8-1.817a11.153 11.153 0 0 1 1.648-1.9 10.382 10.382 0 0 0-4.083.472s1.358-1.587 4.552-.861l1.783-1.452s-3.348-.46-4.767.048c0 0 1.633-1.4 5.247-.4l1.942-1.159a17.7 17.7 0 0 0-4.552-.4s1.791-.968 5.124.079l1.386-.623s-2.089-.4-2.7-.476-.647-.23-.647-.23a7.212 7.212 0 0 1 3.928.436 17.641 17.641 0 0 0 2.909-1.266z" class="cls-31" transform="translate(-645.419 -511.038)"/>
        <ellipse id="Ellipse_6" cx="11.884" cy="2.008" class="cls-1" rx="11.884" ry="2.008" transform="translate(394.71 328.95)"/>
        <ellipse id="Ellipse_7" cx="40.514" cy="3.666" class="cls-1" rx="40.514" ry="3.666" transform="translate(282.707 319.796)"/>
        <path id="Path_89" d="M1093.2 729.411s-9.465-.571-8.341 6.059a1.614 1.614 0 0 0 .838 1.7s.02-.492.973-.325a4.413 4.413 0 0 0 1.029.048 2.122 2.122 0 0 0 1.255-.516s2.661-1.1 3.7-5.444c0 0 .767-.948.735-1.19l-1.589.679a2.874 2.874 0 0 1 .115 2.111s-.052-2.067-.357-2.02c-.064 0-.83.4-.83.4a4.7 4.7 0 0 1 .23 3.464s.27-2.472-.524-3.321l-1.124.659a4.962 4.962 0 0 1 .354 3.762s.191-2.6-.592-3.6l-1.017.794s1.029 2.044.4 3.444c0 0-.083-3.02-.624-3.246a6.343 6.343 0 0 0-1.029 1.107s.707 1.484.27 2.266c0 0-.27-2.012-.489-2.02a6.63 6.63 0 0 0-.981 2.242 4.854 4.854 0 0 1 .767-2.381 2.662 2.662 0 0 0-1.363.706s.139-.944 1.589-1.024a6.335 6.335 0 0 1 .929-1.075 5.86 5.86 0 0 0-2.3.266 2.589 2.589 0 0 1 2.566-.484l1.009-.821a8.312 8.312 0 0 0-2.689.028s.922-.794 2.959-.214l1.1-.655a9.9 9.9 0 0 0-2.57-.218 3.927 3.927 0 0 1 2.888.044l.794-.349s-1.192-.234-1.525-.27-.365-.131-.365-.131a4.1 4.1 0 0 1 2.216.246 9.618 9.618 0 0 0 1.593-.721z" class="cls-31" transform="translate(-667.219 -452.052)"/>
        <ellipse id="Ellipse_8" cx="6.701" cy="1.131" class="cls-1" rx="6.701" ry="1.131" transform="translate(412.767 284.565)"/>
        <path id="Path_90" d="M949.853 743.907s-11.431-.69-10.081 7.313a1.948 1.948 0 0 0 1.013 2.055s0-.6 1.192-.4a5.232 5.232 0 0 0 1.243.06 2.568 2.568 0 0 0 1.517-.627s3.213-1.325 4.465-6.571c0 0 .926-1.143.886-1.44l-1.95.825a3.441 3.441 0 0 1 .139 2.543s-.063-2.492-.433-2.436c-.076 0-1 .484-1 .484s1.132 2.42.278 4.182c0 0 .326-2.984-.631-4.008l-1.359.794s1.323 2.5.425 4.543c0 0 .23-3.131-.711-4.365l-1.232.96s1.247 2.464.485 4.158c0 0-.1-3.647-.751-3.92a7.473 7.473 0 0 0-1.239 1.337s.85 1.79.322 2.734c0 0-.326-2.428-.592-2.44a8.3 8.3 0 0 0-1.192 2.71 5.855 5.855 0 0 1 .926-2.865 3.218 3.218 0 0 0-1.641.853s.167-1.139 1.907-1.238a7.323 7.323 0 0 1 1.124-1.294 7.047 7.047 0 0 0-2.78.317s.921-1.071 3.094-.583l1.215-.992a10.115 10.115 0 0 0-3.245.032s1.112-.948 3.575-.254l1.323-.794a12.038 12.038 0 0 0-3.1-.266 4.753 4.753 0 0 1 3.487.056l.945-.425s-1.422-.278-1.839-.321-.437-.159-.437-.159a4.914 4.914 0 0 1 2.673.294 12.254 12.254 0 0 0 1.979-.852z" class="cls-31" transform="translate(-579.749 -460.795)"/>
        <ellipse id="Ellipse_9" cx="8.091" cy="1.365" class="cls-1" rx="8.091" ry="1.365" transform="translate(354.14 291.814)"/>
        <ellipse id="Ellipse_10" cx="11.884" cy="2.008" class="cls-1" rx="11.884" ry="2.008" transform="translate(9.823 322.966)"/>
        <path id="Path_91" d="M68.1 820.371s6.776-.206 8.822-1.658 10.427-3.174 10.935-.861 10.188 11.594 2.534 11.658-17.783-1.19-19.824-2.432-2.467-6.707-2.467-6.707z" class="cls-36" transform="translate(-54.373 -504.725)"/>
        <path id="Path_92" d="M90.514 834.233c-7.654.063-17.783-1.19-19.824-2.432-1.549-.944-2.169-4.337-2.383-5.9h-.227s.429 5.464 2.467 6.706 12.2 2.5 19.832 2.46c2.208-.02 2.971-.794 2.931-1.984-.31.697-1.152 1.138-2.796 1.15z" class="cls-37" transform="translate(-54.361 -510.263)"/>
        <path id="Rectangle_31" fill="url(#linear-gradient-7)" d="M0 0H67.764V121.322H0z" transform="rotate(-72 201.172 -183.662)"/>
        <path id="Rectangle_32" d="M0 0H66.831V119.645H0z" class="cls-39" transform="rotate(-72 201.517 -184.4)"/>
        <g id="Group_6" class="cls-40" transform="translate(335.07 23.416)">
            <ellipse id="Ellipse_11" cx="12.456" cy="12.443" class="cls-31" rx="12.456" ry="12.443"/>
        </g>
        <g id="Group_7" class="cls-40" transform="translate(377.328 30.365)">
            <path id="Rectangle_33" d="M0 0H3.425V54.265H0z" class="cls-31" transform="rotate(-72 2.24 1.628)"/>
        </g>
        <g id="Group_8" class="cls-40" transform="translate(374.638 38.636)">
            <path id="Rectangle_34" d="M0 0H3.417V27.643H0z" class="cls-31" transform="rotate(-72 2.236 1.625)"/>
        </g>
        <g id="Group_9" class="cls-40" transform="translate(371.944 46.901)">
            <path id="Rectangle_35" d="M0 0H3.422V44.709H0z" class="cls-31" transform="rotate(-72 2.239 1.627)"/>
        </g>
        <g id="Group_10" class="cls-40" transform="translate(369.254 55.165)">
            <path id="Rectangle_36" d="M0 0H3.425V54.265H0z" class="cls-31" transform="rotate(-72 2.24 1.628)"/>
        </g>
        <g id="Group_11" class="cls-15" transform="translate(401.714 79.234)">
            <path id="Rectangle_37" d="M0 0H6.596V15.019H0z" class="cls-31" transform="rotate(-72 4.316 3.136)"/>
        </g>
        <path id="Path_93" fill="url(#linear-gradient-8)" d="M843.5 461.5a3.619 3.619 0 0 0-.04-.4 2.018 2.018 0 0 0-.068-.4c-.052-.27-.107-.536-.171-.794-.032-.123-.064-.25-.1-.369a10.059 10.059 0 0 0-1.986-3.837c-.052-.063-.107-.123-.159-.182s-.215-.23-.322-.337-.207-.2-.31-.294-.2-.175-.294-.254c-.191-.155-.37-.286-.524-.4a3.266 3.266 0 0 0-.322-.206 1.766 1.766 0 0 0-.747-.242l-1.648-.163-2.252-.222-8.051-3.123-.318.111a18.246 18.246 0 0 1-.6-1.984 1.779 1.779 0 0 0 .636-.464 1.45 1.45 0 0 0 .437-.559c.2-.468-.187-1.464-.107-2.036a9.6 9.6 0 0 1 .993-2.631 12.2 12.2 0 0 0 1.331-5.67 6.394 6.394 0 0 0-2.645-5.031c-.854-.567-1.859-.869-2.749-1.385-.691-.4-1.3-.929-1.958-1.381a11.267 11.267 0 0 0-11.09-.794 54.1 54.1 0 0 0-4.675 3.039 7.9 7.9 0 0 1-5.283 1.452 1.287 1.287 0 0 0-.056.23l-.155-.02c-.318.865.461 1.722 1.192 2.313 1.362 1.123 2.908 2.242 4.683 2.282a4.924 4.924 0 0 1 2.038.151 1.865 1.865 0 0 1 .4.238 8.835 8.835 0 0 0 2.78 8.813l-4.111-1.476s-.171.087-.437.254l-5.7-3.793s-11.435-4.143-14.613 2.309 13.771 3.123 13.771 3.123l3.626 1.984a3.3 3.3 0 0 0 .4 2.174l9.886 6.1a52.255 52.255 0 0 1-5.863 1.587c-.846 0-3.178.833-4.659 4.162s-6.78 19.57-11.439 22.276-16.945 20.82-16.945 20.82l.056.143c-.218.06-.433.119-.643.19a13.019 13.019 0 0 0-6.383 4.809 2.039 2.039 0 0 0 1.43 3.218c4.85.615 7.5-1.619 8.774-3.305.084-.107.159-.214.23-.321a1.7 1.7 0 0 0 1.192.055l5.93-4.789s-4.639 4.563-1.919 8.73l-.207.29A66.2 66.2 0 0 0 773.8 537.1s-2.542 1.873-2.753 9.368-2.757 19.57-2.757 19.57-1.692 14.368-.635 18.736c0 0 .123.175.35.44-.079.1-.167.2-.262.3-.925 1-2.594 2.381-4.536 1.984-2.963-.627-2.963 4.579 1.271 5a113 113 0 0 1 11.566 2.317 2.434 2.434 0 0 0 3.019-2.595 21.957 21.957 0 0 0-1.271-5.73c-.044-.1-.087-.2-.131-.29.123-.119.25-.238.373-.365 0 0 0-9.162 1.485-11.658 0 0 4.024-18.947 3.809-23.736-.163-3.746 10.442-18.336 15.058-24.5l-.04-.234c1.192-1.587 1.93-2.539 1.93-2.539l3.571 22.7s1.7 5 3.813 7.7c0 0 9.108 17.28 10.168 22.693a17.058 17.058 0 0 0 3.209 7.468l-.274.262a4.64 4.64 0 0 1-4 1.432c-2.963-.627-2.963 4.579 1.271 5a113.845 113.845 0 0 1 11.563 2.321 2.438 2.438 0 0 0 3.023-2.6 18.756 18.756 0 0 0-1.62-6.458 4.488 4.488 0 0 0-.242-.4 2.234 2.234 0 0 0 .842-.591s-5.509-13.118-5.509-16.665c0 0-2.328-13.531-10.164-18.526 0 0 .739-16.927 2.971-26.347.056-.23.111-.46.167-.682a62.918 62.918 0 0 0 6.18-1.286l.211-6.245 1.061 5 11.86-7.285s-.1-1.313-.3-3.325c-.1-1.008-.226-2.19-.373-3.472-.119-1.024-.254-2.111-.4-3.222-.04-.278-.075-.559-.115-.837-.155-1.123-.326-2.258-.508-3.369q-.107-.627-.214-1.238c-.1-.544-.2-1.075-.3-1.587-.052-.258-.107-.516-.159-.766s-.111-.5-.167-.742l-.167-.71c-.032-.115-.06-.23-.087-.341-.06-.226-.119-.448-.179-.663a11.892 11.892 0 0 1-.429-2.73v-1.1a7.873 7.873 0 0 1 .107-1.1c.024-.178.056-.361.091-.54a12.111 12.111 0 0 1 .6-2.127c.131-.345.282-.686.445-1.024.4-.794.794-1.639 1.215-2.539.214-.448.429-.909.643-1.377s.433-.944.651-1.428c2.062-4.591 4.1-9.706 4.639-13.066.056-.353.1-.686.119-1a6.356 6.356 0 0 0 .012-.857z" transform="translate(-472.126 -269.866)"/>
        <path id="Path_94" d="M846.738 472.846l-6.987-4.718s-11.094-4.107-14.176 2.258 13.354 3.079 13.354 3.079l6.987 3.9z" class="cls-42" transform="translate(-510.747 -293.665)"/>
        <path id="Rectangle_38" d="M0 0H66.827V104.032H0z" class="cls-17" transform="rotate(-57.25 330.122 -129.21)"/>
        <path id="Rectangle_39" d="M0 0H18.895V4.456H0z" class="cls-14" transform="rotate(-57.59 331.711 -141.285)"/>
        <path id="Rectangle_40" d="M0 0H41.495V4.097H0z" class="cls-14" transform="rotate(-57.59 340.653 -150.59)"/>
        <path id="Rectangle_41" d="M0 0H41.495V4.097H0z" class="cls-14" transform="rotate(-57.59 348.575 -154.95)"/>
        <path id="Rectangle_42" d="M0 0H41.495V4.097H0z" class="cls-14" transform="rotate(-57.59 356.504 -159.302)"/>
        <path id="Rectangle_43" d="M0 0H41.437V4.092H0z" class="cls-14" transform="rotate(-57.25 367.89 -164.822)"/>
        <path id="Rectangle_44" d="M0 0H41.495V4.097H0z" class="cls-30" transform="rotate(-57.59 372.353 -168.015)"/>
        <path id="Rectangle_45" d="M0 0H41.495V4.097H0z" class="cls-30" transform="rotate(-57.59 380.276 -172.374)"/>
        <path id="Rectangle_46" d="M0 0H10.749V10.754H0z" class="cls-14" transform="rotate(-57.59 377.626 -210.418)"/>
        <path id="Path_95" d="M909.5 828.338a109.187 109.187 0 0 0-11.217-2.286c-4.111-.4-4.111-5.555-1.231-4.928a4.452 4.452 0 0 0 3.873-1.409 9.051 9.051 0 0 0 .794-.869 2.384 2.384 0 0 1 1.331-.813c1.541-.333 4.766-.841 6.717.218a2.9 2.9 0 0 1 1.064 1.167 19.034 19.034 0 0 1 1.589 6.349 2.382 2.382 0 0 1-2.919 2.571z" class="cls-43" transform="translate(-552.845 -505.265)"/>
        <path id="Path_96" d="M778.638 833.534a108.9 108.9 0 0 0-11.213-2.286c-4.111-.4-4.111-5.555-1.235-4.924 1.883.4 3.5-.956 4.4-1.94.111-.119.211-.234.294-.341a2.384 2.384 0 0 1 1.327-.794c1.541-.337 4.766-.845 6.721.218a3.632 3.632 0 0 1 1.41 1.877 22.2 22.2 0 0 1 1.231 5.646 2.382 2.382 0 0 1-2.931 2.543z" class="cls-43" transform="translate(-473.962 -508.409)"/>
        <path id="Path_97" d="M790.081 825.329c-4.905 5.051-9.112-.1-9.751-.944.111-.119.211-.234.294-.341a2.384 2.384 0 0 1 1.327-.794c1.541-.337 4.766-.845 6.721.218a3.427 3.427 0 0 1 1.409 1.861z" class="cls-35" transform="translate(-483.705 -508.409)"/>
        <path id="Path_98" d="M919.806 819.418c-2.125 1.448-9.279 1.091-9.279 1.091a6.693 6.693 0 0 1-.647-.794 9.05 9.05 0 0 0 .794-.869 2.383 2.383 0 0 1 1.331-.813c1.541-.333 4.766-.841 6.717.218a2.9 2.9 0 0 1 1.084 1.167z" class="cls-35" transform="translate(-561.797 -505.265)"/>
        <path id="Path_99" fill="#5c5c8e" d="M841.456 714.951c-1.442 1.849-9.656 1.436-9.656 1.436s-2.467-2.464-3.5-7.8-9.862-22.371-9.862-22.371a32.255 32.255 0 0 1-3.7-7.595l-3.491-22.371s-16.845 22.165-16.639 26.887-3.7 23.411-3.7 23.411c-1.438 2.464-1.438 11.507-1.438 11.507-5.338 5.555-9.858-1.028-9.858-1.028-1.029-4.309.616-18.471.616-18.471s2.467-11.9 2.669-19.292 2.673-9.233 2.673-9.233a65.781 65.781 0 0 1 9.648-21.292c1.239-1.774 2.061-2.722 2.061-2.722l33.281 3.9a20.919 20.919 0 0 0-1.43 4.4c-2.165 9.285-2.884 25.97-2.884 25.97 7.6 4.924 9.862 18.252 9.862 18.252.006 3.48 5.348 16.412 5.348 16.412z" transform="translate(-483.07 -401.757)"/>
        <g id="Group_12" class="cls-13" transform="translate(300.931 244.255)">
            <path id="Path_100" d="M816.591 674.544l-.429-2.734s-16.845 22.165-16.639 26.887-3.7 23.411-3.7 23.411c-1.442 2.464-1.442 11.507-1.442 11.507a7.023 7.023 0 0 1-3.213 2.059c1.617.425 3.575.111 5.68-2.059 0 0 0-9.031 1.438-11.507 0 0 3.9-18.677 3.7-23.411-.159-3.697 10.124-18.082 14.605-24.153z" transform="translate(-791.17 -661.569)"/>
            <path id="Path_101" d="M863.619 698.519s-2.26-13.34-9.859-18.253c0 0 .719-16.685 2.88-25.97a20.9 20.9 0 0 1 1.434-4.4L824.792 646s-.079.087-.222.262l31.037 3.639a20.92 20.92 0 0 0-1.43 4.4c-2.165 9.285-2.884 25.97-2.884 25.97 7.6 4.924 9.862 18.252 9.862 18.252 0 3.488 5.342 16.419 5.342 16.419-.85 1.087-4.052 1.393-6.542 1.46 1.986.052 7.813.071 9-1.46.006-.003-5.336-12.935-5.336-16.423z" transform="translate(-811.304 -646)"/>
        </g>
        <path id="Path_102" d="M792.023 633.372a7.494 7.494 0 0 1-.973 1.7c-1.235 1.663-3.805 3.861-8.508 3.258a2.019 2.019 0 0 1-1.39-3.174 12.657 12.657 0 0 1 6.192-4.761 11.314 11.314 0 0 1 2.625-.532z" class="cls-42" transform="translate(-483.974 -392.01)"/>
        <path id="Path_103" d="M888.309 484.9l-16.476-6.019s-4.727 2.464-2.876 5.952L885 494.891z" class="cls-45" transform="translate(-536.87 -300.937)"/>
        <path id="Path_104" d="M888.463 485.069l-16.48-6.019s-4.727 2.46-2.876 5.952l16.023 10.055z" class="cls-35" transform="translate(-536.961 -301.04)"/>
        <path id="Path_105" d="M906.364 468.434s-.207 9.646 4.111 12.931-12.536 5.131-12.536 5.131 2.673-9.852 0-14.983 8.425-3.079 8.425-3.079z" class="cls-42" transform="translate(-554.349 -294.392)"/>
        <path id="Path_106" d="M854.763 649.85a20.924 20.924 0 0 0-1.43 4.4c-19.86 3.031-33.7-5.226-33.7-5.226-.075-.119-.147-.238-.21-.357 1.239-1.774 2.062-2.722 2.062-2.722z" class="cls-35" transform="translate(-507.268 -401.715)"/>
        <path id="Path_107" d="M801.989 633.4a7.5 7.5 0 0 1-.973 1.7c-1.9-.317-3.424-3.968-3.706-4.658a11.315 11.315 0 0 1 2.625-.532z" class="cls-35" transform="translate(-493.94 -392.04)"/>
        <path id="Path_108" d="M848.468 490.78l-7.4 2.666-3.082 4.107s-6.355 2.051-7.189 2.051-3.082.821-4.52 4.1-6.574 19.3-11.094 21.962-16.436 20.522-16.436 20.522 2.054 5.555 4.52 4.722l5.752-4.722s-4.52 4.516-1.851 8.622c0 0 16.849 10.055 40.066 3.9l.2-6.154 1.029 4.924 11.519-7.182s-1.029-13.249-2.884-19.99a12.179 12.179 0 0 1 .794-8.5c2.983-6.21 7.587-16.582 7.027-20.363-.663-4.456-3.178-6.392-4.147-6.976a1.718 1.718 0 0 0-.723-.242l-3.761-.373z" class="cls-45" transform="translate(-494.808 -308.115)"/>
        <path id="Path_109" d="M853.133 542.76s-4.111 19.086-8.631 22.165-16.639 12.931-17.052 14.575" class="cls-6" transform="translate(-512.109 -339.47)"/>
        <path id="Path_110" d="M848.479 541.21s-4.107 19.086-8.627 22.165-16.643 12.932-17.052 14.57" class="cls-45" transform="translate(-509.306 -338.535)"/>
        <path id="Path_111" d="M897.28 501.971s14.176-4.722 18.271-3.492" class="cls-35" transform="translate(-554.202 -312.636)"/>
        <g id="Group_13" class="cls-13" transform="translate(352.964 182.665)">
            <path id="Path_112" d="M932.968 526.83c2.983-6.21 7.586-16.582 7.026-20.363-.663-4.456-3.178-6.392-4.147-6.976a1.716 1.716 0 0 0-.723-.242l-1.589-.159a1.591 1.591 0 0 1 .477.194c.961.587 3.484 2.52 4.143 6.98.56 3.777-4.043 14.154-7.022 20.363a12.169 12.169 0 0 0-.794 8.491c1.859 6.746 2.888 19.99 2.888 19.99l-9.907 6.192.25 1.19 11.519-7.182s-1.029-13.249-2.884-19.99a12.177 12.177 0 0 1 .763-8.483z" transform="translate(-922.863 -495.793)"/>
            <path id="Path_113" d="M895.283 463.223l1.78.179-7.737-3.051-.7.25z" transform="translate(-888.63 -460.35)"/>
        </g>
        <path id="Path_114" d="M887.45 587.013s6.355-3.488 8.425-2.666 9.656-.206 9.656-.206" class="cls-6" transform="translate(-548.276 -364.431)"/>
        <path id="Path_115" d="M905.677 472.25c-.234-2.059.719-1.746.719-1.746s-11.094-2.051-8.425 3.079a11.745 11.745 0 0 1 1.128 4.512h.107c3.082.005 4.882-3.44 6.471-5.845z" class="cls-6" transform="translate(-554.369 -295.641)"/>
        <ellipse id="Ellipse_12" cx="8.834" cy="8.825" class="cls-42" rx="8.834" ry="8.825" transform="translate(335.992 163.988)"/>
        <path id="Path_116" d="M886.047 449.506a12.292 12.292 0 0 0 1.291-5.591 6.338 6.338 0 0 0-2.566-4.964c-.826-.556-1.8-.853-2.665-1.361-.671-.4-1.263-.917-1.9-1.361a10.778 10.778 0 0 0-10.756-.794 49.408 49.408 0 0 0-4.532 3 7.6 7.6 0 0 1-5.124 1.432c-.31.853.449 1.694 1.144 2.282 1.323 1.107 2.82 2.21 4.544 2.246a4.76 4.76 0 0 1 1.986.151 2.847 2.847 0 0 1 1.009.936 18.471 18.471 0 0 1 2.1 3.551 2.944 2.944 0 0 0 .937 1.381c.794.508 1.823.083 2.78.048a5.724 5.724 0 0 1 3.861 1.845 11.787 11.787 0 0 0 3.479 2.631c1.021.4 3.063.373 3.575-.845.195-.46-.183-1.444-.1-2.008a9.711 9.711 0 0 1 .945-2.579z" class="cls-35" transform="translate(-531.561 -274.083)"/>
        <path id="Path_117" d="M886.512 448.976a12.236 12.236 0 0 0 1.291-5.587 6.346 6.346 0 0 0-2.562-4.964c-.83-.56-1.807-.857-2.665-1.365-.671-.4-1.263-.913-1.9-1.361a10.778 10.778 0 0 0-10.756-.794 49.414 49.414 0 0 0-4.532 3 7.578 7.578 0 0 1-5.124 1.432c-.31.857.445 1.7 1.144 2.282 1.323 1.107 2.82 2.21 4.544 2.25a4.7 4.7 0 0 1 1.986.151 2.779 2.779 0 0 1 1.009.936 18.252 18.252 0 0 1 2.093 3.547 2.951 2.951 0 0 0 .941 1.381c.794.508 1.823.083 2.78.048a5.729 5.729 0 0 1 3.857 1.849 11.687 11.687 0 0 0 3.482 2.619c1.021.4 3.062.373 3.575-.845.2-.46-.179-1.444-.1-2.008a9.7 9.7 0 0 1 .937-2.571z" class="cls-45" transform="translate(-531.844 -273.764)"/>
        <path id="Path_118" d="M490.244 574.323a4.1 4.1 0 0 1-2.629.928l-177.458-.751a5.452 5.452 0 0 1-1.219-4.154l17.532-143.312 10.995-.119a4.154 4.154 0 0 1 4.051 3.063l2.054 7.571a4.154 4.154 0 0 0 4.107 3.063l43.879-1.051a4.152 4.152 0 0 0 4.055-4.15v-5.015a4.153 4.153 0 0 1 4.107-4.15l60.8-.655a4.154 4.154 0 0 1 4.119 3.369l26.89 140.464.175.9a4.125 4.125 0 0 1-1.458 3.999z" class="cls-35" transform="translate(-199.525 -268.792)"/>
        <path id="Path_119" fill="#e6e8ee" d="M403.678 430.6l-60.8.655a4.153 4.153 0 0 0-4.111 4.147v5.019a4.152 4.152 0 0 1-4.051 4.147l-43.875 1.051a4.15 4.15 0 0 1-4.111-3.063l-2.061-7.567a4.15 4.15 0 0 0-4.055-3.063l-58.614.63a4.148 4.148 0 0 0-4.051 4.841l23.58 138.623a4.154 4.154 0 0 0 4.079 3.456l185.151.794a4.152 4.152 0 0 0 4.1-4.928L407.8 433.968a4.15 4.15 0 0 0-4.122-3.368z" transform="translate(-144.667 -271.814)"/>
        <path id="Path_120" d="M873.172 168.9l-.318 3.531.23 6.245-.671 10.535s-.1 4.615-2.7 6.777l-6.661 10.217-.04.02-2.506 1.222-3.825.4-1.986-4.805 1.305-5.28.731-.984.2-.222c.794-.873 3.861-4.043 6.3-5.031a3.441 3.441 0 0 0 1.339-3.055c-.286-1.865 2.193-11.777 2.193-11.777s1.589-6.555 1.243-7.194-.063-15.15 5.418-15.372-.252 14.773-.252 14.773z" class="cls-4" transform="translate(-528.529 -105.042)"/>
        <ellipse id="Ellipse_13" cx="6.439" cy=".885" class="cls-1" rx="6.439" ry=".885" transform="translate(53.709 277.22)"/>
        <ellipse id="Ellipse_14" cx="6.439" cy=".885" class="cls-1" rx="6.439" ry=".885" transform="translate(29.047 279.716)"/>
        <ellipse id="Ellipse_15" cx="6.439" cy=".885" class="cls-1" rx="6.439" ry=".885" transform="translate(0 276.335)"/>
        <ellipse id="Ellipse_16" cx="4.576" cy=".627" class="cls-1" rx="4.576" ry=".627" transform="translate(40.781 287.088)"/>
        <ellipse id="Ellipse_17" cx="4.576" cy=".627" class="cls-1" rx="4.576" ry=".627" transform="translate(15.185 286.461)"/>
        <path id="Path_121" d="M80.923 662.869s9.028-29.569-1.414-41.413c-7.813-8.86-16.682-7.8-20.654-6.706a7.343 7.343 0 0 0-4.735 3.932c-1.39 2.992-1.14 7.849 8.663 13.519 16.408 9.491 17.429 22.51 17.429 22.51z" class="cls-31" transform="translate(-45.577 -382.462)"/>
        <path id="Path_122" d="M70.54 626.41s26.612 8.333 20.654 43.925" class="cls-47" transform="translate(-55.844 -389.929)"/>
        <path id="Path_123" d="M105.54 633.92s-3.666 2.468-2.5 6.178" class="cls-47" transform="translate(-75.297 -394.459)"/>
        <path id="Path_124" d="M77.26 637.334s2.24-2.278 4.969-1.02" class="cls-47" transform="translate(-59.894 -395.674)"/>
        <path id="Path_125" d="M103.75 667.181s3.936-1.984 4.953.5" class="cls-47" transform="translate(-75.863 -414.07)"/>
        <path id="Path_126" d="M123.7 678.768s-2.955-.234-3.007 1.19" class="cls-47" transform="translate(-86.074 -421.503)"/>
        <path id="Path_127" d="M99.234 705.719s-10.577-21.49-13.481-21.03c-1.378.226-2.014 1.587-2.3 2.944a8.638 8.638 0 0 0 .576 5.23c1.498 3.452 5.529 9.979 15.205 12.856z" class="cls-31" transform="translate(-63.522 -425.079)"/>
        <path id="Path_128" d="M89.71 695s11.1 16.078 13.243 16.784" class="cls-47" transform="translate(-67.399 -431.303)"/>
        <path id="Line_1" d="M0 0L2.59 0" class="cls-47" transform="translate(21.29 266.209)"/>
        <path id="Line_2" d="M0 0L4.063 0.175" class="cls-47" transform="translate(24.392 272.09)"/>
        <path id="Line_3" d="M0.441 0L0 2.115" class="cls-47" transform="translate(26.426 267.384)"/>
        <path id="Line_4" d="M0.079 0L0 1.92" class="cls-47" transform="translate(31.105 273.816)"/>
        <path id="Path_129" d="M122.66 705.719s10.573-21.49 13.477-21.03c1.382.226 2.018 1.587 2.3 2.944a8.638 8.638 0 0 1-.576 5.23c-1.498 3.452-5.533 9.979-15.201 12.856z" class="cls-31" transform="translate(-87.261 -425.079)"/>
        <path id="Path_130" d="M136.3 695s-11.122 16.078-13.247 16.784" class="cls-47" transform="translate(-87.497 -431.303)"/>
        <path id="Line_5" d="M2.59 0L0 0" class="cls-47" transform="translate(47.231 266.209)"/>
        <path id="Line_6" d="M4.063 0L0 0.175" class="cls-47" transform="translate(42.655 272.09)"/>
        <path id="Line_7" d="M0 0L0.441 2.115" class="cls-47" transform="translate(44.244 267.384)"/>
        <path id="Line_8" d="M0 0L0.079 1.92" class="cls-47" transform="translate(39.927 273.816)"/>
        <path id="Path_131" d="M75.987 745.912a1.824 1.824 0 0 1-.6-.909.793.793 0 0 1 .421-.924 1.168 1.168 0 0 1 1.112.4 1.421 1.421 0 0 0 1.076.5 1.642 1.642 0 0 1-.508-1.539.626.626 0 0 1 .139-.313c.214-.23.6-.131.862.052a3.256 3.256 0 0 1 1.049 2.678 5.114 5.114 0 0 0 0-1.1 1.131 1.131 0 0 1 .445-.964 1.241 1.241 0 0 1 .632-.151 1.312 1.312 0 0 1 1.029.294 1.019 1.019 0 0 1-.04 1.258 4.05 4.05 0 0 1-1.065.849 2.382 2.382 0 0 0-.759.726.53.53 0 0 0-.056.127h-2.311a6.411 6.411 0 0 1-1.426-.984z" class="cls-31" transform="translate(-58.748 -460.252)"/>
        <path id="Path_132" d="M177.436 724.128a1.8 1.8 0 0 1-.6-.9.793.793 0 0 1 .417-.925 1.168 1.168 0 0 1 1.112.4 1.465 1.465 0 0 0 1.084.52 1.642 1.642 0 0 1-.512-1.536.63.63 0 0 1 .143-.313c.214-.23.6-.131.862.048a3.209 3.209 0 0 1 1.049 2.682 5.153 5.153 0 0 0 0-1.107 1.134 1.134 0 0 1 .4-.976 1.268 1.268 0 0 1 .632-.147 1.328 1.328 0 0 1 1.029.29 1.019 1.019 0 0 1-.044 1.262 3.97 3.97 0 0 1-1.061.849 2.358 2.358 0 0 0-.759.722.652.652 0 0 0-.056.131h-2.26a6.355 6.355 0 0 1-1.436-1z" class="cls-31" transform="translate(-119.902 -447.126)"/>
        <path id="Path_133" d="M143.621 745.942a1.861 1.861 0 0 1-.6-.909.793.793 0 0 1 .421-.925 1.168 1.168 0 0 1 1.112.4 1.478 1.478 0 0 0 1.084.524 1.654 1.654 0 0 1-.512-1.54.63.63 0 0 1 .143-.313c.214-.23.6-.131.862.052a3.209 3.209 0 0 1 1.049 2.678 5.117 5.117 0 0 0 0-1.1 1.134 1.134 0 0 1 .417-.976 1.227 1.227 0 0 1 .632-.151 1.315 1.315 0 0 1 1.029.294 1.015 1.015 0 0 1-.044 1.258 4.03 4.03 0 0 1-1.061.849 2.38 2.38 0 0 0-.759.726.531.531 0 0 0-.056.127h-2.3a6.476 6.476 0 0 1-1.417-.994z" class="cls-31" transform="translate(-99.516 -460.282)"/>
        <path id="Path_134" d="M45.748 706.25s-.862 1.127.4 2.829 2.3 3.139 1.879 4.2c0 0-1.9-3.174-3.452-3.2s-.531-1.944 1.173-3.829z" class="cls-31" transform="translate(-39.73 -438.089)"/>
        <path id="Path_135" d="M45.752 706.25a1.42 1.42 0 0 0-.175.353c-1.509 1.773-2.316 3.428-.862 3.472 1.35.04 2.975 2.452 3.36 3.063a1.412 1.412 0 0 1-.044.139s-1.9-3.174-3.452-3.2-.531-1.942 1.173-3.827z" class="cls-35" transform="translate(-39.734 -438.089)"/>
        <path id="Path_136" d="M44.66 709.484c0 .4.044.718.1.718s.1-.321.1-.718-.056-.21-.111-.21-.089-.187-.089.21z" class="cls-48" transform="translate(-40.243 -439.886)"/>
        <path id="Path_137" d="M42.946 710.657c.35.19.651.3.679.254s-.234-.238-.584-.429-.211-.052-.238 0-.203-.016.143.175z" class="cls-48" transform="translate(-39.082 -440.583)"/>
        <path id="Path_138" d="M56.561 706.25s.866 1.127-.4 2.829-2.3 3.139-1.879 4.2c0 0 1.9-3.174 3.452-3.2s.531-1.944-1.173-3.829z" class="cls-31" transform="translate(-45.988 -438.089)"/>
        <path id="Path_139" d="M56.634 706.25a1.5 1.5 0 0 1 .179.353c1.509 1.774 2.316 3.428.862 3.472-1.35.04-2.975 2.452-3.364 3.063a.82.82 0 0 0 .048.139s1.9-3.174 3.452-3.2.527-1.942-1.177-3.827z" class="cls-35" transform="translate(-46.06 -438.089)"/>
        <path id="Path_140" d="M63.9 709.484c0 .4-.044.718-.1.718s-.1-.321-.1-.718.056-.21.111-.21.089-.187.089.21z" class="cls-48" transform="translate(-51.72 -439.886)"/>
        <path id="Path_141" d="M64.557 710.657c-.35.19-.655.3-.679.254s.234-.238.584-.429.211-.052.234 0 .204-.016-.139.175z" class="cls-48" transform="translate(-51.827 -440.583)"/>
        <path id="Path_142" d="M49.889 721.611a8.873 8.873 0 0 1-3.138-.591c-.727-.516-3.71-1.135-3.893-.306s-3.622 4.127-.9 4.147 6.327-.425 7.054-.865.877-2.385.877-2.385z" class="cls-36" transform="translate(-37.985 -446.569)"/>
        <path id="Path_143" d="M41.912 726.544c2.725.024 6.327-.421 7.054-.865.552-.333.771-1.54.846-2.1h.079s-.151 1.944-.878 2.381-4.329.889-7.054.865c-.794 0-1.057-.286-1.041-.7.108.26.43.399.994.419z" class="cls-37" transform="translate(-37.988 -448.542)"/>
        <ellipse id="Ellipse_18" cx="8.591" cy="8.583" class="cls-1" rx="8.591" ry="8.583" transform="translate(4.89 41.696)"/>
        <ellipse id="Ellipse_19" cx="8.591" cy="8.583" class="cls-1" rx="8.591" ry="8.583" transform="translate(418.014 110.282)"/>
        <ellipse id="Ellipse_20" cx="8.591" cy="8.583" class="cls-1" rx="8.591" ry="8.583" transform="translate(263.574 14.441)"/>
        <ellipse id="Ellipse_21" cx="14.399" cy="14.384" class="cls-1" rx="14.399" ry="14.384" transform="translate(16.265 83.244)"/>
        <path id="Path_144" d="M462.707 610.05l-.508-.508a.543.543 0 0 1 0-.794l4.461-4.46a.544.544 0 0 1 .794 0l4.461 4.456a.551.551 0 0 1 0 .794l-.508.508a.552.552 0 0 1-.794 0l-2.637-2.777v6.591a.548.548 0 0 1-.548.552h-.735a.552.552 0 0 1-.552-.552v-6.583l-2.637 2.778a.552.552 0 0 1-.794 0z" class="cls-39" transform="translate(-291.831 -376.481)"/>
        <path id="Path_145" d="M459.124 592.53a9.043 9.043 0 1 1-9.052 9.043 9.048 9.048 0 0 1 9.052-9.043m0-1.19a10.233 10.233 0 1 0 10.244 10.233 10.239 10.239 0 0 0-10.244-10.233z" class="cls-39" transform="translate(-283.907 -368.774)"/>
    </g>
</svg>
