<svg xmlns="http://www.w3.org/2000/svg" id="up-arrow-svgrepo-com" width="18" height="18" viewBox="0 0 18 18">
    <defs>
        <style>
            .cls-1{fill:#182947}
        </style>
    </defs>
    <g id="up-arrow-svgrepo-com-2" transform="rotate(180 9 9)">
        <g id="Group_14">
            <path id="Path_146" d="M9 18a9 9 0 1 0-9-9 9.01 9.01 0 0 0 9 9zM9 .9A8.1 8.1 0 1 1 .9 9 8.11 8.11 0 0 1 9 .9z" class="cls-1"/>
            <path id="Path_147" d="M165.06 129.792l1.762-1.762v6.732a.451.451 0 0 0 .9 0v-6.728l1.762 1.762a.45.45 0 0 0 .639-.635l-2.529-2.529a.448.448 0 0 0-.635 0l-2.529 2.529a.448.448 0 0 0 0 .635.442.442 0 0 0 .63-.004z" class="cls-1" transform="translate(-158.269 -121.857)"/>
        </g>
    </g>
</svg>
