<svg xmlns="http://www.w3.org/2000/svg" width="62.1" height="56.236" viewBox="0 0 62.1 56.236"><g transform="translate(0.5 0.55)"><g transform="matrix(0.995, 0.105, -0.105, 0.995, 38.449, 0)"><line x2="0.213" y2="21.087" transform="translate(4.785 9.978)" fill="none" stroke="#0d2330" stroke-linecap="round" stroke-miterlimit="10" stroke-width="1"/><path d="M54.307,29.728c0,6.052,4.862,10.958,4.862,10.958s4.862-4.906,4.862-10.958-4.862-10.959-4.862-10.959S54.307,23.675,54.307,29.728Z" transform="translate(-54.307 -18.769)" fill="none" stroke="#0d2330" stroke-linecap="round" stroke-linejoin="round" stroke-miterlimit="10" stroke-width="1"/><line x1="5.846" y2="5.625" transform="translate(4.789 23.452)" fill="none" stroke="#0d2330" stroke-linecap="round" stroke-miterlimit="10" stroke-width="1"/><path d="M65.526,39.232c-2.654,2.856-2.512,7.3-2.512,7.3s4.446-.183,7.1-3.039,2.512-7.3,2.512-7.3S68.18,36.377,65.526,39.232Z" transform="translate(-55.024 -20.205)" fill="none" stroke="#0d2330" stroke-linecap="round" stroke-linejoin="round" stroke-miterlimit="10" stroke-width="1"/></g><g transform="translate(0 11.594)"><path d="M18.729,41.11c-.772-.334,15.895-14.45,24.828-2.627C43.557,38.614,41.192,50.83,18.729,41.11Z" transform="translate(-17.755 -33.772)" fill="none" stroke="#0d2330" stroke-linejoin="round" stroke-miterlimit="10" stroke-width="1"/><g transform="translate(16.014 13.503)"><path d="M55.869,56.936a3.077,3.077,0,0,0,5.866-1.862" transform="translate(-36.831 -49.03)" fill="none" stroke="#0d2330" stroke-linejoin="round" stroke-miterlimit="10" stroke-width="1"/><path d="M79.064,48.487a23.052,23.052,0,0,1-43.942,13.95l22.119-7.023Z" transform="translate(-35.122 -48.487)" fill="none" stroke="#0d2330" stroke-linejoin="round" stroke-miterlimit="10" stroke-width="1"/><path d="M38.394,61.57A19.9,19.9,0,1,0,76.33,49.526" transform="translate(-35.392 -48.573)" fill="none" stroke="#0d2330" stroke-linejoin="round" stroke-miterlimit="10" stroke-width="1"/><path d="M78.075,62.685c-.2,0-15.877-5.4-15.877-5.4" transform="translate(-37.353 -49.211)" fill="none" stroke="#0d2330" stroke-miterlimit="10" stroke-width="1"/><line x1="9.655" y1="13.662" transform="translate(23.448 9.73)" fill="none" stroke="#0d2330" stroke-miterlimit="10" stroke-width="1"/><line y1="16.88" x2="0.328" transform="translate(21.281 9.993)" fill="none" stroke="#0d2330" stroke-miterlimit="10" stroke-width="1"/><line y1="13.333" x2="10.115" transform="translate(9.787 9.402)" fill="none" stroke="#0d2330" stroke-miterlimit="10" stroke-width="1"/></g><path d="M30.874,38.791c.395,0,.948-1.489,13.077,0,0,0,4.663,1.182,7.224-1.281a14.769,14.769,0,0,0-4.828,9.458" transform="translate(-18.15 -34.08)" fill="none" stroke="#0d2330" stroke-linecap="round" stroke-linejoin="round" stroke-miterlimit="10" stroke-width="1"/><path d="M24.281,44.189A19.245,19.245,0,0,0,45.56,75.9" transform="translate(-17.67 -34.63)" fill="none" stroke="#0d2330" stroke-linejoin="round" stroke-miterlimit="10" stroke-width="1"/><path d="M58.084,54.726a19.272,19.272,0,0,0-12.773-14.6" transform="translate(-19.947 -34.296)" fill="none" stroke="#0d2330" stroke-miterlimit="10" stroke-width="1"/></g><circle cx="0.5" cy="0.5" r="0.5" transform="translate(3.901 35.109)" fill="#0d2330"/><circle cx="0.5" cy="0.5" r="0.5" transform="translate(4.687 37.109)" fill="#0d2330"/><circle cx="0.5" cy="0.5" r="0.5" transform="translate(32.687 26.109)" fill="#0d2330"/><circle cx="0.5" cy="0.5" r="0.5" transform="translate(33.687 28.109)" fill="#0d2330"/><circle cx="0.5" cy="0.5" r="0.5" transform="translate(31.687 28.109)" fill="#0d2330"/><circle cx="0.5" cy="0.5" r="0.5" transform="translate(3.401 39.109)" fill="#0d2330"/><circle cx="0.5" cy="0.5" r="0.5" transform="translate(2.901 37.109)" fill="#0d2330"/></g></svg>