<svg xmlns="http://www.w3.org/2000/svg" width="55.577" height="42.231" viewBox="0 0 55.577 42.231"><g transform="translate(-1074.395 -2470.158)"><g transform="translate(1070.428 2461.217)"><path d="M19.011,58.451,22.95,72.428a3.718,3.718,0,0,0,3.585,2.733H42.024a3.718,3.718,0,0,0,3.622-2.877l3.135-13.507" transform="translate(-1.692 -24.549)" fill="none" stroke="#11232f" stroke-linecap="round" stroke-linejoin="round" stroke-width="1"/><line x2="3.036" y2="19.076" transform="translate(24.17 31.523)" fill="none" stroke="#11232f" stroke-linecap="round" stroke-linejoin="round" stroke-width="1"/><line x1="3.077" y2="19.199" transform="translate(37.994 31.4)" fill="none" stroke="#11232f" stroke-linecap="round" stroke-linejoin="round" stroke-width="1"/><line y2="12.225" transform="translate(32.791 31.031)" fill="none" stroke="#11232f" stroke-linecap="round" stroke-linejoin="round" stroke-width="1"/><circle cx="0.807" cy="0.807" r="0.807" transform="translate(31.984 45.907)" fill="none" stroke="#11232f" stroke-linecap="round" stroke-linejoin="round" stroke-width="1"/><circle cx="3.52" cy="3.52" r="3.52" transform="translate(28.998 9.441)" fill="none" stroke="#11232f" stroke-miterlimit="10" stroke-width="1"/><path d="M17.646,44.48a3.732,3.732,0,0,0-2.009,3.549,4.282,4.282,0,0,0,8.557,0" transform="translate(0 -17.551)" fill="none" stroke="#11232f" stroke-linecap="round" stroke-linejoin="round" stroke-width="1"/><path d="M41.112,42.659" transform="translate(-12.762 -16.639)" fill="none" stroke="#11232f" stroke-linecap="round" stroke-linejoin="round" stroke-width="1"/><path d="M32.9,51.229a4.282,4.282,0,1,0,8.557-.36" transform="translate(-8.65 -20.751)" fill="none" stroke="#11232f" stroke-linecap="round" stroke-linejoin="round" stroke-width="1"/><path d="M58.044,42.659" transform="translate(-21.243 -16.639)" fill="none" stroke="#11232f" stroke-linecap="round" stroke-linejoin="round" stroke-width="1"/><path d="M50,50.931a4.3,4.3,0,0,0,4.125,4.342A4.148,4.148,0,0,0,58.3,51.143" transform="translate(-17.217 -20.782)" fill="none" stroke="#11232f" stroke-linecap="round" stroke-linejoin="round" stroke-width="1"/><path d="M66.6,47.6a4.282,4.282,0,1,0,6.255-3.979" transform="translate(-25.529 -17.119)" fill="none" stroke="#11232f" stroke-linecap="round" stroke-linejoin="round" stroke-width="1"/><path d="M31.224,19.815a14.58,14.58,0,0,0-11.56,12.321" transform="translate(-2.019 -5.196)" fill="none" stroke="#11232f" stroke-linecap="round" stroke-linejoin="round" stroke-width="1"/><path d="M67.63,31.656a14.324,14.324,0,0,0-11.451-11.9" transform="translate(-20.309 -5.165)" fill="none" stroke="#11232f" stroke-linecap="round" stroke-linejoin="round" stroke-width="1"/></g><ellipse cx="0.506" cy="0.509" rx="0.506" ry="0.509" transform="translate(1109.059 2479.662)" fill="#0d2330"/><ellipse cx="0.506" cy="0.509" rx="0.506" ry="0.509" transform="translate(1109.855 2481.699)" fill="#0d2330"/><ellipse cx="0.506" cy="0.509" rx="0.506" ry="0.509" transform="translate(1108.047 2481.699)" fill="#0d2330"/><path d="M0,32.391,52.845,1.82" transform="translate(1075.762 2475.398)" fill="none" stroke="#0d2330" stroke-linecap="round" stroke-width="2"/></g></svg>