<svg xmlns="http://www.w3.org/2000/svg" width="51.6" height="42.992" viewBox="0 0 51.6 42.992"><g transform="translate(1.376 0.5)"><g transform="translate(5.929)"><path d="M48.566,65.875H14.787A3.229,3.229,0,0,1,11.7,61.688L19.5,36.6a3.229,3.229,0,0,1,3.084-2.272H40.808A3.229,3.229,0,0,1,43.893,36.6l7.758,25.091A3.229,3.229,0,0,1,48.566,65.875Z" transform="translate(-11.555 -24.759)" fill="none" stroke="#0d2330" stroke-miterlimit="10" stroke-width="1"/><path d="M46.85,26.108a5.04,5.04,0,1,0-4.432,0" transform="translate(-24.513 -16.54)" fill="none" stroke="#0d2330" stroke-miterlimit="10" stroke-width="1"/><g transform="translate(11.828 20.553)" style="isolation:isolate"><g style="isolation:isolate"><path d="M36.293,66.373V57.052h1.971v4.11h.123l3.354-4.11H44.1l-3.459,4.173,3.5,5.148H41.787l-2.553-3.832-.969,1.184v2.648Z" transform="translate(-36.293 -56.924)" fill="#0d2330"/><path d="M56.184,59.981a2.069,2.069,0,0,0-.269-.59,1.709,1.709,0,0,0-.421-.437,1.875,1.875,0,0,0-.564-.276,2.406,2.406,0,0,0-.7-.1,2.227,2.227,0,0,0-1.254.355,2.328,2.328,0,0,0-.84,1.031,4.052,4.052,0,0,0-.3,1.65,4.167,4.167,0,0,0,.3,1.657,2.308,2.308,0,0,0,.838,1.04,2.272,2.272,0,0,0,1.279.357,2.528,2.528,0,0,0,1.145-.239,1.7,1.7,0,0,0,.728-.676,2.035,2.035,0,0,0,.252-1.033l.4.059h-2.4V61.3h3.9v1.174a4.086,4.086,0,0,1-.519,2.11,3.518,3.518,0,0,1-1.429,1.356,4.834,4.834,0,0,1-4.388-.105,3.977,3.977,0,0,1-1.545-1.652,5.487,5.487,0,0,1-.553-2.547,5.79,5.79,0,0,1,.33-2.023,4.291,4.291,0,0,1,.926-1.509,4,4,0,0,1,1.388-.942A4.5,4.5,0,0,1,54.2,56.84a4.586,4.586,0,0,1,1.474.23,3.993,3.993,0,0,1,1.213.649,3.528,3.528,0,0,1,.867.994,3.4,3.4,0,0,1,.432,1.268Z" transform="translate(-41.687 -56.84)" fill="#0d2330"/></g></g></g><path d="M0,32,48.848,1.82" transform="translate(0 9.116)" fill="none" stroke="#0d2330" stroke-linecap="round" stroke-width="2"/></g></svg>