<svg xmlns="http://www.w3.org/2000/svg" width="72.107" height="59.842" viewBox="0 0 72.107 59.842"><g transform="translate(1.374 0.375)"><g transform="translate(38.974)"><path d="M96.213,86.881s1.876,2.954,1.876,3.939V98.7a3.6,3.6,0,0,1-3.163,3.938,3.24,3.24,0,0,1-.588,0H79.332a3.524,3.524,0,0,1-3.751-3.321,3.749,3.749,0,0,1,0-.617V90.82c0-.985,1.876-3.939,1.876-3.939M76.05,59.313c.938-4.135,3.376-8.172,7.034-9.846h7.5c3.657,1.674,6.1,5.711,7.034,9.846M77.457,71.128s-1.876-2.56-1.876-7.877a17.51,17.51,0,0,1,.469-3.938H97.62a17.511,17.511,0,0,1,.469,3.938c0,5.317-1.876,7.877-1.876,7.877" transform="translate(-75.568 -43.559)" fill="none" stroke="#0d2330" stroke-linecap="round" stroke-linejoin="round" stroke-width="0.75"/><path d="M91.481,41.172h-7.5V47.08h7.5Zm5.627,27.569H78.352V84.494H97.108Z" transform="translate(-76.463 -41.172)" fill="none" stroke="#0d2330" stroke-linecap="round" stroke-linejoin="round" stroke-width="0.75"/></g><g transform="translate(18.576 16.865)"><path d="M90.321,76.2a10.513,10.513,0,0,1,1.34,2.815v5.629A2.569,2.569,0,0,1,89.4,87.461a2.311,2.311,0,0,1-.42,0H78.258a2.518,2.518,0,0,1-2.68-2.373,2.68,2.68,0,0,1,0-.441V79.018A10.513,10.513,0,0,1,76.918,76.2M75.912,56.5c.67-2.955,2.413-5.84,5.026-7.036H86.3c2.614,1.2,4.356,4.081,5.026,7.036M76.918,64.946s-1.341-1.829-1.341-5.629a12.513,12.513,0,0,1,.335-2.814H91.327a12.514,12.514,0,0,1,.335,2.814c0,3.8-1.34,5.629-1.34,5.629" transform="translate(-75.568 -45.245)" fill="none" stroke="#0d2330" stroke-linecap="round" stroke-linejoin="round" stroke-width="0.75"/><path d="M87.734,41.172H82.373v4.222h5.361Zm4.021,19.7h-13.4V72.131h13.4Z" transform="translate(-77.002 -41.172)" fill="none" stroke="#0d2330" stroke-linecap="round" stroke-linejoin="round" stroke-width="0.75"/></g><g transform="translate(4.295 32.904)"><path d="M84.717,66.046a6.519,6.519,0,0,1,.831,1.745v3.49a1.593,1.593,0,0,1-1.4,1.745,1.432,1.432,0,0,1-.26,0h-6.65a1.561,1.561,0,0,1-1.662-1.472,1.658,1.658,0,0,1,0-.273v-3.49a6.519,6.519,0,0,1,.831-1.745M75.782,53.83A6.234,6.234,0,0,1,78.9,49.467h3.325A6.235,6.235,0,0,1,85.34,53.83m-8.935,5.235a6.219,6.219,0,0,1-.831-3.49,7.76,7.76,0,0,1,.208-1.745H85.34a7.758,7.758,0,0,1,.208,1.745,6.22,6.22,0,0,1-.831,3.49" transform="translate(-75.568 -46.849)" fill="none" stroke="#0d2330" stroke-linecap="round" stroke-linejoin="round" stroke-width="0.75"/><path d="M84.17,41.172H80.845V43.79H84.17Zm2.493,12.217H78.352v6.981h8.311Z" transform="translate(-77.515 -41.172)" fill="none" stroke="#0d2330" stroke-linecap="round" stroke-linejoin="round" stroke-width="0.75"/></g><path d="M0,44.024,69.359,1.82" transform="translate(0 9.982)" fill="none" stroke="#0d2330" stroke-linecap="round" stroke-width="2"/></g></svg>