<svg xmlns="http://www.w3.org/2000/svg" width="57.837" height="50.774" viewBox="0 0 57.837 50.774"><g transform="translate(1.363 0.3)"><g transform="translate(11.395)"><g transform="translate(1.397 3.642)"><path d="M35.659,47.04c-1.311-1.846-3.264-3.445-5.083-3.59l-2.943,1.378a6.313,6.313,0,0,0-.856,4.078m9.891-.109" transform="translate(-26.413 -40.682)" fill="none" stroke="#12232f" stroke-linecap="round" stroke-linejoin="round" stroke-width="0.6"/><path d="M27.65,44.968l-1.169-2.5a.384.384,0,0,1,.115-.522l2.354-1.1a.385.385,0,0,1,.475.247l1.168,2.5m-3.524.28,3-1.4" transform="translate(-26.43 -40.822)" fill="none" stroke="#12232f" stroke-linecap="round" stroke-linejoin="round" stroke-width="0.6"/></g><g transform="translate(10.564 0.262)"><path d="M45.415,46.688c-.376-2.4-1.449-4.754-3.123-5.762L38.81,40.84c-1.721.924-2.911,3.224-3.4,5.6m10.171,2.526a12.434,12.434,0,0,0-.161-2.277L35.406,46.44a12.438,12.438,0,0,0-.274,2.267" transform="translate(-35.132 -37.441)" fill="none" stroke="#12232f" stroke-linecap="round" stroke-linejoin="round" stroke-width="0.6"/><path d="M38.626,41.012l.074-2.954a.412.412,0,0,1,.359-.446l2.785.07a.411.411,0,0,1,.337.462L42.107,41.1m-3.513-1.416,3.55.088" transform="translate(-34.947 -37.613)" fill="none" stroke="#12232f" stroke-linecap="round" stroke-linejoin="round" stroke-width="0.6"/></g><g transform="translate(24.481 1.656)"><path d="M48.343,43.085m4.715,5.959s1.934-4.965,2-5.1c.279-.607-.146-1.289-.429-1.8l-2.138-1.311a3.233,3.233,0,0,0-.883.1,2.645,2.645,0,0,0-1.433.962m4.317,4.972" transform="translate(-48.343 -38.835)" fill="none" stroke="#12232f" stroke-linecap="round" stroke-linejoin="round" stroke-width="0.6"/><path d="M52.278,40.928l1.113-1.814a.3.3,0,0,1,.386-.149l1.71,1.05a.3.3,0,0,1,.043.41l-1.113,1.814m-1.677-2.152,2.179,1.338" transform="translate(-48.133 -38.936)" fill="none" stroke="#12232f" stroke-linecap="round" stroke-linejoin="round" stroke-width="0.6"/></g><path d="M47.844,41.2" transform="translate(-23.889 -37.16)" fill="none" stroke="#12232f" stroke-linecap="round" stroke-linejoin="round" stroke-width="0.6"/><path d="M44.163,44.058a3.449,3.449,0,0,1,.52-.915,3.4,3.4,0,0,1,1.655-1.167l.067-2.242a.377.377,0,0,1,.377-.377H49.8a.377.377,0,0,1,.377.377l-.022,2.242a3.36,3.36,0,0,1,1.527,1.013,3.736,3.736,0,0,1,.9,2.469v3.671" transform="translate(-24.086 -37.258)" fill="none" stroke="#12232f" stroke-linecap="round" stroke-linejoin="round" stroke-width="0.6"/><line x1="4.83" transform="translate(21.708 4.286)" fill="none" stroke="#12232f" stroke-linecap="round" stroke-linejoin="round" stroke-width="0.6"/><path d="M25.1,48.71H57.636" transform="translate(-25.103 -36.758)" fill="none" stroke="#12232f" stroke-linecap="round" stroke-linejoin="round" stroke-width="0.6"/><path d="M56.378,48.71,54.246,83.33a3.674,3.674,0,0,1-3.6,3.6H31.975a3.674,3.674,0,0,1-3.6-3.6L26.241,48.71" transform="translate(-25.043 -36.758)" fill="none" stroke="#12232f" stroke-linecap="round" stroke-linejoin="round" stroke-width="0.6"/><g transform="translate(5.59)"><path d="M37.571,42.185a5.169,5.169,0,0,0-2.08-2.058l-2.995.215a5.834,5.834,0,0,0-2.086,3.233M35.973,45l-2.506.065" transform="translate(-30.41 -37.217)" fill="none" stroke="#12232f" stroke-linecap="round" stroke-linejoin="round" stroke-width="0.6"/><path d="M32.4,40.489l-.182-2.541a.355.355,0,0,1,.272-.412l2.4-.172c.165-.013.312.153.328.369l.182,2.541m-3.133-.924,3.054-.219" transform="translate(-30.314 -37.364)" fill="none" stroke="#12232f" stroke-linecap="round" stroke-linejoin="round" stroke-width="0.6"/></g><line x2="29" transform="translate(1.703 13.801)" fill="none" stroke="#0d2330" stroke-linecap="square" stroke-width="1"/></g><path d="M0,33.079,55.111,1.82" transform="translate(0 12.566)" fill="none" stroke="#0d2330" stroke-linecap="round" stroke-width="2"/><line x2="25" transform="translate(15.098 46.66)" fill="none" stroke="#0d2330" stroke-linecap="square" stroke-width="1"/></g></svg>