<svg xmlns="http://www.w3.org/2000/svg" width="45.845" height="40.631" viewBox="0 0 45.845 40.631"><g transform="translate(1.367 0.3)"><g transform="translate(8.913)"><g transform="translate(1.114 2.906)"><path d="M33.857,46.314c-1.046-1.472-2.6-2.748-4.055-2.864l-2.348,1.1a5.036,5.036,0,0,0-.683,3.253m7.892-.087" transform="translate(-26.48 -41.241)" fill="none" stroke="#12232f" stroke-linecap="round" stroke-linejoin="round" stroke-width="0.6"/><path d="M27.4,44.13l-.933-1.993a.307.307,0,0,1,.092-.417l1.878-.879a.307.307,0,0,1,.379.2l.932,1.993m-2.811.224,2.394-1.12" transform="translate(-26.43 -40.822)" fill="none" stroke="#12232f" stroke-linecap="round" stroke-linejoin="round" stroke-width="0.6"/></g><g transform="translate(8.428 0.209)"><path d="M43.336,45.506c-.3-1.912-1.156-3.793-2.492-4.6l-2.778-.069c-1.373.737-2.322,2.573-2.716,4.468m8.115,2.015a9.921,9.921,0,0,0-.129-1.817l-7.986-.2a9.923,9.923,0,0,0-.219,1.809" transform="translate(-35.132 -38.128)" fill="none" stroke="#12232f" stroke-linecap="round" stroke-linejoin="round" stroke-width="0.6"/><path d="M38.619,40.325l.059-2.357a.329.329,0,0,1,.287-.356l2.222.055a.328.328,0,0,1,.269.369L41.4,40.394m-2.8-1.13,2.832.071" transform="translate(-35.684 -37.613)" fill="none" stroke="#12232f" stroke-linecap="round" stroke-linejoin="round" stroke-width="0.6"/></g><g transform="translate(19.532 1.321)"><path d="M48.343,42.628,52.1,47.382s1.543-3.961,1.593-4.071c.223-.484-.117-1.029-.342-1.438L51.65,40.827a2.579,2.579,0,0,0-.7.077,2.11,2.11,0,0,0-1.143.767m3.444,3.967" transform="translate(-48.343 -39.237)" fill="none" stroke="#12232f" stroke-linecap="round" stroke-linejoin="round" stroke-width="0.6"/><path d="M52.278,40.525l.888-1.447a.237.237,0,0,1,.308-.118l1.364.838a.235.235,0,0,1,.034.327l-.888,1.447m-1.338-1.717,1.739,1.067" transform="translate(-48.971 -38.936)" fill="none" stroke="#12232f" stroke-linecap="round" stroke-linejoin="round" stroke-width="0.6"/></g><path d="M47.844,41.2" transform="translate(-28.732 -37.976)" fill="none" stroke="#12232f" stroke-linecap="round" stroke-linejoin="round" stroke-width="0.6"/><path d="M44.163,43.108a2.752,2.752,0,0,1,.415-.73,2.714,2.714,0,0,1,1.32-.931l.054-1.788a.3.3,0,0,1,.3-.3H48.66a.3.3,0,0,1,.3.3l-.018,1.788a2.68,2.68,0,0,1,1.219.809,2.981,2.981,0,0,1,.719,1.97v2.929" transform="translate(-28.144 -37.682)" fill="none" stroke="#12232f" stroke-linecap="round" stroke-linejoin="round" stroke-width="0.6"/><line x1="3.854" transform="translate(17.319 3.42)" fill="none" stroke="#12232f" stroke-linecap="round" stroke-linejoin="round" stroke-width="0.6"/><path d="M25.1,48.71H51.06" transform="translate(-25.103 -39.175)" fill="none" stroke="#12232f" stroke-linecap="round" stroke-linejoin="round" stroke-width="0.6"/><path d="M50.285,48.71l-1.7,27.621A2.932,2.932,0,0,1,45.711,79.2h-14.9a2.932,2.932,0,0,1-2.873-2.873l-1.7-27.621" transform="translate(-25.285 -39.175)" fill="none" stroke="#12232f" stroke-linecap="round" stroke-linejoin="round" stroke-width="0.6"/><g transform="translate(4.46)"><path d="M36.123,41.769a4.124,4.124,0,0,0-1.66-1.642l-2.389.171a4.655,4.655,0,0,0-1.664,2.579m4.438,1.14-2,.052" transform="translate(-30.41 -37.805)" fill="none" stroke="#12232f" stroke-linecap="round" stroke-linejoin="round" stroke-width="0.6"/><path d="M32.362,39.858l-.145-2.027a.283.283,0,0,1,.217-.329l1.911-.137c.132-.01.249.122.261.294l.145,2.027m-2.5-.737,2.436-.175" transform="translate(-30.698 -37.364)" fill="none" stroke="#12232f" stroke-linecap="round" stroke-linejoin="round" stroke-width="0.6"/></g><line x2="22.438" transform="translate(1.063 11.011)" fill="none" stroke="#0d2330" stroke-width="1"/></g><path d="M0,26.849,43.111,1.82" transform="translate(0 9.698)" fill="none" stroke="#0d2330" stroke-linecap="round" stroke-width="2"/><line x2="18.445" transform="translate(11.555 37.36)" fill="none" stroke="#0d2330" stroke-linecap="square" stroke-width="1"/></g></svg>