<svg xmlns="http://www.w3.org/2000/svg" width="45.846" height="43.689" viewBox="0 0 45.846 43.689"><g transform="translate(-472.133 -652.766)"><g transform="translate(457.543 640.937)"><g transform="translate(20.457 39.878)"><path d="M25.349,65.349" transform="translate(-22.681 -64.096)" fill="none" stroke="#12232f" stroke-miterlimit="10" stroke-width="0.5"/><path d="M24.491,64.743a2.169,2.169,0,0,1,.987.655,2.409,2.409,0,0,1,.582,1.6v10.08a1.169,1.169,0,0,1-.366.821,1.9,1.9,0,0,1-1.495.54l-.163-.011a1.358,1.358,0,0,0-.749-.193h-.074a1.358,1.358,0,0,0-.732.193l-.163.011a1.9,1.9,0,0,1-1.495-.54,1.167,1.167,0,0,1-.366-.821V66.987a2.386,2.386,0,0,1,.5-1.49,2.2,2.2,0,0,1,1.069-.754l.044-1.448a.244.244,0,0,1,.244-.244h1.948a.244.244,0,0,1,.244.244Z" transform="translate(-20.457 -63.051)" fill="none" stroke="#12232f" stroke-miterlimit="10" stroke-width="0.5"/><line x2="2.483" transform="translate(1.533 1.09)" fill="none" stroke="#12232f" stroke-miterlimit="10" stroke-width="0.5"/><line x1="3.121" transform="translate(1.216 1.413)" fill="none" stroke="#12232f" stroke-miterlimit="10" stroke-width="0.5"/></g><g transform="translate(23.477 26.014)"><g transform="translate(0)"><path d="M26.459,48.951a3.387,3.387,0,0,0-.462.924v1.848a.855.855,0,0,0,.779.924.8.8,0,0,0,.145,0h3.7a.855.855,0,0,0,.924-.779.913.913,0,0,0,0-.145V49.875a3.387,3.387,0,0,0-.462-.924m.346-6.469a3.315,3.315,0,0,0-1.733-2.31H27.846a3.314,3.314,0,0,0-1.733,2.31m4.967,2.772a3.18,3.18,0,0,0,.462-1.848,3.908,3.908,0,0,0-.116-.924H26.113a3.908,3.908,0,0,0-.116.924,3.18,3.18,0,0,0,.462,1.848" transform="translate(-25.994 -38.786)" fill="none" stroke="#12232f" stroke-miterlimit="10" stroke-width="0.5"/><path d="M28.233,39.016v-1.2a.185.185,0,0,1,.185-.185H29.9a.185.185,0,0,1,.185.185v1.2M26.847,44.1h4.621v3.7H26.847ZM28.2,38.476h1.884m.243.3H27.958" transform="translate(-26.382 -37.63)" fill="none" stroke="#12232f" stroke-miterlimit="10" stroke-width="0.5"/></g><line x2="3.317" transform="translate(1.13 9.082)" fill="none" stroke="#12232f" stroke-miterlimit="10" stroke-width="0.5"/><line x2="3.317" transform="translate(1.13 8.374)" fill="none" stroke="#12232f" stroke-miterlimit="10" stroke-width="0.5"/><line x2="3.317" transform="translate(1.13 7.666)" fill="none" stroke="#12232f" stroke-miterlimit="10" stroke-width="0.5"/></g><g transform="translate(29.064 26.014)"><path d="M36.7,48.951a3.387,3.387,0,0,0-.462.924v1.848a.855.855,0,0,0,.779.924.805.805,0,0,0,.145,0h3.7a.855.855,0,0,0,.924-.779.8.8,0,0,0,0-.145V49.875a3.387,3.387,0,0,0-.462-.924m.346-6.469a3.314,3.314,0,0,0-1.733-2.31H38.09a3.315,3.315,0,0,0-1.733,2.31m4.967,2.772a3.18,3.18,0,0,0,.462-1.848,3.908,3.908,0,0,0-.116-.924H36.357a3.908,3.908,0,0,0-.116.924,3.18,3.18,0,0,0,.462,1.848" transform="translate(-36.238 -38.786)" fill="none" stroke="#12232f" stroke-miterlimit="10" stroke-width="0.5"/><path d="M38.477,39.016v-1.2a.185.185,0,0,1,.185-.185h1.479a.185.185,0,0,1,.185.185v1.2M41.712,47.8H37.091V44.1h4.621m-.059,3.7V44.1m-3.21-5.623h1.884m.243.3H38.2" transform="translate(-36.626 -37.63)" fill="none" stroke="#12232f" stroke-miterlimit="10" stroke-width="0.5"/><line x2="3.317" transform="translate(1.163 9.082)" fill="none" stroke="#12232f" stroke-miterlimit="10" stroke-width="0.5"/><line x2="3.317" transform="translate(1.163 8.374)" fill="none" stroke="#12232f" stroke-miterlimit="10" stroke-width="0.5"/><line x2="3.317" transform="translate(1.163 7.666)" fill="none" stroke="#12232f" stroke-miterlimit="10" stroke-width="0.5"/></g><g transform="translate(34.651 26.014)"><path d="M46.948,48.951a3.385,3.385,0,0,0-.462.924v1.848a.855.855,0,0,0,.78.924.8.8,0,0,0,.145,0h3.7a.855.855,0,0,0,.924-.779.8.8,0,0,0,0-.145V49.875a3.387,3.387,0,0,0-.462-.924m.347-6.469a3.315,3.315,0,0,0-1.733-2.31H48.334a3.315,3.315,0,0,0-1.733,2.31m4.967,2.772a3.18,3.18,0,0,0,.462-1.848,3.936,3.936,0,0,0-.115-.924H46.6a3.965,3.965,0,0,0-.116.924,3.177,3.177,0,0,0,.462,1.848" transform="translate(-46.482 -38.786)" fill="none" stroke="#12232f" stroke-miterlimit="10" stroke-width="0.5"/><path d="M48.722,39.016v-1.2a.185.185,0,0,1,.185-.185h1.479a.185.185,0,0,1,.185.185v1.2M47.336,44.1h4.62v3.7h-4.62Zm1.351-5.623h1.885m.243.3H48.447" transform="translate(-46.87 -37.63)" fill="none" stroke="#12232f" stroke-miterlimit="10" stroke-width="0.5"/><line x2="3.317" transform="translate(1.13 9.082)" fill="none" stroke="#12232f" stroke-miterlimit="10" stroke-width="0.5"/><line x2="3.317" transform="translate(1.13 8.374)" fill="none" stroke="#12232f" stroke-miterlimit="10" stroke-width="0.5"/><line x2="3.317" transform="translate(1.13 7.666)" fill="none" stroke="#12232f" stroke-miterlimit="10" stroke-width="0.5"/></g><g transform="translate(40.238 26.014)"><path d="M57.192,48.951a3.387,3.387,0,0,0-.462.924v1.848a.854.854,0,0,0,.779.924.8.8,0,0,0,.145,0h3.7a.855.855,0,0,0,.924-.779.913.913,0,0,0,0-.145V49.875a3.385,3.385,0,0,0-.462-.924m.347-6.469a3.315,3.315,0,0,0-1.733-2.31H58.579a3.314,3.314,0,0,0-1.733,2.31m4.967,2.772a3.177,3.177,0,0,0,.462-1.848,3.965,3.965,0,0,0-.116-.924H56.846a3.908,3.908,0,0,0-.116.924,3.18,3.18,0,0,0,.462,1.848" transform="translate(-56.727 -38.786)" fill="none" stroke="#12232f" stroke-miterlimit="10" stroke-width="0.5"/><path d="M58.966,39.016v-1.2a.185.185,0,0,1,.185-.185H60.63a.185.185,0,0,1,.185.185v1.2M62.2,47.8H57.58V44.1H62.2m-.059,3.7V44.1m-3.209-5.623h1.884m.243.3H58.691" transform="translate(-57.115 -37.63)" fill="none" stroke="#12232f" stroke-miterlimit="10" stroke-width="0.5"/><line x2="3.317" transform="translate(1.163 9.082)" fill="none" stroke="#12232f" stroke-miterlimit="10" stroke-width="0.5"/><line x2="3.317" transform="translate(1.163 8.374)" fill="none" stroke="#12232f" stroke-miterlimit="10" stroke-width="0.5"/><line x2="3.317" transform="translate(1.163 7.666)" fill="none" stroke="#12232f" stroke-miterlimit="10" stroke-width="0.5"/></g><g transform="translate(45.825 26.014)"><path d="M67.436,48.951a3.387,3.387,0,0,0-.462.924v1.848a.855.855,0,0,0,.779.924.8.8,0,0,0,.145,0h3.7a.855.855,0,0,0,.924-.779.914.914,0,0,0,0-.145V49.875a3.387,3.387,0,0,0-.462-.924m.346-6.469a3.315,3.315,0,0,0-1.733-2.31H68.823a3.314,3.314,0,0,0-1.733,2.31m4.967,2.772a3.18,3.18,0,0,0,.462-1.848,3.908,3.908,0,0,0-.116-.924H67.09a3.908,3.908,0,0,0-.116.924,3.18,3.18,0,0,0,.462,1.848" transform="translate(-66.971 -38.786)" fill="none" stroke="#12232f" stroke-miterlimit="10" stroke-width="0.5"/><path d="M69.21,39.016v-1.2a.185.185,0,0,1,.185-.185h1.479a.185.185,0,0,1,.185.185v1.2M72.445,47.8H67.824V44.1h4.621m-.059,3.7V44.1m-3.21-5.623H71.06m.243.3H68.935" transform="translate(-67.359 -37.63)" fill="none" stroke="#12232f" stroke-miterlimit="10" stroke-width="0.5"/><line x2="3.317" transform="translate(1.163 9.082)" fill="none" stroke="#12232f" stroke-miterlimit="10" stroke-width="0.5"/><line x2="3.317" transform="translate(1.163 8.374)" fill="none" stroke="#12232f" stroke-miterlimit="10" stroke-width="0.5"/><line x2="3.317" transform="translate(1.163 7.666)" fill="none" stroke="#12232f" stroke-miterlimit="10" stroke-width="0.5"/></g><g transform="translate(26.606 12.079)"><path d="M32.2,23.4a3.385,3.385,0,0,0-.462.924v1.848a.855.855,0,0,0,.779.924.8.8,0,0,0,.145,0h3.7a.855.855,0,0,0,.924-.779.8.8,0,0,0,0-.145V24.324a3.387,3.387,0,0,0-.462-.924m.346-6.469a3.314,3.314,0,0,0-1.733-2.31H33.583a3.315,3.315,0,0,0-1.733,2.31M36.817,19.7a3.18,3.18,0,0,0,.462-1.848,3.908,3.908,0,0,0-.116-.924H31.85a3.966,3.966,0,0,0-.116.924A3.177,3.177,0,0,0,32.2,19.7" transform="translate(-31.731 -13.235)" fill="none" stroke="#12232f" stroke-miterlimit="10" stroke-width="0.5"/><path d="M33.971,13.465v-1.2a.185.185,0,0,1,.185-.185h1.479a.185.185,0,0,1,.185.185v1.2m-3.234,5.082h4.62v3.7h-4.62Zm1.351-5.623h1.884m.243.3H33.7" transform="translate(-32.119 -12.079)" fill="none" stroke="#12232f" stroke-miterlimit="10" stroke-width="0.5"/><line x2="3.317" transform="translate(1.13 9.082)" fill="none" stroke="#12232f" stroke-miterlimit="10" stroke-width="0.5"/><line x2="3.317" transform="translate(1.13 8.374)" fill="none" stroke="#12232f" stroke-miterlimit="10" stroke-width="0.5"/><line x2="3.317" transform="translate(1.13 7.667)" fill="none" stroke="#12232f" stroke-miterlimit="10" stroke-width="0.5"/></g><g transform="translate(32.193 12.079)"><g transform="translate(0)"><path d="M42.441,23.4a3.387,3.387,0,0,0-.462.924v1.848a.854.854,0,0,0,.779.924.8.8,0,0,0,.145,0h3.7a.855.855,0,0,0,.924-.779.914.914,0,0,0,0-.145V24.324a3.385,3.385,0,0,0-.462-.924m.347-6.469a3.315,3.315,0,0,0-1.733-2.31H43.828a3.315,3.315,0,0,0-1.733,2.31M47.062,19.7a3.177,3.177,0,0,0,.462-1.848,3.965,3.965,0,0,0-.116-.924H42.094a3.936,3.936,0,0,0-.115.924,3.18,3.18,0,0,0,.462,1.848" transform="translate(-41.976 -13.235)" fill="none" stroke="#12232f" stroke-miterlimit="10" stroke-width="0.5"/><path d="M44.215,13.465v-1.2a.185.185,0,0,1,.185-.185h1.479a.185.185,0,0,1,.185.185v1.2m1.386,8.779h-4.62v-3.7h4.62m-.059,3.7v-3.7m-3.209-5.623h1.884m.243.3H43.94" transform="translate(-42.364 -12.079)" fill="none" stroke="#12232f" stroke-miterlimit="10" stroke-width="0.5"/></g><line x2="3.317" transform="translate(1.163 9.082)" fill="none" stroke="#12232f" stroke-miterlimit="10" stroke-width="0.5"/><line x2="3.317" transform="translate(1.163 8.374)" fill="none" stroke="#12232f" stroke-miterlimit="10" stroke-width="0.5"/><line x2="3.317" transform="translate(1.163 7.667)" fill="none" stroke="#12232f" stroke-miterlimit="10" stroke-width="0.5"/></g><g transform="translate(37.78 12.079)"><g transform="translate(0)"><path d="M52.685,23.4a3.387,3.387,0,0,0-.462.924v1.848A.855.855,0,0,0,53,27.1a.8.8,0,0,0,.145,0h3.7a.855.855,0,0,0,.924-.779.912.912,0,0,0,0-.145V24.324a3.387,3.387,0,0,0-.462-.924m.346-6.469a3.315,3.315,0,0,0-1.733-2.31H54.072a3.314,3.314,0,0,0-1.733,2.31M57.306,19.7a3.18,3.18,0,0,0,.462-1.848,3.908,3.908,0,0,0-.116-.924H52.339a3.908,3.908,0,0,0-.116.924,3.18,3.18,0,0,0,.462,1.848" transform="translate(-52.22 -13.235)" fill="none" stroke="#12232f" stroke-miterlimit="10" stroke-width="0.5"/><path d="M54.459,13.465v-1.2a.185.185,0,0,1,.185-.185h1.479a.185.185,0,0,1,.185.185v1.2m-3.235,5.082h4.621v3.7H53.073Zm1.352-5.623h1.884m.243.3H54.184" transform="translate(-52.608 -12.079)" fill="none" stroke="#12232f" stroke-miterlimit="10" stroke-width="0.5"/></g><line x2="3.317" transform="translate(1.13 9.082)" fill="none" stroke="#12232f" stroke-miterlimit="10" stroke-width="0.5"/><line x2="3.317" transform="translate(1.13 8.374)" fill="none" stroke="#12232f" stroke-miterlimit="10" stroke-width="0.5"/><line x2="3.317" transform="translate(1.13 7.667)" fill="none" stroke="#12232f" stroke-miterlimit="10" stroke-width="0.5"/></g><g transform="translate(43.367 12.079)"><path d="M62.929,23.4a3.387,3.387,0,0,0-.462.924v1.848a.855.855,0,0,0,.779.924.8.8,0,0,0,.145,0h3.7a.855.855,0,0,0,.924-.779.8.8,0,0,0,0-.145V24.324a3.387,3.387,0,0,0-.462-.924m.346-6.469a3.314,3.314,0,0,0-1.733-2.31H64.316a3.315,3.315,0,0,0-1.733,2.31M67.55,19.7a3.18,3.18,0,0,0,.462-1.848,3.908,3.908,0,0,0-.116-.924H62.583a3.908,3.908,0,0,0-.116.924,3.18,3.18,0,0,0,.462,1.848" transform="translate(-62.464 -13.235)" fill="none" stroke="#12232f" stroke-miterlimit="10" stroke-width="0.5"/><path d="M64.7,13.465v-1.2a.185.185,0,0,1,.185-.185h1.479a.185.185,0,0,1,.185.185v1.2m1.386,8.779H63.317v-3.7h4.621m-.059,3.7v-3.7m-3.21-5.623h1.884m.243.3H64.429" transform="translate(-62.852 -12.079)" fill="none" stroke="#12232f" stroke-miterlimit="10" stroke-width="0.5"/><line x2="3.317" transform="translate(1.163 9.082)" fill="none" stroke="#12232f" stroke-miterlimit="10" stroke-width="0.5"/><line x2="3.317" transform="translate(1.163 8.374)" fill="none" stroke="#12232f" stroke-miterlimit="10" stroke-width="0.5"/><line x2="3.317" transform="translate(1.163 7.667)" fill="none" stroke="#12232f" stroke-miterlimit="10" stroke-width="0.5"/></g><line x2="3.681" transform="translate(21.622 46.314)" fill="none" stroke="#12232f" stroke-miterlimit="10" stroke-width="0.5"/><line x2="3.681" transform="translate(21.622 45.529)" fill="none" stroke="#12232f" stroke-miterlimit="10" stroke-width="0.5"/><line x2="3.681" transform="translate(21.622 44.744)" fill="none" stroke="#12232f" stroke-miterlimit="10" stroke-width="0.5"/><g transform="translate(26.151 39.878)"><path d="M35.79,65.349" transform="translate(-33.122 -64.096)" fill="none" stroke="#12232f" stroke-miterlimit="10" stroke-width="0.5"/><path d="M34.932,64.743a2.166,2.166,0,0,1,.987.655,2.41,2.41,0,0,1,.582,1.6v10.08a1.169,1.169,0,0,1-.366.821,1.9,1.9,0,0,1-1.5.54l-.163-.011a1.356,1.356,0,0,0-.749-.193h-.074a1.356,1.356,0,0,0-.732.193l-.163.011a1.9,1.9,0,0,1-1.5-.54,1.169,1.169,0,0,1-.366-.821V66.987a2.386,2.386,0,0,1,.5-1.49,2.2,2.2,0,0,1,1.069-.754l.044-1.448a.244.244,0,0,1,.244-.244H34.7a.244.244,0,0,1,.244.244Z" transform="translate(-30.898 -63.051)" fill="none" stroke="#12232f" stroke-miterlimit="10" stroke-width="0.5"/><line x2="2.483" transform="translate(1.533 1.09)" fill="none" stroke="#12232f" stroke-miterlimit="10" stroke-width="0.5"/><line x1="3.121" transform="translate(1.217 1.413)" fill="none" stroke="#12232f" stroke-miterlimit="10" stroke-width="0.5"/></g><line x2="3.681" transform="translate(27.377 46.314)" fill="none" stroke="#12232f" stroke-miterlimit="10" stroke-width="0.5"/><line x2="3.681" transform="translate(27.377 45.529)" fill="none" stroke="#12232f" stroke-miterlimit="10" stroke-width="0.5"/><line x2="3.681" transform="translate(27.377 44.744)" fill="none" stroke="#12232f" stroke-miterlimit="10" stroke-width="0.5"/><g transform="translate(31.846 39.878)"><path d="M46.232,65.349" transform="translate(-43.564 -64.096)" fill="none" stroke="#12232f" stroke-miterlimit="10" stroke-width="0.5"/><path d="M45.374,64.743a2.169,2.169,0,0,1,.987.655,2.409,2.409,0,0,1,.582,1.6v10.08a1.169,1.169,0,0,1-.366.821,1.9,1.9,0,0,1-1.495.54l-.163-.011a1.358,1.358,0,0,0-.749-.193H44.1a1.358,1.358,0,0,0-.732.193l-.163.011a1.9,1.9,0,0,1-1.495-.54,1.167,1.167,0,0,1-.366-.821V66.987a2.386,2.386,0,0,1,.5-1.49,2.2,2.2,0,0,1,1.069-.754l.044-1.448a.244.244,0,0,1,.244-.244h1.948a.244.244,0,0,1,.244.244Z" transform="translate(-41.34 -63.051)" fill="none" stroke="#12232f" stroke-miterlimit="10" stroke-width="0.5"/><line x2="2.483" transform="translate(1.533 1.09)" fill="none" stroke="#12232f" stroke-miterlimit="10" stroke-width="0.5"/><line x1="3.121" transform="translate(1.216 1.413)" fill="none" stroke="#12232f" stroke-miterlimit="10" stroke-width="0.5"/></g><line x2="3.681" transform="translate(32.981 46.314)" fill="none" stroke="#12232f" stroke-miterlimit="10" stroke-width="0.5"/><line x2="3.681" transform="translate(32.981 45.529)" fill="none" stroke="#12232f" stroke-miterlimit="10" stroke-width="0.5"/><line x2="3.681" transform="translate(32.981 44.744)" fill="none" stroke="#12232f" stroke-miterlimit="10" stroke-width="0.5"/><g transform="translate(37.541 39.878)"><path d="M56.673,65.349" transform="translate(-54.005 -64.096)" fill="none" stroke="#12232f" stroke-miterlimit="10" stroke-width="0.5"/><path d="M55.815,64.743a2.166,2.166,0,0,1,.987.655,2.41,2.41,0,0,1,.582,1.6v10.08a1.169,1.169,0,0,1-.366.821,1.9,1.9,0,0,1-1.5.54l-.163-.011a1.356,1.356,0,0,0-.749-.193h-.074a1.356,1.356,0,0,0-.732.193l-.163.011a1.9,1.9,0,0,1-1.5-.54,1.169,1.169,0,0,1-.366-.821V66.987a2.386,2.386,0,0,1,.5-1.49,2.2,2.2,0,0,1,1.07-.754l.044-1.448a.244.244,0,0,1,.244-.244h1.949a.244.244,0,0,1,.244.244Z" transform="translate(-51.781 -63.051)" fill="none" stroke="#12232f" stroke-miterlimit="10" stroke-width="0.5"/><line x2="2.483" transform="translate(1.533 1.09)" fill="none" stroke="#12232f" stroke-miterlimit="10" stroke-width="0.5"/><line x1="3.121" transform="translate(1.217 1.413)" fill="none" stroke="#12232f" stroke-miterlimit="10" stroke-width="0.5"/></g><line x2="3.681" transform="translate(38.736 46.314)" fill="none" stroke="#12232f" stroke-miterlimit="10" stroke-width="0.5"/><line x2="3.681" transform="translate(38.736 45.529)" fill="none" stroke="#12232f" stroke-miterlimit="10" stroke-width="0.5"/><line x2="3.681" transform="translate(38.736 44.744)" fill="none" stroke="#12232f" stroke-miterlimit="10" stroke-width="0.5"/><g transform="translate(43.235 39.878)"><path d="M67.115,65.349" transform="translate(-64.447 -64.096)" fill="none" stroke="#12232f" stroke-miterlimit="10" stroke-width="0.5"/><path d="M66.257,64.743a2.169,2.169,0,0,1,.987.655,2.409,2.409,0,0,1,.582,1.6v10.08a1.169,1.169,0,0,1-.366.821,1.9,1.9,0,0,1-1.495.54l-.163-.011a1.358,1.358,0,0,0-.749-.193h-.074a1.358,1.358,0,0,0-.732.193l-.163.011a1.9,1.9,0,0,1-1.495-.54,1.167,1.167,0,0,1-.366-.821V66.987a2.386,2.386,0,0,1,.5-1.49,2.2,2.2,0,0,1,1.069-.754l.044-1.448a.244.244,0,0,1,.244-.244h1.948a.244.244,0,0,1,.244.244Z" transform="translate(-62.223 -63.051)" fill="none" stroke="#12232f" stroke-miterlimit="10" stroke-width="0.5"/><line x2="2.483" transform="translate(1.533 1.09)" fill="none" stroke="#12232f" stroke-miterlimit="10" stroke-width="0.5"/><line x1="3.121" transform="translate(1.216 1.413)" fill="none" stroke="#12232f" stroke-miterlimit="10" stroke-width="0.5"/></g><line x2="3.681" transform="translate(44.34 46.314)" fill="none" stroke="#12232f" stroke-miterlimit="10" stroke-width="0.5"/><line x2="3.681" transform="translate(44.34 45.529)" fill="none" stroke="#12232f" stroke-miterlimit="10" stroke-width="0.5"/><line x2="3.681" transform="translate(44.34 44.744)" fill="none" stroke="#12232f" stroke-miterlimit="10" stroke-width="0.5"/><g transform="translate(48.93 39.878)"><path d="M77.556,65.349" transform="translate(-74.888 -64.096)" fill="none" stroke="#12232f" stroke-miterlimit="10" stroke-width="0.5"/><path d="M76.7,64.743a2.166,2.166,0,0,1,.987.655,2.41,2.41,0,0,1,.582,1.6v10.08a1.169,1.169,0,0,1-.366.821,1.9,1.9,0,0,1-1.5.54l-.163-.011a1.356,1.356,0,0,0-.749-.193H75.42a1.356,1.356,0,0,0-.732.193l-.163.011a1.9,1.9,0,0,1-1.5-.54,1.169,1.169,0,0,1-.366-.821V66.987a2.386,2.386,0,0,1,.5-1.49,2.2,2.2,0,0,1,1.07-.754l.044-1.448a.244.244,0,0,1,.244-.244h1.949a.244.244,0,0,1,.244.244Z" transform="translate(-72.664 -63.051)" fill="none" stroke="#12232f" stroke-miterlimit="10" stroke-width="0.5"/><line x2="2.483" transform="translate(1.533 1.09)" fill="none" stroke="#12232f" stroke-miterlimit="10" stroke-width="0.5"/><line x1="3.121" transform="translate(1.217 1.413)" fill="none" stroke="#12232f" stroke-miterlimit="10" stroke-width="0.5"/></g><line x2="3.681" transform="translate(50.095 46.314)" fill="none" stroke="#12232f" stroke-miterlimit="10" stroke-width="0.5"/><line x2="3.681" transform="translate(50.095 45.529)" fill="none" stroke="#12232f" stroke-miterlimit="10" stroke-width="0.5"/><line x2="3.681" transform="translate(50.095 44.744)" fill="none" stroke="#12232f" stroke-miterlimit="10" stroke-width="0.5"/></g><path d="M0,26.945,43.111,1.82" transform="translate(473.5 661.563)" fill="none" stroke="#0d2330" stroke-linecap="round" stroke-width="2"/></g></svg>