<svg xmlns="http://www.w3.org/2000/svg" width="27.09" height="38.616" viewBox="0 0 27.09 38.616"><g transform="translate(0.375 0.375)"><rect width="5.375" height="12.456" transform="translate(0 25.411)" fill="none" stroke="#0d2330" stroke-linecap="round" stroke-linejoin="round" stroke-width="0.75"/><rect width="1.393" height="5.107" transform="translate(8.804 28.948)" fill="none" stroke="#0d2330" stroke-linecap="round" stroke-linejoin="round" stroke-width="0.75"/><rect width="2.073" height="4.333" transform="translate(26.34 15.052) rotate(90)" fill="none" stroke="#0d2330" stroke-linecap="round" stroke-linejoin="round" stroke-width="0.75"/><rect width="3.419" height="1.062" transform="translate(5.383 30.96)" fill="none" stroke="#0d2330" stroke-linecap="round" stroke-linejoin="round" stroke-width="0.75"/><path d="M273.434,54.819" transform="translate(-259.945 -32.132)" fill="none" stroke="#0d2330" stroke-linecap="round" stroke-linejoin="round" stroke-width="0.75"/><g transform="translate(1.375)"><path d="M250.563,31.839h-2.814V18.462a12.046,12.046,0,0,1,24.092,0v3h-2.814v-3a9.232,9.232,0,0,0-18.464,0Z" transform="translate(-247.749 -6.449)" fill="none" stroke="#0d2330" stroke-linecap="round" stroke-linejoin="round" stroke-width="0.75"/></g><line y2="8.172" transform="translate(22.688 27.26)" fill="none" stroke="#0d2330" stroke-linecap="round" stroke-linejoin="round" stroke-width="0.75"/><line y2="8.172" transform="translate(22.688 17.289)" fill="none" stroke="#0d2330" stroke-linecap="round" stroke-linejoin="round" stroke-width="0.75"/><line y2="4.677" transform="translate(25.531 23.405)" fill="none" stroke="#0d2330" stroke-linecap="round" stroke-linejoin="round" stroke-width="0.75"/><line y2="4.677" transform="translate(25.531 30.139)" fill="none" stroke="#0d2330" stroke-linecap="round" stroke-linejoin="round" stroke-width="0.75"/><line y2="4.905" transform="translate(25.531 17.318)" fill="none" stroke="#0d2330" stroke-linecap="round" stroke-linejoin="round" stroke-width="0.75"/><line y2="3.341" transform="translate(24.084 17.751)" fill="none" stroke="#0d2330" stroke-linecap="round" stroke-linejoin="round" stroke-width="0.75"/><line y2="1.439" transform="translate(24.084 22.275)" fill="none" stroke="#0d2330" stroke-linecap="round" stroke-linejoin="round" stroke-width="0.75"/><line y2="1.439" transform="translate(24.084 31.784)" fill="none" stroke="#0d2330" stroke-linecap="round" stroke-linejoin="round" stroke-width="0.75"/><line y2="5.896" transform="translate(24.084 25.064)" fill="none" stroke="#0d2330" stroke-linecap="round" stroke-linejoin="round" stroke-width="0.75"/></g></svg>