<svg xmlns="http://www.w3.org/2000/svg" width="45.846" height="37.841" viewBox="0 0 45.846 37.841"><g transform="translate(1.368 0.375)"><g transform="translate(23.098)"><path d="M88.474,72.952a9.25,9.25,0,0,1,1.173,2.472v4.944a2.254,2.254,0,0,1-1.978,2.472,2.017,2.017,0,0,1-.367,0H77.921a2.206,2.206,0,0,1-2.345-2.085,2.363,2.363,0,0,1,0-.387V75.424a9.25,9.25,0,0,1,1.173-2.472m-.88-17.3c.586-2.6,2.111-5.13,4.4-6.18h4.69c2.286,1.051,3.811,3.585,4.4,6.18m-12.6,7.416a8.836,8.836,0,0,1-1.173-4.944,11.034,11.034,0,0,1,.293-2.472H89.354a11.034,11.034,0,0,1,.293,2.472,8.836,8.836,0,0,1-1.173,4.944" transform="translate(-75.568 -45.759)" fill="none" stroke="#0d2330" stroke-linecap="round" stroke-linejoin="round" stroke-width="0.75"/><path d="M86.56,41.172H81.87V44.88h4.69Zm3.518,17.3H78.352v9.888H90.077Z" transform="translate(-77.171 -41.172)" fill="none" stroke="#0d2330" stroke-linecap="round" stroke-linejoin="round" stroke-width="0.75"/></g><g transform="translate(10.346 10.586)"><path d="M84.791,66.249a6.61,6.61,0,0,1,.838,1.767v3.533a1.611,1.611,0,0,1-1.413,1.766,1.439,1.439,0,0,1-.262,0h-6.7a1.576,1.576,0,0,1-1.676-1.49,1.688,1.688,0,0,1,0-.277V68.016a6.61,6.61,0,0,1,.838-1.767m-.629-12.366a6.309,6.309,0,0,1,3.142-4.416h3.352a6.31,6.31,0,0,1,3.142,4.416m-9.008,5.3a6.314,6.314,0,0,1-.838-3.533,7.885,7.885,0,0,1,.209-1.766H85.42a7.885,7.885,0,0,1,.209,1.766,6.314,6.314,0,0,1-.838,3.533" transform="translate(-75.568 -46.817)" fill="none" stroke="#0d2330" stroke-linecap="round" stroke-linejoin="round" stroke-width="0.75"/><path d="M84.217,41.172H80.866v2.65h3.352Zm2.514,12.366H78.352V60.6h8.379Z" transform="translate(-77.508 -41.172)" fill="none" stroke="#0d2330" stroke-linecap="round" stroke-linejoin="round" stroke-width="0.75"/></g><g transform="translate(1.419 20.653)"><path d="M81.287,59.874a4.1,4.1,0,0,1,.52,1.1V63.16a1,1,0,0,1-.876,1.1.891.891,0,0,1-.163,0H76.611a.977.977,0,0,1-1.039-.924,1.044,1.044,0,0,1,0-.172V60.969a4.1,4.1,0,0,1,.52-1.1m-.39-7.668a3.912,3.912,0,0,1,1.949-2.739h2.078a3.913,3.913,0,0,1,1.949,2.739m-5.586,3.286a3.916,3.916,0,0,1-.52-2.191,4.89,4.89,0,0,1,.13-1.1h5.975a4.888,4.888,0,0,1,.13,1.1,3.916,3.916,0,0,1-.52,2.191" transform="translate(-75.568 -47.824)" fill="none" stroke="#0d2330" stroke-linecap="round" stroke-linejoin="round" stroke-width="0.75"/><path d="M81.989,41.172H79.911v1.643h2.078Zm1.559,7.668h-5.2v4.382h5.2Z" transform="translate(-77.829 -41.172)" fill="none" stroke="#0d2330" stroke-linecap="round" stroke-linejoin="round" stroke-width="0.75"/></g><path d="M0,26.945,43.111,1.82" transform="translate(0 4.787)" fill="none" stroke="#0d2330" stroke-linecap="round" stroke-width="2"/></g></svg>