<svg xmlns="http://www.w3.org/2000/svg" width="40.933" height="33.884" viewBox="0 0 40.933 33.884"><g transform="translate(1.366 0.375)"><rect width="8.981" height="2.117" rx="1.059" transform="translate(8.218)" fill="none" stroke="#0d2330" stroke-linecap="round" stroke-linejoin="round" stroke-width="0.75"/><rect width="8.981" height="2.117" rx="1.059" transform="translate(22.34 2.174)" fill="none" stroke="#0d2330" stroke-linecap="round" stroke-linejoin="round" stroke-width="0.75"/><path d="M204.921,34.92l.1,11.525L199.3,60.724a3.488,3.488,0,0,0,2.791,4.791c.1.008.194.012.293.012h11.431c.1,0,.2,0,.291-.012a3.488,3.488,0,0,0,2.789-4.8l-5.517-14.274-.1-11.525" transform="translate(-195.389 -32.771)" fill="none" stroke="#0d2330" stroke-linecap="round" stroke-linejoin="round" stroke-width="0.75"/><path d="M215.929,34.953" transform="translate(-202.199 -32.785)" fill="none" stroke="#0d2330" stroke-linecap="round" stroke-linejoin="round" stroke-width="0.75"/><path d="M204.433,71.834l-1.683,4.2a1.4,1.4,0,0,0,.12,1.22,1.107,1.107,0,0,0,.851.551c.041,0,.079,0,.118,0H215.27c.038,0,.075,0,.112,0a1.108,1.108,0,0,0,.855-.551,1.413,1.413,0,0,0,.111-1.242l-1.528-3.955" transform="translate(-196.846 -46.659)" fill="none" stroke="#0d2330" stroke-linecap="round" stroke-linejoin="round" stroke-width="0.75"/><path d="M212.5,34.888" transform="translate(-200.817 -32.759)" fill="none" stroke="#0d2330" stroke-linecap="round" stroke-linejoin="round" stroke-width="0.75"/><path d="M205.342,72.012c1.291,0,1.291.878,2.581.878s1.292-.878,2.583-.878,1.292.878,2.585.878,1.284-.639,2.576-.639" transform="translate(-197.732 -46.836)" fill="none" stroke="#0d2330" stroke-linecap="round" stroke-linejoin="round" stroke-width="0.75"/><path d="M226.817,62.486c1.211.215,1.4,1.1,2.943,1.1,1.759,0,1.759-1.151,3.517-1.151s1.763,1.151,3.521,1.151c1.573,0,1.733-.667,3-.813" transform="translate(-206.592 -43.125)" fill="none" stroke="#0d2330" stroke-linecap="round" stroke-linejoin="round" stroke-width="0.75"/><ellipse cx="0.401" cy="0.409" rx="0.401" ry="0.409" transform="translate(16.572 27.512)" fill="#0d2330"/><ellipse cx="0.302" cy="0.307" rx="0.302" ry="0.307" transform="translate(14.687 29.196)" fill="none" stroke="#0d2330" stroke-linecap="round" stroke-linejoin="round" stroke-width="0.75"/><ellipse cx="0.425" cy="0.433" rx="0.425" ry="0.433" transform="translate(8.26 27.363)" fill="#0d2330"/><ellipse cx="0.401" cy="0.409" rx="0.401" ry="0.409" transform="translate(31.143 25.561)" fill="none" stroke="#0d2330" stroke-linecap="round" stroke-linejoin="round" stroke-width="0.75"/><ellipse cx="0.302" cy="0.307" rx="0.302" ry="0.307" transform="translate(29.259 27.245)" fill="none" stroke="#0d2330" stroke-linecap="round" stroke-linejoin="round" stroke-width="0.75"/><ellipse cx="0.425" cy="0.433" rx="0.425" ry="0.433" transform="translate(22.83 25.413)" fill="#0d2330"/><ellipse cx="0.425" cy="0.433" rx="0.425" ry="0.433" transform="translate(26.291 27.245)" fill="#0d2330"/><ellipse cx="0.425" cy="0.433" rx="0.425" ry="0.433" transform="translate(30.034 22.033)" fill="#0d2330"/><path d="M238.337,53.963a9.9,9.9,0,0,1-3.4,19.107,9.479,9.479,0,0,1-3.879-.826" transform="translate(-208.303 -39.936)" fill="none" stroke="#0d2330" stroke-linecap="round" stroke-linejoin="round" stroke-width="0.75"/><path d="M224.931,56.921a9.676,9.676,0,0,1,4.508-3.175" transform="translate(-205.83 -39.854)" fill="none" stroke="#0d2330" stroke-linecap="round" stroke-linejoin="round" stroke-width="0.75"/><path d="M221.326,69.164" transform="translate(-204.376 -45.654)" fill="none" stroke="#0d2330" stroke-linecap="round" stroke-linejoin="round" stroke-width="0.75"/><path d="M241.74,62.994a7.735,7.735,0,0,1,.961,3.75,7.605,7.605,0,0,1-7.534,7.676,7.4,7.4,0,0,1-3.538-.9" transform="translate(-208.534 -43.333)" fill="none" stroke="#0d2330" stroke-linecap="round" stroke-linejoin="round" stroke-width="0.75"/><line y1="9.681" transform="translate(30.034 4.346)" fill="none" stroke="#0d2330" stroke-linecap="round" stroke-linejoin="round" stroke-width="0.75"/><line y1="9.546" transform="translate(23.608 4.346)" fill="none" stroke="#0d2330" stroke-linecap="round" stroke-linejoin="round" stroke-width="0.75"/><path d="M0,23.92,38.2,1.82" transform="translate(0 3.85)" fill="none" stroke="#0d2330" stroke-linecap="round" stroke-width="2"/></g></svg>