<svg xmlns="http://www.w3.org/2000/svg" width="49.14" height="35.396" viewBox="0 0 49.14 35.396"><g transform="translate(-17.17 -31.987)"><g transform="translate(17.67 32.536)"><path d="M18.723,39.554c-.608-.263,12.523-11.385,19.561-2.07C38.285,37.587,36.421,47.212,18.723,39.554Z" transform="translate(-17.956 -33.772)" fill="none" stroke="#0d2330" stroke-miterlimit="10" stroke-width="1"/><g transform="translate(12.617 10.638)"><path d="M55.869,56.541a2.425,2.425,0,0,0,4.622-1.467" transform="translate(-40.87 -50.312)" fill="none" stroke="#0d2330" stroke-miterlimit="10" stroke-width="1"/><path d="M69.743,48.487A18.162,18.162,0,1,1,35.122,59.478l17.427-5.533Z" transform="translate(-35.122 -48.487)" fill="none" stroke="#0d2330" stroke-miterlimit="10" stroke-width="1"/><path d="M38.394,59.015a15.68,15.68,0,1,0,29.889-9.489" transform="translate(-36.028 -48.775)" fill="none" stroke="#0d2330" stroke-miterlimit="10" stroke-width="1"/><path d="M74.708,61.539c-.155,0-12.51-4.258-12.51-4.258" transform="translate(-42.623 -50.923)" fill="none" stroke="#0d2330" stroke-miterlimit="10" stroke-width="1"/><line x1="7.607" y1="10.764" transform="translate(18.475 7.666)" fill="none" stroke="#0d2330" stroke-miterlimit="10" stroke-width="1"/><line y1="13.299" x2="0.259" transform="translate(16.767 7.873)" fill="none" stroke="#0d2330" stroke-miterlimit="10" stroke-width="1"/><line y1="10.505" x2="7.969" transform="translate(7.711 7.407)" fill="none" stroke="#0d2330" stroke-miterlimit="10" stroke-width="1"/></g><path d="M23.491,39.218a45.552,45.552,0,0,1,16.12-.7s3.674.931,5.692-1.009a11.636,11.636,0,0,0-3.8,7.452" transform="translate(-19.283 -34.808)" fill="none" stroke="#0d2330" stroke-miterlimit="10" stroke-width="1"/><path d="M22.879,44.189A15.162,15.162,0,0,0,39.644,69.172" transform="translate(-17.67 -36.658)" fill="none" stroke="#0d2330" stroke-miterlimit="10" stroke-width="1"/><path d="M55.375,51.629a15.184,15.184,0,0,0-10.064-11.5" transform="translate(-25.327 -35.532)" fill="none" stroke="#0d2330" stroke-miterlimit="10" stroke-width="1"/></g></g></svg>