<svg xmlns="http://www.w3.org/2000/svg" width="40.933" height="34.767" viewBox="0 0 40.933 34.767"><g transform="translate(-1077.631 -2470.283)"><g transform="translate(1084.26 2470.658)"><path d="M19.011,58.451l3.251,11.533A3.068,3.068,0,0,0,25.22,72.24H38a3.068,3.068,0,0,0,2.988-2.374L43.576,58.72" transform="translate(-17.62 -38.266)" fill="none" stroke="#11232f" stroke-linecap="round" stroke-linejoin="round" stroke-width="0.75"/><line x2="2.505" y2="15.74" transform="translate(7.044 18.222)" fill="none" stroke="#11232f" stroke-linecap="round" stroke-linejoin="round" stroke-width="0.75"/><line x1="2.539" y2="15.842" transform="translate(18.452 18.12)" fill="none" stroke="#11232f" stroke-linecap="round" stroke-linejoin="round" stroke-width="0.75"/><line y2="10.087" transform="translate(14.159 17.815)" fill="none" stroke="#11232f" stroke-linecap="round" stroke-linejoin="round" stroke-width="0.75"/><circle cx="0.666" cy="0.666" r="0.666" transform="translate(13.493 30.091)" fill="none" stroke="#11232f" stroke-linecap="round" stroke-linejoin="round" stroke-width="0.75"/><circle cx="2.904" cy="2.904" r="2.904" transform="translate(11.029 0)" fill="none" stroke="#11232f" stroke-miterlimit="10" stroke-width="0.75"/><path d="M17.294,44.48a3.08,3.08,0,0,0-1.658,2.929,3.534,3.534,0,0,0,7.061,0" transform="translate(-15.633 -30.049)" fill="none" stroke="#11232f" stroke-linecap="round" stroke-linejoin="round" stroke-width="0.75"/><path d="M41.112,42.659" transform="translate(-30.618 -28.978)" fill="none" stroke="#11232f" stroke-linecap="round" stroke-linejoin="round" stroke-width="0.75"/><path d="M32.9,51.166a3.533,3.533,0,1,0,7.061-.3" transform="translate(-25.789 -33.807)" fill="none" stroke="#11232f" stroke-linecap="round" stroke-linejoin="round" stroke-width="0.75"/><path d="M58.044,42.659" transform="translate(-40.577 -28.978)" fill="none" stroke="#11232f" stroke-linecap="round" stroke-linejoin="round" stroke-width="0.75"/><path d="M50,50.931a3.547,3.547,0,0,0,3.4,3.583,3.423,3.423,0,0,0,3.438-3.408" transform="translate(-35.849 -33.843)" fill="none" stroke="#11232f" stroke-linecap="round" stroke-linejoin="round" stroke-width="0.75"/><path d="M66.6,46.9a3.534,3.534,0,1,0,5.162-3.284" transform="translate(-45.609 -29.542)" fill="none" stroke="#11232f" stroke-linecap="round" stroke-linejoin="round" stroke-width="0.75"/><path d="M29.2,19.815a12.031,12.031,0,0,0-9.539,10.167" transform="translate(-18.004 -15.542)" fill="none" stroke="#11232f" stroke-linecap="round" stroke-linejoin="round" stroke-width="0.75"/><path d="M65.628,29.575a11.82,11.82,0,0,0-9.449-9.822" transform="translate(-39.48 -15.506)" fill="none" stroke="#11232f" stroke-linecap="round" stroke-linejoin="round" stroke-width="0.75"/></g><ellipse cx="0.418" cy="0.42" rx="0.418" ry="0.42" transform="translate(1103.237 2478.088)" fill="#0d2330"/><ellipse cx="0.418" cy="0.42" rx="0.418" ry="0.42" transform="translate(1103.895 2479.769)" fill="#0d2330"/><ellipse cx="0.418" cy="0.42" rx="0.418" ry="0.42" transform="translate(1102.402 2479.769)" fill="#0d2330"/><path d="M0,23.92,38.2,1.82" transform="translate(1078.997 2475.508)" fill="none" stroke="#0d2330" stroke-linecap="round" stroke-width="2"/></g></svg>