<svg xmlns="http://www.w3.org/2000/svg" width="40.933" height="38.85" viewBox="0 0 40.933 38.85"><g transform="translate(1.366 0.375)"><line y2="26.304" transform="translate(18.155 11.796)" fill="none" stroke="#0d2330" stroke-linecap="round" stroke-miterlimit="10" stroke-width="0.75"/><path d="M48.685,53.924a6.106,6.106,0,0,0-1.069,3.4,1.475,1.475,0,0,0,2.032,1.618,5.809,5.809,0,0,0,2.94-1.912c1.347-1.786,1.1-4.39.982-5.168a.238.238,0,0,0-.261-.208A6.961,6.961,0,0,0,48.685,53.924Z" transform="translate(-29.31 -23.99)" fill="none" stroke="#0d2330" stroke-linecap="round" stroke-miterlimit="10" stroke-width="0.75"/><path d="M48.685,42.171a6.1,6.1,0,0,0-1.069,3.4,1.475,1.475,0,0,0,2.032,1.619,5.809,5.809,0,0,0,2.94-1.912c1.347-1.787,1.1-4.39.982-5.168a.237.237,0,0,0-.261-.208A6.954,6.954,0,0,0,48.685,42.171Z" transform="translate(-29.31 -20.294)" fill="none" stroke="#0d2330" stroke-linecap="round" stroke-miterlimit="10" stroke-width="0.75"/><path d="M48.685,30.116a6.1,6.1,0,0,0-1.069,3.4,1.475,1.475,0,0,0,2.032,1.618,5.809,5.809,0,0,0,2.94-1.912c1.347-1.787,1.1-4.39.982-5.168a.237.237,0,0,0-.261-.208A6.961,6.961,0,0,0,48.685,30.116Z" transform="translate(-29.31 -16.502)" fill="none" stroke="#0d2330" stroke-linecap="round" stroke-miterlimit="10" stroke-width="0.75"/><path d="M43.751,19.887A6.1,6.1,0,0,0,44.9,23.263a1.446,1.446,0,0,0,2.57.029,6.092,6.092,0,0,0,1.219-3.349,7.308,7.308,0,0,0-2.254-4.728.232.232,0,0,0-.33,0A7.3,7.3,0,0,0,43.751,19.887Z" transform="translate(-28.024 -12.508)" fill="none" stroke="#0d2330" stroke-linecap="round" stroke-miterlimit="10" stroke-width="0.75"/><line y2="2.677" transform="translate(24.261 8.854)" fill="none" stroke="#0d2330" stroke-linecap="round" stroke-miterlimit="10" stroke-width="0.75"/><line y2="2.677" transform="translate(24.261 17.178)" fill="none" stroke="#0d2330" stroke-linecap="round" stroke-miterlimit="10" stroke-width="0.75"/><line y2="2.677" transform="translate(24.321 25.513)" fill="none" stroke="#0d2330" stroke-linecap="round" stroke-miterlimit="10" stroke-width="0.75"/><path d="M43.106,53.961a6.1,6.1,0,0,1,1.069,3.4,1.475,1.475,0,0,1-2.032,1.619A5.809,5.809,0,0,1,39.2,57.07c-1.347-1.787-1.1-4.39-.982-5.168a.237.237,0,0,1,.261-.208A6.954,6.954,0,0,1,43.106,53.961Z" transform="translate(-26.15 -24.001)" fill="none" stroke="#0d2330" stroke-linecap="round" stroke-miterlimit="10" stroke-width="0.75"/><path d="M43.106,42.207a6.107,6.107,0,0,1,1.069,3.4,1.475,1.475,0,0,1-2.032,1.619,5.81,5.81,0,0,1-2.94-1.913c-1.347-1.786-1.1-4.39-.982-5.167a.238.238,0,0,1,.261-.208A6.961,6.961,0,0,1,43.106,42.207Z" transform="translate(-26.15 -20.305)" fill="none" stroke="#0d2330" stroke-linecap="round" stroke-miterlimit="10" stroke-width="0.75"/><path d="M43.106,30.152a6.107,6.107,0,0,1,1.069,3.4,1.475,1.475,0,0,1-2.032,1.619,5.81,5.81,0,0,1-2.94-1.913c-1.347-1.786-1.1-4.39-.982-5.167a.237.237,0,0,1,.261-.208A6.956,6.956,0,0,1,43.106,30.152Z" transform="translate(-26.15 -16.514)" fill="none" stroke="#0d2330" stroke-linecap="round" stroke-miterlimit="10" stroke-width="0.75"/><line y2="2.677" transform="translate(12.069 8.88)" fill="none" stroke="#0d2330" stroke-linecap="round" stroke-miterlimit="10" stroke-width="0.75"/><line y2="2.677" transform="translate(12.069 17.203)" fill="none" stroke="#0d2330" stroke-linecap="round" stroke-miterlimit="10" stroke-width="0.75"/><line y2="2.677" transform="translate(12.01 25.539)" fill="none" stroke="#0d2330" stroke-linecap="round" stroke-miterlimit="10" stroke-width="0.75"/><line y2="2.677" transform="translate(18.24)" fill="none" stroke="#0d2330" stroke-linecap="round" stroke-miterlimit="10" stroke-width="0.75"/><path d="M0,23.92,38.2,1.82" transform="translate(0 6.85)" fill="none" stroke="#0d2330" stroke-linecap="round" stroke-width="2"/></g></svg>