<svg xmlns="http://www.w3.org/2000/svg" width="30.735" height="39.105" viewBox="0 0 30.735 39.105"><g transform="translate(0.375 0.375)"><line y2="26.836" transform="translate(15.9 11.52)" fill="none" stroke="#12232f" stroke-linecap="round" stroke-miterlimit="10" stroke-width="0.75"/><line x2="6.873" y2="7.11" transform="translate(8.852 20.21)" fill="none" stroke="#12232f" stroke-linecap="round" stroke-miterlimit="10" stroke-width="0.75"/><path d="M41.262,34.089c0,5.487,4.261,9.935,4.261,9.935s4.26-4.448,4.26-9.935-4.26-9.934-4.26-9.934S41.262,28.6,41.262,34.089Z" transform="translate(-29.556 -24.155)" fill="none" stroke="#12232f" stroke-linecap="round" stroke-linejoin="round" stroke-miterlimit="10" stroke-width="0.75"/><path d="M27.531,49.463c3.137,2.962,7.98,2.756,7.98,2.756s-.243-5.008-3.38-7.97-7.981-2.757-7.981-2.757S24.394,46.5,27.531,49.463Z" transform="translate(-24.151 -29.22)" fill="none" stroke="#12232f" stroke-linecap="round" stroke-linejoin="round" stroke-miterlimit="10" stroke-width="0.75"/><line x1="6.608" y2="7.767" transform="translate(15.989 24.16)" fill="none" stroke="#12232f" stroke-linecap="round" stroke-miterlimit="10" stroke-width="0.75"/><path d="M55.275,50.645c-2.92,3.25-2.763,8.311-2.763,8.311s4.891-.208,7.811-3.458,2.763-8.312,2.763-8.312S58.195,47.395,55.275,50.645Z" transform="translate(-33.109 -30.884)" fill="none" stroke="#12232f" stroke-linecap="round" stroke-linejoin="round" stroke-miterlimit="10" stroke-width="0.75"/></g></svg>