<svg xmlns="http://www.w3.org/2000/svg" width="44.298" height="37.507" viewBox="0 0 44.298 37.507"><g transform="translate(1.366 0.375)"><g transform="translate(13.616)"><path d="M1949.622-179.386l-8.736-5.49,10.049-4.515,8.736,5.49Z" transform="translate(-1940.641 189.391)" fill="none" stroke="#0d2330" stroke-linecap="round" stroke-linejoin="round" stroke-width="0.75"/><path d="M2036.112-124.413l.215-9.757-10.048,4.516-.186,8.4" transform="translate(-2017.296 139.659)" fill="none" stroke="#0d2330" stroke-linecap="round" stroke-linejoin="round" stroke-width="0.75"/><path d="M1946.21-127.969l-7.768-4.881.245-11.12,8.736,5.49-.185,8.4" transform="translate(-1938.442 148.485)" fill="none" stroke="#0d2330" stroke-linecap="round" stroke-linejoin="round" stroke-width="0.75"/><ellipse cx="0.415" cy="0.411" rx="0.415" ry="0.411" transform="translate(16.573 12.801)" fill="#0d2330"/><ellipse cx="0.415" cy="0.411" rx="0.415" ry="0.411" transform="translate(15.743 11.156)" fill="#0d2330"/><ellipse cx="0.415" cy="0.411" rx="0.415" ry="0.411" transform="translate(14.912 12.801)" fill="#0d2330"/></g><g transform="translate(3.32 15.645)"><path d="M1856.088-27.138l-7.767-4.882L1838.272-27.5l8.736,5.489,8.431-3.787" transform="translate(-1838.027 32.02)" fill="none" stroke="#0d2330" stroke-linecap="round" stroke-linejoin="round" stroke-width="0.75"/><path d="M1844.571,29.887l-8.736-5.49.243-10.991,8.736,5.49Z" transform="translate(-1835.835 -8.891)" fill="none" stroke="#0d2330" stroke-linecap="round" stroke-linejoin="round" stroke-width="0.75"/><path d="M1925.883,69.016" transform="translate(-1916.847 -58.973)" fill="none" stroke="#0d2330" stroke-linecap="round" stroke-linejoin="round" stroke-width="0.75"/><path d="M1922.972,132.635l9.983-4.422.016-.714" transform="translate(-1914.227 -111.643)" fill="none" stroke="#0d2330" stroke-linecap="round" stroke-linejoin="round" stroke-width="0.75"/></g><path d="M2053.64-36.719l-11.847-.114,6.723,9.066,11.847.114-6.723-9.066" transform="translate(-2017.806 51.998)" fill="none" stroke="#0d2330" stroke-linecap="round" stroke-linejoin="round" stroke-width="0.75"/><path d="M2054.044,65.845l5.5-11.406,11.831.114-5.495,11.406Z" transform="translate(-2028.826 -30.201)" fill="none" stroke="#0d2330" stroke-linecap="round" stroke-linejoin="round" stroke-width="0.75"/><path d="M1986.373-25.4l5.562-11.431,6.723,9.066L1993.1-16.335Z" transform="translate(-1967.947 51.998)" fill="none" stroke="#0d2330" stroke-linecap="round" stroke-linejoin="round" stroke-width="0.75"/><ellipse cx="0.415" cy="0.411" rx="0.415" ry="0.411" transform="translate(23.736 18.046)" fill="#0d2330"/><ellipse cx="0.415" cy="0.411" rx="0.415" ry="0.411" transform="translate(34.713 32.035)" fill="#0d2330"/><ellipse cx="0.415" cy="0.412" rx="0.415" ry="0.412" transform="matrix(0.899, -0.438, 0.438, 0.899, 9.865, 31.891)" fill="#0d2330"/><ellipse cx="0.415" cy="0.411" rx="0.415" ry="0.411" transform="translate(24.388 19.691)" fill="#0d2330"/><ellipse cx="0.415" cy="0.411" rx="0.415" ry="0.411" transform="translate(35.365 33.681)" fill="#0d2330"/><ellipse cx="0.415" cy="0.412" rx="0.415" ry="0.412" transform="matrix(0.899, -0.438, 0.438, 0.899, 12.841, 34.004)" fill="#0d2330"/><ellipse cx="0.415" cy="0.411" rx="0.415" ry="0.411" transform="translate(22.905 19.691)" fill="#0d2330"/><ellipse cx="0.415" cy="0.411" rx="0.415" ry="0.411" transform="translate(33.882 33.681)" fill="#0d2330"/><ellipse cx="0.415" cy="0.412" rx="0.415" ry="0.412" transform="matrix(0.899, -0.438, 0.438, 0.899, 9.847, 33.731)" fill="#0d2330"/><path d="M0,23.919,38.2,1.82" transform="translate(0 5.85)" fill="none" stroke="#0d2330" stroke-linecap="round" stroke-width="2"/></g></svg>