<svg xmlns="http://www.w3.org/2000/svg" width="54.092" height="49.247" viewBox="0 0 54.092 49.247"><g transform="translate(0.5 0.55)"><g transform="matrix(0.995, 0.105, -0.105, 0.995, 33.41, -0.014)"><line x2="0.234" y2="18.788" transform="translate(4.182 8.901)" fill="none" stroke="#0d2330" stroke-linecap="round" stroke-miterlimit="10" stroke-width="1"/><path d="M.025,9.764c.014,5.392,4.251,9.774,4.251,9.774s4.215-4.36,4.2-9.752S4.226.011,4.226.011.011,4.371.025,9.764Z" fill="none" stroke="#0d2330" stroke-linecap="round" stroke-linejoin="round" stroke-miterlimit="10" stroke-width="1"/><line x1="5.068" y2="4.997" transform="translate(4.23 20.918)" fill="none" stroke="#0d2330" stroke-linecap="round" stroke-miterlimit="10" stroke-width="1"/><path d="M2.191,2.713c-2.3,2.538-2.166,6.5-2.166,6.5s3.864-.152,6.164-2.691S8.355.022,8.355.022,4.491.175,2.191,2.713Z" transform="translate(6.981 14.264)" fill="none" stroke="#0d2330" stroke-linecap="round" stroke-linejoin="round" stroke-miterlimit="10" stroke-width="1"/></g><g transform="translate(0 10.318)"><path d="M18.725,40.148c-.671-.29,13.812-12.556,21.574-2.283C40.3,37.98,38.244,48.595,18.725,40.148Z" transform="translate(-17.879 -33.772)" fill="none" stroke="#0d2330" stroke-linejoin="round" stroke-miterlimit="10" stroke-width="1"/><g transform="translate(13.915 11.733)"><path d="M55.869,56.692a2.674,2.674,0,0,0,5.1-1.618" transform="translate(-39.326 -49.822)" fill="none" stroke="#0d2330" stroke-linejoin="round" stroke-miterlimit="10" stroke-width="1"/><path d="M73.3,48.487A20.03,20.03,0,0,1,35.122,60.609l19.22-6.1Z" transform="translate(-35.122 -48.487)" fill="none" stroke="#0d2330" stroke-linejoin="round" stroke-miterlimit="10" stroke-width="1"/><path d="M38.394,59.991A17.293,17.293,0,1,0,71.358,49.526" transform="translate(-35.785 -48.698)" fill="none" stroke="#0d2330" stroke-linejoin="round" stroke-miterlimit="10" stroke-width="1"/><path d="M75.995,61.977c-.171,0-13.8-4.7-13.8-4.7" transform="translate(-40.609 -50.269)" fill="none" stroke="#0d2330" stroke-miterlimit="10" stroke-width="1"/><line x1="8.39" y1="11.871" transform="translate(20.375 8.455)" fill="none" stroke="#0d2330" stroke-miterlimit="10" stroke-width="1"/><line y1="14.668" x2="0.285" transform="translate(18.492 8.683)" fill="none" stroke="#0d2330" stroke-miterlimit="10" stroke-width="1"/><line y1="11.586" x2="8.789" transform="translate(8.504 8.169)" fill="none" stroke="#0d2330" stroke-miterlimit="10" stroke-width="1"/></g><path d="M30.874,38.623c.343,0,.824-1.294,11.363,0,0,0,4.052,1.027,6.278-1.113a12.833,12.833,0,0,0-4.195,8.218" transform="translate(-19.817 -34.53)" fill="none" stroke="#0d2330" stroke-linecap="round" stroke-linejoin="round" stroke-miterlimit="10" stroke-width="1"/><path d="M23.415,44.189A16.722,16.722,0,0,0,41.9,71.742" transform="translate(-17.67 -35.883)" fill="none" stroke="#0d2330" stroke-linejoin="round" stroke-miterlimit="10" stroke-width="1"/><path d="M56.41,52.812a16.746,16.746,0,0,0-11.1-12.687" transform="translate(-23.272 -35.06)" fill="none" stroke="#0d2330" stroke-miterlimit="10" stroke-width="1"/></g><circle cx="0.434" cy="0.434" r="0.434" transform="translate(3.39 31.274)" fill="#0d2330"/><circle cx="0.434" cy="0.434" r="0.434" transform="translate(4.072 33.056)" fill="#0d2330"/><circle cx="0.434" cy="0.434" r="0.434" transform="translate(28.402 23.254)" fill="#0d2330"/><circle cx="0.434" cy="0.434" r="0.434" transform="translate(29.271 25.036)" fill="#0d2330"/><circle cx="0.434" cy="0.434" r="0.434" transform="translate(27.534 25.036)" fill="#0d2330"/><circle cx="0.434" cy="0.434" r="0.434" transform="translate(2.956 34.839)" fill="#0d2330"/><circle cx="0.434" cy="0.434" r="0.434" transform="translate(2.521 33.056)" fill="#0d2330"/></g></svg>