<svg xmlns="http://www.w3.org/2000/svg" width="37.948" height="54.426" viewBox="0 0 37.948 54.426"><g transform="translate(0.375 0.375)"><rect width="7.591" height="17.59" transform="translate(0 36.086)" fill="none" stroke="#0d2330" stroke-linecap="round" stroke-linejoin="round" stroke-width="0.75"/><rect width="1.967" height="7.213" transform="translate(12.434 41.109)" fill="none" stroke="#0d2330" stroke-linecap="round" stroke-linejoin="round" stroke-width="0.75"/><rect width="2.967" height="6.201" transform="translate(37.198 21.375) rotate(90)" fill="none" stroke="#0d2330" stroke-linecap="round" stroke-linejoin="round" stroke-width="0.75"/><rect width="4.828" height="1.499" transform="translate(7.602 43.967)" fill="none" stroke="#0d2330" stroke-linecap="round" stroke-linejoin="round" stroke-width="0.75"/><path d="M273.434,54.819" transform="translate(-254.385 -22.602)" fill="none" stroke="#0d2330" stroke-linecap="round" stroke-linejoin="round" stroke-width="0.75"/><g transform="translate(1.942)"><path d="M251.745,42.506h-4v-19a17.107,17.107,0,0,1,34.214,0v4.258h-4V23.508a13.111,13.111,0,0,0-26.221,0Z" transform="translate(-247.749 -6.449)" fill="none" stroke="#0d2330" stroke-linecap="round" stroke-linejoin="round" stroke-width="0.75"/></g><line y2="11.605" transform="translate(32.041 38.713)" fill="none" stroke="#0d2330" stroke-linecap="round" stroke-linejoin="round" stroke-width="0.75"/><line y2="11.605" transform="translate(32.041 24.553)" fill="none" stroke="#0d2330" stroke-linecap="round" stroke-linejoin="round" stroke-width="0.75"/><line y2="6.642" transform="translate(36.056 33.238)" fill="none" stroke="#0d2330" stroke-linecap="round" stroke-linejoin="round" stroke-width="0.75"/><line y2="6.642" transform="translate(36.056 42.801)" fill="none" stroke="#0d2330" stroke-linecap="round" stroke-linejoin="round" stroke-width="0.75"/><line y2="6.966" transform="translate(36.056 24.594)" fill="none" stroke="#0d2330" stroke-linecap="round" stroke-linejoin="round" stroke-width="0.75"/><line y2="4.744" transform="translate(34.012 25.209)" fill="none" stroke="#0d2330" stroke-linecap="round" stroke-linejoin="round" stroke-width="0.75"/><line y2="2.044" transform="translate(34.012 31.633)" fill="none" stroke="#0d2330" stroke-linecap="round" stroke-linejoin="round" stroke-width="0.75"/><line y2="2.044" transform="translate(34.012 45.137)" fill="none" stroke="#0d2330" stroke-linecap="round" stroke-linejoin="round" stroke-width="0.75"/><line y2="8.373" transform="translate(34.012 35.594)" fill="none" stroke="#0d2330" stroke-linecap="round" stroke-linejoin="round" stroke-width="0.75"/></g></svg>