<svg xmlns="http://www.w3.org/2000/svg" width="57.802" height="28.436" viewBox="0 0 57.802 28.436">
  <g id="Компонент_183_4" data-name="Компонент 183 – 4" transform="translate(0.375 0.375)">
    <g id="Сгруппировать_1093" data-name="Сгруппировать 1093">
      <path id="Контур_5588" data-name="Контур 5588" d="M139.219,196.75v-8.1a.66.66,0,0,1,.66-.66h39.475a.66.66,0,0,1,.66.66v26.21a.66.66,0,0,1-.66.66H139.879a.66.66,0,0,1-.66-.66V203.07" transform="translate(-122.993 -187.991)" fill="none" stroke="#0d2330" stroke-linecap="round" stroke-miterlimit="10" stroke-width="0.75"/>
      <path id="Контур_5589" data-name="Контур 5589" d="M139.7,188.467l20.523,18.145,15.768-13.14" transform="translate(-123.25 -188.249)" fill="none" stroke="#0d2330" stroke-linecap="round" stroke-linejoin="round" stroke-width="0.75"/>
      <line id="Линия_155" data-name="Линия 155" x1="15.309" y2="13.222" transform="translate(16.477 14.058)" fill="none" stroke="#0d2330" stroke-linecap="round" stroke-miterlimit="10" stroke-width="0.75"/>
      <path id="Контур_5590" data-name="Контур 5590" d="M184.171,208.423" transform="translate(-147.297 -199.038)" fill="none" stroke="#0d2330" stroke-linecap="round" stroke-miterlimit="10" stroke-width="0.75"/>
      <line id="Линия_156" data-name="Линия 156" x1="14.516" y1="13.39" transform="translate(42.381 14.141)" fill="none" stroke="#0d2330" stroke-linecap="round" stroke-miterlimit="10" stroke-width="0.75"/>
      <line id="Линия_157" data-name="Линия 157" x2="12.681" transform="translate(0 5.214)" fill="none" stroke="#0d2330" stroke-linecap="round" stroke-miterlimit="10" stroke-width="0.75"/>
      <line id="Линия_158" data-name="Линия 158" x2="22.025" transform="translate(0.501 12.389)" fill="none" stroke="#0d2330" stroke-linecap="round" stroke-miterlimit="10" stroke-width="0.75"/>
      <line id="Линия_159" data-name="Линия 159" x2="9.844" transform="translate(0 24.569)" fill="none" stroke="#0d2330" stroke-linecap="round" stroke-miterlimit="10" stroke-width="0.75"/>
      <line id="Линия_160" data-name="Линия 160" x2="7.675" transform="translate(8.343 19.396)" fill="none" stroke="#0d2330" stroke-linecap="round" stroke-miterlimit="10" stroke-width="0.75"/>
    </g>
  </g>
</svg>
