<svg xmlns="http://www.w3.org/2000/svg" width="52.107" height="42.823" viewBox="0 0 52.107 42.823"><g transform="translate(1.374 0.375)"><g transform="translate(27.737)"><path d="M90.26,76.093A10.469,10.469,0,0,1,91.6,78.9V84.5a2.558,2.558,0,0,1-2.251,2.8,2.305,2.305,0,0,1-.418,0H78.247a2.508,2.508,0,0,1-2.669-2.364,2.669,2.669,0,0,1,0-.439V78.9a10.469,10.469,0,0,1,1.335-2.8m-1-19.619c.667-2.943,2.4-5.816,5.006-7.007h5.339c2.6,1.191,4.338,4.064,5.006,7.007M76.912,64.882a9.988,9.988,0,0,1-1.335-5.605,12.461,12.461,0,0,1,.334-2.8h15.35a12.461,12.461,0,0,1,.334,2.8,9.988,9.988,0,0,1-1.335,5.605" transform="translate(-75.568 -45.263)" fill="none" stroke="#0d2330" stroke-linecap="round" stroke-linejoin="round" stroke-width="0.75"/><path d="M87.7,41.172H82.356v4.2H87.7Zm4,19.619H78.352V72H91.7Z" transform="translate(-77.008 -41.172)" fill="none" stroke="#0d2330" stroke-linecap="round" stroke-linejoin="round" stroke-width="0.75"/></g><g transform="translate(13.221 12.013)"><path d="M86.067,68.494a7.481,7.481,0,0,1,.954,2V74.5a1.828,1.828,0,0,1-1.609,2,1.644,1.644,0,0,1-.3,0H77.482a1.792,1.792,0,0,1-1.908-1.689,1.909,1.909,0,0,1,0-.314V70.5a7.481,7.481,0,0,1,.954-2m-.716-14.02a7.155,7.155,0,0,1,3.577-5.007h3.815a7.156,7.156,0,0,1,3.577,5.007M76.529,60.483a7.137,7.137,0,0,1-.954-4.006,8.9,8.9,0,0,1,.238-2h10.97a8.9,8.9,0,0,1,.238,2,7.138,7.138,0,0,1-.954,4.006" transform="translate(-75.568 -46.462)" fill="none" stroke="#0d2330" stroke-linecap="round" stroke-linejoin="round" stroke-width="0.75"/><path d="M85.029,41.172H81.213v3h3.815Zm2.862,14.02H78.352V63.2H87.89Z" transform="translate(-77.392 -41.172)" fill="none" stroke="#0d2330" stroke-linecap="round" stroke-linejoin="round" stroke-width="0.75"/></g><g transform="translate(3.058 23.438)"><path d="M82.079,61.266a4.639,4.639,0,0,1,.592,1.242v2.484a1.134,1.134,0,0,1-1,1.242,1.02,1.02,0,0,1-.185,0H76.755a1.111,1.111,0,0,1-1.183-1.047,1.181,1.181,0,0,1,0-.195V62.508a4.639,4.639,0,0,1,.592-1.242m-.444-8.694a4.437,4.437,0,0,1,2.218-3.1H80.3a4.437,4.437,0,0,1,2.218,3.1M76.164,56.3a4.426,4.426,0,0,1-.592-2.484,5.522,5.522,0,0,1,.148-1.242h6.8a5.521,5.521,0,0,1,.148,1.242,4.426,4.426,0,0,1-.592,2.484" transform="translate(-75.568 -47.604)" fill="none" stroke="#0d2330" stroke-linecap="round" stroke-linejoin="round" stroke-width="0.75"/><path d="M82.492,41.172H80.126v1.863h2.366Zm1.774,8.694H78.352v4.968h5.915Z" transform="translate(-77.756 -41.172)" fill="none" stroke="#0d2330" stroke-linecap="round" stroke-linejoin="round" stroke-width="0.75"/></g><path d="M0,31.854,49.359,1.82" transform="translate(0 6.586)" fill="none" stroke="#0d2330" stroke-linecap="round" stroke-width="2"/></g></svg>