<svg xmlns="http://www.w3.org/2000/svg" width="35.291" height="40.801" viewBox="0 0 35.291 40.801"><g transform="translate(0.376 0.375)"><path d="M21.195,92.91c3.966,0,3.966,1.9,7.931,1.9s3.965-1.9,7.929-1.9,3.967,1.9,7.934,1.9,3.966-1.9,7.933-1.9" transform="translate(-20.108 -81.964)" fill="none" stroke="#12232f" stroke-miterlimit="10" stroke-width="0.75"/><path d="M47.225,122.015H26.218a1.036,1.036,0,0,1-1.026-.9L20.117,83.136a1.035,1.035,0,0,1,1.026-1.172H53.609A1.035,1.035,0,0,1,54.63,83.17l-6.385,37.981A1.035,1.035,0,0,1,47.225,122.015Z" transform="translate(-20.108 -81.964)" fill="none" stroke="#12232f" stroke-miterlimit="10" stroke-width="0.75"/><circle cx="1" cy="1" r="1" transform="translate(7.728 27.191)" fill="#0d2330"/><circle cx="0.75" cy="0.75" r="0.75" transform="translate(13.514 32.191)" fill="#0d2330"/><circle cx="1" cy="1" r="1" transform="translate(7.728 36.191)" fill="#0d2330"/><circle cx="0.75" cy="0.75" r="0.75" transform="translate(11.728 21.191)" fill="#0d2330"/></g></svg>