<svg width="12" height="10" viewBox="0 0 12 10" fill="none" xmlns="http://www.w3.org/2000/svg">
<path d="M3.37211 9.78822C3.43199 9.85507 3.50431 9.90836 3.58461 9.94478C3.66491 9.98121 3.75149 10 3.83899 10C3.92649 10 4.01307 9.98121 4.09337 9.94478C4.17367 9.90836 4.24599 9.85507 4.30588 9.78822L11.8027 1.93296C11.8652 1.86799 11.9148 1.7907 11.9487 1.70554C11.9826 1.62037 12 1.52903 12 1.43677C12 1.34451 11.9826 1.25316 11.9487 1.168C11.9148 1.08284 11.8652 1.00554 11.8027 0.940574L11.0957 0.199775C10.971 0.0717241 10.8034 0 10.6288 0C10.4542 0 10.2866 0.0717241 10.1619 0.199775L3.83899 6.82503L1.83806 4.7424C1.77818 4.67555 1.70585 4.62227 1.62555 4.58584C1.54525 4.54942 1.45868 4.53062 1.37117 4.53062C1.28367 4.53062 1.1971 4.54942 1.11679 4.58584C1.03649 4.62227 0.964169 4.67555 0.904287 4.7424L0.197291 5.4832C0.134776 5.54817 0.085157 5.62547 0.0512954 5.71063C0.0174338 5.79579 0 5.88714 0 5.9794C0 6.07166 0.0174338 6.163 0.0512954 6.24817C0.085157 6.33333 0.134776 6.41062 0.197291 6.47559L3.37211 9.78822Z" fill="#0B1D49"/>
</svg>
