<svg width="108" height="48" viewBox="0 0 108 48" fill="none" xmlns="http://www.w3.org/2000/svg">
<path d="M8.43719 33.6126V46.8478H5.62224V33.6126H0.106934V31.0459H13.9525V33.6126H8.43719Z" fill="#0B1D49"/>
<path fill-rule="evenodd" clip-rule="evenodd" d="M20.9076 46.8517H23.4209V35.5395H20.816V36.2534C19.9146 35.602 18.7535 35.2782 17.325 35.2782C16.1791 35.2782 15.1364 35.5278 14.1968 36.0271C13.2573 36.5264 12.5125 37.2286 11.9625 38.1296C11.4125 39.0346 11.1375 40.0566 11.1375 41.1956C11.1375 42.3385 11.4125 43.3605 11.9625 44.2616C12.5125 45.1627 13.2534 45.8687 14.1854 46.3758C15.1173 46.8829 16.141 47.1364 17.2562 47.1364C18.8986 47.1364 20.117 46.8361 20.9076 46.2354V46.8517ZM20.9764 41.1956C20.9764 42.2566 20.6479 43.107 19.9872 43.7389C19.3302 44.3708 18.4632 44.6868 17.3937 44.6907C16.3243 44.6907 15.4611 44.3669 14.8003 43.7272C14.1396 43.0836 13.8111 42.241 13.8111 41.1956C13.8111 40.1502 14.1396 39.3038 14.8003 38.6523C15.4573 38.0009 16.3243 37.6771 17.3937 37.6771C18.4632 37.6771 19.3264 38.0009 19.9872 38.6406C20.6479 39.2842 20.9764 40.1346 20.9764 41.1956Z" fill="#0B1D49"/>
<path d="M41.93 35.8711C42.6672 36.269 43.2401 36.8229 43.6526 37.5328C44.0613 38.2466 44.2675 39.0619 44.2675 39.9786V46.8478H41.6627V40.1697C41.6627 39.3935 41.4411 38.785 40.9981 38.3403C40.555 37.8956 39.963 37.6732 39.2182 37.6732C38.4123 37.6732 37.7171 37.9112 37.1366 38.3871C36.556 38.863 36.2658 39.4871 36.2658 40.2633V46.8478H33.6838V40.1697C33.6838 39.4247 33.4584 38.8318 33.0077 38.3871C32.557 37.9424 31.9689 37.7044 31.2393 37.6732C30.4487 37.7201 29.7536 37.9775 29.1577 38.4456C28.5619 38.9137 28.2601 39.5183 28.2601 40.2633V46.8478H25.6553V35.5356H28.2601V36.0817C28.9744 35.5903 29.9675 35.3211 31.2393 35.2743H31.4723C32.2782 35.2743 33.0192 35.4342 33.6953 35.7502C34.3713 36.0661 34.9251 36.5108 35.3605 37.0803C35.8112 36.5264 36.3956 36.0856 37.1175 35.7619C37.8394 35.4381 38.6109 35.2743 39.4321 35.2743C40.3602 35.2782 41.1929 35.4771 41.93 35.8711Z" fill="#0B1D49"/>
<path fill-rule="evenodd" clip-rule="evenodd" d="M48.4118 42.2644H57.2538C57.4219 41.5662 57.5097 40.9733 57.5174 40.4818C57.5174 39.5768 57.2997 38.7264 56.8643 37.9268C56.4288 37.1271 55.7757 36.4874 54.9087 36.0037C54.0417 35.52 53.0028 35.2782 51.792 35.2782C50.5965 35.2782 49.5347 35.5278 48.6028 36.0271C47.6708 36.5264 46.9451 37.2208 46.4257 38.1062C45.9062 38.9956 45.6465 40.0098 45.6465 41.1488C45.6465 42.3229 45.9177 43.3605 46.46 44.2733C47.0024 45.1822 47.751 45.8882 48.7059 46.3875C49.6607 46.8868 50.7417 47.1364 51.9524 47.1364C52.8691 47.1364 53.7629 46.9531 54.6413 46.5903C55.516 46.2276 56.3104 45.7205 57.0247 45.069L55.3708 43.263C54.2823 44.246 53.1365 44.7375 51.9257 44.7375C51.0243 44.7375 50.268 44.519 49.6569 44.0822C49.042 43.6453 48.6295 43.0407 48.4118 42.2644ZM48.4347 39.9084C48.6371 39.1828 49.0267 38.625 49.5996 38.235C50.1726 37.8488 50.8944 37.6537 51.7615 37.6537C52.6132 37.6537 53.3045 37.8605 53.8316 38.2818C54.3587 38.6991 54.6719 39.2413 54.7636 39.9084H48.4347Z" fill="#0B1D49"/>
<path fill-rule="evenodd" clip-rule="evenodd" d="M67.8873 30.3359V36.3704C66.9859 35.6409 65.8248 35.2782 64.3963 35.2782C63.2504 35.2782 62.2077 35.5278 61.2681 36.0271C60.3285 36.5264 59.5837 37.2285 59.0337 38.1296C58.4837 39.0346 58.2087 40.0566 58.2087 41.1956C58.2087 42.3385 58.4837 43.3605 59.0337 44.2616C59.5837 45.1626 60.3247 45.8687 61.2567 46.3757C62.1886 46.8828 63.2046 47.1364 64.3046 47.1364C65.0341 47.1364 65.7102 47.0272 66.3404 46.8048C66.9668 46.5825 67.513 46.2665 67.9789 45.853V46.8516H70.4921V30.3359H67.8873ZM68.0744 41.1917C68.0744 42.2371 67.7459 43.0796 67.0852 43.7232C66.4244 44.3669 65.5612 44.6867 64.4918 44.6867C63.407 44.6867 62.54 44.363 61.8869 43.7232C61.2338 43.0796 60.9091 42.2371 60.9091 41.1917C60.9091 40.1463 61.2376 39.2998 61.8983 38.6484C62.5553 37.997 63.4223 37.6732 64.4918 37.6732C65.5612 37.6732 66.4244 38.0009 67.0852 38.6484C67.7459 39.2998 68.0744 40.1463 68.0744 41.1917Z" fill="#0B1D49"/>
<path fill-rule="evenodd" clip-rule="evenodd" d="M72.7952 44.285C73.3376 45.1861 74.0862 45.8882 75.0411 46.3875C75.9959 46.8868 77.0692 47.1364 78.2647 47.1364C79.4602 47.1364 80.5373 46.8868 81.4998 46.3875C82.4623 45.8882 83.2186 45.19 83.7686 44.285C84.3186 43.38 84.5936 42.3541 84.5936 41.1956C84.5936 40.0566 84.3186 39.0346 83.7686 38.1296C83.2186 37.2286 82.4623 36.5264 81.4998 36.0271C80.5373 35.5278 79.4602 35.2782 78.2647 35.2782C77.0692 35.2782 75.9959 35.5278 75.0411 36.0271C74.0862 36.5264 73.3376 37.2286 72.7952 38.1296C72.2529 39.0346 71.9817 40.0566 71.9817 41.1956C71.9817 42.3541 72.2529 43.3839 72.7952 44.285ZM81.8932 41.1917C81.8932 42.2371 81.5571 43.0797 80.881 43.7233C80.2088 44.3669 79.3342 44.6868 78.2647 44.6868C77.18 44.6868 76.3091 44.363 75.6484 43.7233C74.9876 43.0797 74.6591 42.2371 74.6591 41.1917C74.6591 40.1463 74.9876 39.2999 75.6484 38.6484C76.3053 37.997 77.18 37.6732 78.2647 37.6732C79.3494 37.6732 80.2241 38.0009 80.8925 38.6484C81.5609 39.2999 81.8932 40.1463 81.8932 41.1917Z" fill="#0B1D49"/>
<path d="M88.3404 46.3758C87.3779 45.8687 86.6254 45.1627 86.0831 44.2616C85.5407 43.3605 85.2695 42.3385 85.2695 41.1956C85.2695 40.0566 85.5445 39.0385 86.0945 38.1413C86.6445 37.2481 87.397 36.5459 88.3518 36.0388C89.3067 35.5317 90.38 35.2782 91.5755 35.2782C92.4769 35.2782 93.3439 35.4498 94.1803 35.7892C95.0168 36.1286 95.7692 36.624 96.4377 37.2754L94.5776 39.058C94.188 38.6289 93.7373 38.2935 93.2178 38.0477C92.6984 37.802 92.1522 37.681 91.5755 37.681C90.4907 37.681 89.6123 38.0048 88.9477 38.6562C88.2793 39.3077 87.947 40.1541 87.947 41.1995C87.947 42.2449 88.2793 43.0875 88.9477 43.7311C89.6161 44.3708 90.4984 44.6946 91.5984 44.6946C92.748 44.6946 93.7793 44.2187 94.6922 43.2669L96.5064 45.0729C95.7922 45.74 95.0168 46.251 94.1803 46.6059C93.3439 46.9609 92.473 47.1403 91.5755 47.1403C90.38 47.1364 89.3029 46.8829 88.3404 46.3758Z" fill="#0B1D49"/>
<path d="M99.4511 46.6839C98.4352 46.3836 97.5872 45.9779 96.9036 45.4708L98.206 43.4268C98.6873 43.774 99.3251 44.0743 100.127 44.3162C100.925 44.5619 101.666 44.6829 102.35 44.6829C103.08 44.6829 103.687 44.5892 104.176 44.3981C104.665 44.207 104.909 43.9066 104.909 43.497C104.909 43.1811 104.691 42.947 104.256 42.7949C103.821 42.6428 103.125 42.4828 102.163 42.3073C101.063 42.1162 100.184 41.9016 99.5352 41.6676C98.882 41.4296 98.3855 41.0981 98.0456 40.669C97.7057 40.2399 97.5338 39.6626 97.5338 38.9332C97.5338 37.6342 98.0379 36.6981 99.0463 36.1286C100.055 35.559 101.258 35.2743 102.652 35.2743C103.488 35.2743 104.336 35.403 105.188 35.6527C106.04 35.9062 106.807 36.2456 107.491 36.6747L106.189 38.6952C105.662 38.3793 105.085 38.1296 104.466 37.9463C103.847 37.763 103.225 37.6732 102.606 37.6732C101.831 37.6732 101.235 37.7786 100.815 37.9931C100.395 38.2076 100.184 38.5041 100.184 38.8825C100.184 39.058 100.249 39.1984 100.383 39.3115C100.513 39.4208 100.738 39.5222 101.059 39.608C101.376 39.6938 101.869 39.7952 102.537 39.9045C103.702 40.1112 104.615 40.3179 105.283 40.5208C105.952 40.7275 106.498 41.0552 106.926 41.5077C107.354 41.9601 107.568 42.596 107.568 43.419C107.568 44.5931 107.09 45.502 106.135 46.1534C105.18 46.8049 103.912 47.1286 102.331 47.1286C101.426 47.1364 100.467 46.9843 99.4511 46.6839Z" fill="#0B1D49"/>
<path fill-rule="evenodd" clip-rule="evenodd" d="M46.8686 25.7955C48.0526 27.0047 49.6263 27.6717 51.303 27.6717C52.9798 27.6717 54.5534 27.0047 55.7374 25.7994L55.7794 25.7565C56.9405 24.5512 57.5784 22.9597 57.5784 21.2667C57.5784 19.5582 56.9253 17.9472 55.7412 16.738L46.3912 7.189C43.9735 4.71984 40.0585 4.69253 37.6064 7.10319L37.5186 7.189C36.3345 8.39823 35.6814 10.0092 35.6814 11.7178C35.6814 13.4263 36.3345 15.0373 37.5186 16.2465L46.8686 25.7955ZM38.8286 11.7178C38.8286 10.8752 39.1457 10.0833 39.7224 9.48263L39.7491 9.45923C40.9675 8.2149 42.9498 8.2149 44.1683 9.45923L53.5183 19.0082C54.1103 19.6128 54.435 20.4125 54.435 21.2667C54.435 22.121 54.1103 22.9207 53.5183 23.5253L53.503 23.5409C52.9148 24.1338 52.1357 24.4614 51.3068 24.4614C50.4704 24.4614 49.6874 24.1299 49.0954 23.5253L39.7453 13.9763C39.1533 13.3717 38.8286 12.572 38.8286 11.7178Z" fill="#51D8DE"/>
<path fill-rule="evenodd" clip-rule="evenodd" d="M46.8954 25.7955C48.1177 27.0438 49.7218 27.6679 51.3298 27.6679C52.9378 27.6679 54.542 27.0438 55.7642 25.7955L70.1483 11.1054C72.5775 8.62062 72.5928 4.58726 70.1865 2.08689L70.1445 2.04398C67.7001 -0.452486 63.7202 -0.452486 61.2757 2.04398L46.8916 16.7341C45.7076 17.9434 45.0544 19.5505 45.0544 21.2629C45.0544 22.9558 45.6923 24.5473 46.8534 25.7526L46.8954 25.7955ZM51.3298 24.4615C50.5048 24.4615 49.7257 24.1338 49.1375 23.5409L49.1184 23.5253C48.5263 22.9207 48.2017 22.121 48.2017 21.2668C48.2017 20.4125 48.5263 19.6129 49.1184 19.0083L63.5025 4.31811C64.7171 3.07768 66.6917 3.07378 67.9101 4.30251L67.9254 4.31811C68.5174 4.92272 68.8421 5.72237 68.8421 6.57663C68.8421 7.43089 68.5174 8.23054 67.9254 8.83516L53.5413 23.5253C52.9493 24.1299 52.1663 24.4615 51.3298 24.4615Z" fill="#6665DD"/>
</svg>
