<svg width="24" height="24" viewBox="0 0 24 24" fill="none" xmlns="http://www.w3.org/2000/svg">
<path d="M22 18.0048C22 18.5544 21.5544 19 21.0048 19H6.99519C6.44556 19 6 18.5544 6 18.0048C6 17.4552 6.44556 17.0096 6.99519 17.0096H21.0048C21.5544 17.0096 22 17.4552 22 18.0048Z" fill="#050C26"/>
<path d="M22 12.0002C22 12.5499 21.5544 12.9954 21.0048 12.9954H10.9952C10.4456 12.9954 10 12.5499 10 12.0002C10 11.4506 10.4456 11.0051 10.9952 11.0051H21.0048C21.5544 11.0051 22 11.4506 22 12.0002Z" fill="#050C26"/>
<path d="M21.0048 6.99039C21.5544 6.99039 22 6.54482 22 5.99519C22 5.44556 21.5544 5 21.0048 5H2.99519C2.44556 5 2 5.44556 2 5.99519C2 6.54482 2.44556 6.99039 2.99519 6.99039H21.0048Z" fill="#050C26"/>
</svg>
