<svg width="42" height="41" viewBox="0 0 42 41" fill="none" xmlns="http://www.w3.org/2000/svg">
<path d="M21 4C11.7082 4 3.87593 9.83179 1.47709 17.7871C1.29857 18.3791 1.20931 18.6751 1.2745 18.8378C1.33511 18.989 1.43918 19.084 1.59525 19.1308C1.7631 19.181 2.10105 19.0447 2.77693 18.7722C3.70104 18.3995 4.72007 18.193 5.79079 18.193C7.49192 18.193 9.06259 18.7143 10.3294 19.5949C10.5437 19.7439 10.6508 19.8184 10.7402 19.8405C10.8309 19.863 10.8902 19.863 10.9808 19.8405C11.0703 19.8184 11.1774 19.7439 11.3917 19.5949C12.6585 18.7143 14.2291 18.193 15.9303 18.193C17.6314 18.193 19.2021 18.7143 20.4689 19.5949C20.6831 19.7439 20.7903 19.8184 20.8797 19.8405C20.9703 19.863 21.0297 19.863 21.1203 19.8405C21.2097 19.8184 21.3169 19.7439 21.5311 19.5949C22.7979 18.7143 24.3686 18.193 26.0697 18.193C27.7709 18.193 29.3415 18.7143 30.6083 19.5949C30.8226 19.7439 30.9297 19.8184 31.0192 19.8405C31.1098 19.863 31.1691 19.863 31.2598 19.8405C31.3492 19.8184 31.4563 19.7439 31.6706 19.5949C32.9374 18.7143 34.5081 18.193 36.2092 18.193C37.2799 18.193 38.299 18.3995 39.2231 18.7722C39.899 19.0447 40.2369 19.181 40.4047 19.1307C40.5608 19.084 40.6649 18.989 40.7255 18.8378C40.7907 18.6751 40.7014 18.3791 40.5229 17.7871C38.1241 9.83179 30.2918 4 21 4ZM21 4V1" stroke="white" stroke-width="2" stroke-linecap="round" stroke-linejoin="round"/>
<path d="M21 20V36.5C21 38.433 22.567 40 24.5 40V40C26.433 40 28 38.433 28 36.5V35" stroke="white" stroke-width="2" stroke-linecap="round" stroke-linejoin="round"/>
</svg>
