<svg width="224" height="146" viewBox="0 0 224 146" fill="none" xmlns="http://www.w3.org/2000/svg">
<g clip-path="url(#clip0)">
<path d="M169.051 33.8118L202.462 30.1013L169.051 48.6536L169.051 33.8118Z" fill="#51D8DE"/>
<path d="M167.195 28.2461L163.483 17.1147L202.462 30.1013L167.195 28.2461Z" fill="#51D8DE"/>
<path d="M209 28.0312L162.814 12.332C162.418 12.1975 162.042 12.5786 162.182 12.9723L166.674 25.6562M209 28.0312L169.227 49.5996C168.894 49.7803 168.488 49.5391 168.488 49.1601V36.9375M209 28.0312L168.488 32.1875M209 28.0312L166.674 25.6562M168.488 32.1875L157 38.7188M168.488 32.1875V36.9375M166.674 25.6562L157 38.7188M157 38.7188L168.488 36.9375" stroke="#0B1D49" stroke-width="2" stroke-linecap="round"/>
<path fill-rule="evenodd" clip-rule="evenodd" d="M5.12691 81.884C-1.66867 81.884 -7.17758 76.3777 -7.17758 69.5854C-7.17758 62.7931 -1.66867 57.2869 5.12691 57.2869C11.9225 57.2869 17.4314 62.7931 17.4314 69.5854C17.4314 76.3777 11.9225 81.884 5.12691 81.884Z" fill="#51D8DE"/>
<path d="M145.5 43C109.5 60.5 45.4999 19 52.9999 37.5C60.4999 56 97.4998 44.5169 97.4998 27C94.9999 4.5 17.4998 -8.99999 -1.9375 22.2147C-19.9119 51.0801 15.8066 69.8211 26.4356 104.549C37.0646 139.277 -13.0002 135.5 -13.0002 135.5" stroke="#0B1D49" stroke-width="2" stroke-linecap="round" stroke-dasharray="5 5"/>
</g>
<defs>
<clipPath id="clip0">
<rect width="224" height="146" fill="white" transform="matrix(-1 0 0 1 224 0)"/>
</clipPath>
</defs>
</svg>
