<svg xmlns="http://www.w3.org/2000/svg" width="41.342" height="20.471" viewBox="0 0 41.342 20.471">
  <g id="Gruppe_1120" data-name="Gruppe 1120" transform="translate(135.274 544.482)">
    <path id="Pfad_5767" data-name="Pfad 5767" d="M-116.891-537.881v-5.756a.469.469,0,0,1,.469-.469h28.056a.469.469,0,0,1,.469.469v18.628a.469.469,0,0,1-.469.469h-28.056a.469.469,0,0,1-.469-.469v-8.38" transform="translate(-6.476)" fill="none" stroke="#0d2330" stroke-linecap="round" stroke-width="0.75"/>
    <path id="Pfad_5768" data-name="Pfad 5768" d="M-116.648-543.864l14.586,12.9,11.206-9.338" transform="translate(-6.563 -0.088)" fill="none" stroke="#0d2330" stroke-linecap="round" stroke-linejoin="round" stroke-width="0.75"/>
    <line id="Linie_222" data-name="Linie 222" x1="10.88" y2="9.397" transform="translate(-123.189 -534.116)" fill="none" stroke="#0d2330" stroke-linecap="round" stroke-width="0.75"/>
    <path id="Pfad_5769" data-name="Pfad 5769" d="M-93.976-533.691" transform="translate(-14.716 -3.746)" fill="none" stroke="#0d2330" stroke-linecap="round" stroke-width="0.75"/>
    <line id="Linie_223" data-name="Linie 223" x1="10.317" y1="9.516" transform="translate(-104.779 -534.057)" fill="none" stroke="#0d2330" stroke-linecap="round" stroke-width="0.75"/>
    <line id="Linie_224" data-name="Linie 224" x2="9.012" transform="translate(-134.899 -540.401)" fill="none" stroke="#0d2330" stroke-linecap="round" stroke-width="0.75"/>
    <line id="Linie_225" data-name="Linie 225" x2="15.653" transform="translate(-134.544 -535.302)" fill="none" stroke="#0d2330" stroke-linecap="round" stroke-width="0.75"/>
    <line id="Linie_226" data-name="Linie 226" x2="6.996" transform="translate(-134.899 -526.645)" fill="none" stroke="#0d2330" stroke-linecap="round" stroke-width="0.75"/>
    <line id="Linie_227" data-name="Linie 227" x2="5.455" transform="translate(-128.97 -530.321)" fill="none" stroke="#0d2330" stroke-linecap="round" stroke-width="0.75"/>
  </g>
</svg>
