<svg xmlns="http://www.w3.org/2000/svg" width="30" height="30" viewBox="0 0 30 30">
  <g id="Gruppe_1022" data-name="Gruppe 1022" transform="translate(-961.795 -589.425)">
    <g id="Ashley_Richadson" data-name="Ashley Richadson" transform="translate(968.697 595.745)" style="mix-blend-mode: normal;isolation: isolate">
      <g id="Gruppe_1117" data-name="Gruppe 1117" transform="translate(0 0)" style="mix-blend-mode: normal;isolation: isolate">
        <path id="Pfad_5760" data-name="Pfad 5760" d="M28.98,35.119v-3.6a2.441,2.441,0,0,1,.2-.993,2.552,2.552,0,0,1,.571-.816,2.638,2.638,0,0,1,.87-.558,2.965,2.965,0,0,1,1.106-.2,2.846,2.846,0,0,1,1.14.223,2.709,2.709,0,0,1,.87.593,2.634,2.634,0,0,1,.559.87,2.832,2.832,0,0,1,.2,1.06v3.6a2.331,2.331,0,0,1-.213.995,2.722,2.722,0,0,1-.58.814,2.624,2.624,0,0,1-.871.558,2.925,2.925,0,0,1-1.106.2,2.834,2.834,0,0,1-1.139-.225,2.688,2.688,0,0,1-.871-.591,2.507,2.507,0,0,1-.548-.873A2.966,2.966,0,0,1,28.98,35.119ZM34.028,31.7a2.569,2.569,0,0,0-.156-.892,2.071,2.071,0,0,0-.458-.738,2.289,2.289,0,0,0-.726-.5,2.332,2.332,0,0,0-.961-.19,2.27,2.27,0,0,0-.938.19,2.3,2.3,0,0,0-.727.5,2.088,2.088,0,0,0-.458.738,2.569,2.569,0,0,0-.156.892v3.419a2.6,2.6,0,0,0,.156.894,2.126,2.126,0,0,0,.458.737,2.323,2.323,0,0,0,.727.5,2.27,2.27,0,0,0,.938.19,2.288,2.288,0,0,0,1.686-.692,2.108,2.108,0,0,0,.458-.737,2.6,2.6,0,0,0,.156-.894Zm7.886-3.774.38.223L32.531,44.97l-.38-.224Zm2.993,14.385a2.349,2.349,0,0,1-.212.995,2.729,2.729,0,0,1-.581.816,2.671,2.671,0,0,1-.871.559,2.971,2.971,0,0,1-1.105.2A2.837,2.837,0,0,1,41,44.658a2.7,2.7,0,0,1-.87-.593,2.5,2.5,0,0,1-.548-.871,2.985,2.985,0,0,1-.19-1.062v-3.6a2.446,2.446,0,0,1,.2-.995,2.589,2.589,0,0,1,.569-.816,2.687,2.687,0,0,1,.872-.558,2.962,2.962,0,0,1,1.106-.2,2.8,2.8,0,0,1,1.139.225,2.6,2.6,0,0,1,1.43,1.462,2.835,2.835,0,0,1,.2,1.063Zm-5.048-.179a2.557,2.557,0,0,0,.156.894,2.085,2.085,0,0,0,.458.737,2.289,2.289,0,0,0,1.664.692,2.327,2.327,0,0,0,.96-.19,2.274,2.274,0,0,0,.726-.5,2.109,2.109,0,0,0,.458-.737,2.584,2.584,0,0,0,.156-.894V38.716a2.581,2.581,0,0,0-.156-.894,2.1,2.1,0,0,0-.458-.737,2.287,2.287,0,0,0-1.686-.692,2.267,2.267,0,0,0-.938.19,2.312,2.312,0,0,0-.726.5,2.081,2.081,0,0,0-.458.737,2.553,2.553,0,0,0-.156.894Z" transform="translate(-28.98 -27.926)" fill="#12232f" stroke="#0d2330" stroke-width="0.5"/>
      </g>
    </g>
    <g id="Ellipse_191" data-name="Ellipse 191" transform="translate(961.795 589.425)" fill="none" stroke="#0d2330" stroke-width="0.75">
      <circle cx="15" cy="15" r="15" stroke="none"/>
      <circle cx="15" cy="15" r="14.625" fill="none"/>
    </g>
  </g>
</svg>
