<svg xmlns="http://www.w3.org/2000/svg" width="40.055" height="36.08" viewBox="0 0 40.055 36.08">
  <g id="Gruppe_1121" data-name="Gruppe 1121" transform="translate(137.9 -19.613)">
    <path id="Pfad_5770" data-name="Pfad 5770" d="M-130.028,35.716l-1.436-3.983a1.566,1.566,0,0,1,.908-2.021l.007,0,26.508-9.6a1.567,1.567,0,0,1,2.021.908l0,.006,5.68,15.67a1.568,1.568,0,0,1-.908,2.022l-.006,0-6.855,2.481m-26.051-6.007,29.315-10.708m-5.419,6.4,2.938-1.045" transform="translate(-2.063)" fill="none" stroke="#0d2330" stroke-linecap="round" stroke-linejoin="round" stroke-width="0.779"/>
    <rect id="Rechteck_1832" data-name="Rechteck 1832" width="31.339" height="19.587" rx="2.4" transform="translate(-137.51 35.716)" fill="none" stroke="#0d2330" stroke-linecap="round" stroke-linejoin="round" stroke-width="0.779"/>
    <path id="Pfad_5771" data-name="Pfad 5771" d="M-129.51,55.983h9.141m7.835-3.917h3.917m-20.893,9.141h1.306m5.223,0h1.306m5.223,0h1.306m5.223,0h1.306" transform="translate(-2.777 -11.127)" fill="none" stroke="#0d2330" stroke-linecap="round" stroke-linejoin="round" stroke-width="0.779"/>
  </g>
</svg>
