<svg xmlns="http://www.w3.org/2000/svg" width="34.227" height="34.643" viewBox="0 0 34.227 34.643">
  <g id="Gruppe_1118" data-name="Gruppe 1118" transform="translate(-13.227 -19.802)">
    <path id="Pfad_5761" data-name="Pfad 5761" d="M43.937,35.352a15.16,15.16,0,1,0-15.16,15.16" transform="translate(0 0)" fill="none" stroke="#0d2330" stroke-linecap="round" stroke-linejoin="round" stroke-width="0.779"/>
    <circle id="Ellipse_189" data-name="Ellipse 189" cx="2.53" cy="2.53" r="2.53" transform="translate(32.689 44.792)" fill="none" stroke="#0d2330" stroke-linecap="round" stroke-linejoin="round" stroke-width="0.75"/>
    <path id="Pfad_5762" data-name="Pfad 5762" d="M54.571,66.163H53.165a.422.422,0,0,0-.422.422v1.1a5.305,5.305,0,0,0-1.771.736l-.783-.783a.421.421,0,0,0-.6,0l-.993.995a.422.422,0,0,0,0,.6l.783.781a5.308,5.308,0,0,0-.736,1.771h-1.1a.422.422,0,0,0-.422.422v1.406a.422.422,0,0,0,.422.422h1.1a5.308,5.308,0,0,0,.736,1.771l-.783.782a.422.422,0,0,0,0,.6l.995.994a.421.421,0,0,0,.6,0l.782-.783a5.306,5.306,0,0,0,1.771.736v1.1a.422.422,0,0,0,.422.422h1.406a.422.422,0,0,0,.422-.422h0v-1.1a5.3,5.3,0,0,0,1.771-.736l.783.783a.421.421,0,0,0,.6,0l.993-.995a.422.422,0,0,0,0-.6l-.783-.781a5.3,5.3,0,0,0,.735-1.771h1.1a.422.422,0,0,0,.422-.422v-.7" transform="translate(-18.649 -25.588)" fill="none" stroke="#0d2330" stroke-linecap="round" stroke-linejoin="round" stroke-width="0.75"/>
    <g id="Gruppe_1118-2" data-name="Gruppe 1118" transform="translate(37.52 36.336)">
      <circle id="Ellipse_190" data-name="Ellipse 190" cx="1.687" cy="1.687" r="1.687" transform="translate(3.093 3.093)" fill="none" stroke="#0d2330" stroke-linecap="round" stroke-linejoin="round" stroke-width="0.75"/>
      <path id="Pfad_5763" data-name="Pfad 5763" d="M76.664,60.538h-.8a3.628,3.628,0,0,0-.47-1.113l.563-.562a.422.422,0,0,0,0-.6l-.531-.529a.422.422,0,0,0-.6,0l-.562.562a3.635,3.635,0,0,0-1.112-.47v-.8a.422.422,0,0,0-.422-.422h-.844a.422.422,0,0,0-.422.422v.8a3.628,3.628,0,0,0-1.113.47l-.562-.563a.422.422,0,0,0-.6,0l-.529.531a.422.422,0,0,0,0,.6l.562.562a3.635,3.635,0,0,0-.47,1.112h-.8a.422.422,0,0,0-.422.422V61.8a.422.422,0,0,0,.422.422h.8a3.628,3.628,0,0,0,.47,1.113l-.563.562a.422.422,0,0,0,0,.6l.53.53a.422.422,0,0,0,.6,0l.562-.563a3.628,3.628,0,0,0,1.113.47v.8a.422.422,0,0,0,.422.422h.844a.422.422,0,0,0,.422-.422v-.8a3.628,3.628,0,0,0,1.113-.47l.562.563a.422.422,0,0,0,.6,0l.53-.53a.422.422,0,0,0,0-.6l-.563-.562a3.628,3.628,0,0,0,.47-1.113h.8a.422.422,0,0,0,.422-.422V60.96A.422.422,0,0,0,76.664,60.538Z" transform="translate(-67.527 -56.602)" fill="none" stroke="#0d2330" stroke-linecap="round" stroke-linejoin="round" stroke-width="0.75"/>
    </g>
    <path id="Pfad_5764" data-name="Pfad 5764" d="M47.871,25.858V38.491L55.839,34.6" transform="translate(-19.066 -3.154)" fill="none" stroke="#0d2330" stroke-linecap="round" stroke-linejoin="round" stroke-width="0.779"/>
  </g>
</svg>
