<svg xmlns="http://www.w3.org/2000/svg"  viewBox="0 0 1451.608 703.481" preserveAspectRatio="none">
  <path d="M15885.983,14827.567h-.077c-5.444,0-10.942-.022-16.343-.066-16.819-.135-34.167-.637-51.563-1.493-16.669-.819-33.973-1.992-51.431-3.486-32.4-2.771-66.213-6.687-103.367-11.968-69.433-9.87-140.166-23.059-215.052-37.021l-.012,0c-76.516-14.266-155.637-29.018-241.93-41.894-46.707-6.969-90.734-12.682-134.6-17.465-23.886-2.6-47.953-4.946-71.533-6.961-24.829-2.121-49.951-3.951-74.669-5.437v-577.687c23.573,6.88,62.729,13.029,116.379,18.275,32.878,3.215,65.747,4.777,100.487,4.777,25.083,0,51.77-.83,81.585-2.538,26.438-1.516,52.986-3.576,78.659-5.57l.07,0,.574-.045,1.563-.119.1-.009.06,0c24.733-1.92,52.768-4.1,80.768-5.676,30.771-1.744,58.546-2.593,84.911-2.593a1129.069,1129.069,0,0,1,130.647,7.4c14.583,1.681,30.526,4,47.389,6.881,16,2.735,33.44,6.088,51.843,9.965,33.619,7.083,70.784,15.965,113.619,27.153,79.258,20.7,162.6,45.31,243.207,69.109l.23.068.065.02c65.459,19.324,127.287,37.576,182.207,52.343,29.5,7.929,54.395,14.153,76.109,19.029,24.289,5.455,44.287,9.17,61.138,11.356v394.353l0,51.01c-26.384,3.643-53.067,7.545-78.872,11.318l-.079.012c-61.872,9.049-125.852,18.406-193.325,25.36-36.345,3.746-70.625,6.5-104.8,8.411-18.555,1.039-37.28,1.833-55.657,2.361-19.3.556-38.913.837-58.295.837Z" transform="translate(-14925.407 -14124.086)" fill="#caeee8"/>
</svg>
