<svg id="Компонент_282_23" data-name="Компонент 282 – 23" xmlns="http://www.w3.org/2000/svg" width="46.725" height="43.317" viewBox="0 0 46.725 43.317">
  <path id="Pfad_5548" data-name="Pfad 5548" d="M3567.484-432.859c3.406-1.087,6.813-2.716,8.857-5.411,2.616-3.449,2.472-7.859,2.1-11.9a40.547,40.547,0,0,0-2.47-11.977,17.274,17.274,0,0,0-8.317-9.165c-3.714-1.762-8.142-2-12.428-2.079-3.99-.069-8.142.008-11.822,1.564a18.033,18.033,0,0,0-9.505,10.4c-1.626,4.33-1.848,8.91-1.941,13.412-.11,5.3-.41,16.068,7.132,17.242A66.337,66.337,0,0,0,3567.484-432.859Z" transform="translate(-3531.921 473.406)" fill="#0d2330" style="isolation: isolate"/>
  <g id="Сгруппировать_1644" data-name="Сгруппировать 1644" transform="translate(452.519 -960.459) rotate(-90)">
    <path id="Контур_5742" data-name="Контур 5742" d="M-970.75-426.823h-22.735" transform="translate(0 -2.333)" fill="none" stroke="#fff" stroke-linecap="round" stroke-linejoin="round" stroke-width="1.5"/>
    <path id="Контур_5743" data-name="Контур 5743" d="M-967.277-424.219l4.937-4.938-4.937-4.937" transform="translate(-8.41)" fill="none" stroke="#fff" stroke-linecap="round" stroke-linejoin="round" stroke-width="1.5"/>
  </g>
</svg>
