<svg xmlns="http://www.w3.org/2000/svg" width="23.656" height="22.449" viewBox="0 0 23.656 22.449">
  <g id="CART" transform="translate(0.815 0.815)">
    <g id="Group_1437" data-name="Group 1437" opacity="0">
      <path id="Path_5876" data-name="Path 5876" d="M537.873,149.756H525.23V138.48a2.786,2.786,0,0,1,2.57-2.959h7.5a2.785,2.785,0,0,1,2.57,2.959v11.276Z" transform="translate(-521.217 -133.521)" fill="#fff" stroke="#0d2330" stroke-linecap="round" stroke-miterlimit="10" stroke-width="1.611"/>
      <text id="_15" data-name="15" transform="translate(6.514 0.25) rotate(8)" fill="#0d2330" font-size="9" font-family="Helvetica" letter-spacing="-0.015em"><tspan x="0" y="7">15</tspan></text>
    </g>
    <path id="Subtraction_20" data-name="Subtraction 20" d="M13138.421,17970.34h-15.47v-.1a3.355,3.355,0,0,1,3.146-3.523h9.177a3.355,3.355,0,0,1,3.146,3.523v.1Z" transform="translate(-13119.975 -17966.715)" fill="none" stroke="#0d2330" stroke-linecap="round" stroke-miterlimit="10" stroke-width="1.611" opacity="0.002"/>
    <rect id="Rectangle_447" data-name="Rectangle 447" width="22.025" height="20.818" rx="1.445" fill="none" stroke="#0d2330" stroke-miterlimit="10" stroke-width="1.631"/>
    <path id="Path_720" data-name="Path 720" d="M541.14,143.747a6.788,6.788,0,0,1-13.577,0" transform="translate(-523.641 -140.428)" fill="none" stroke="#0d2330" stroke-linecap="round" stroke-miterlimit="10" stroke-width="1.631"/>
  </g>
</svg>
