<svg xmlns="http://www.w3.org/2000/svg" width="44.758" height="47.618" viewBox="0 0 44.758 47.618">
  <g id="Component_202_2" data-name="Component 202 – 2" transform="translate(0.392)">
    <path id="Path_5772" data-name="Path 5772" d="M709-85.555c0,12.7-11.23,22.824-24.5,21.39A21.827,21.827,0,0,1,665.151-83.1a21.71,21.71,0,0,1,21.857-23.977l.155,2.185a3.094,3.094,0,0,0,1.409,2.443,1.932,1.932,0,0,0,.858.3c1.224.1,4.35-.22,4.35,2.176s-.42,3.783.676,4.982,3.672,1.765,4.574,2.773.307,3.916,1.322,5.234C702.51-84.18,709-85.555,709-85.555Z" transform="translate(-665.012 111.255)" fill="none" stroke="#0d2330" stroke-linecap="round" stroke-linejoin="round" stroke-width="0.75"/>
    <ellipse id="Ellipse_204" data-name="Ellipse 204" cx="2.345" cy="2.295" rx="2.345" ry="2.295" transform="translate(14.926 12.577)" fill="none" stroke="#0d2330" stroke-linecap="round" stroke-linejoin="round" stroke-width="0.75"/>
    <ellipse id="Ellipse_205" data-name="Ellipse 205" cx="2.345" cy="2.295" rx="2.345" ry="2.295" transform="translate(32.774 6.461)" fill="none" stroke="#0d2330" stroke-linecap="round" stroke-linejoin="round" stroke-width="0.75"/>
    <ellipse id="Ellipse_206" data-name="Ellipse 206" cx="2.345" cy="2.295" rx="2.345" ry="2.295" transform="translate(17.019 31.276)" fill="none" stroke="#0d2330" stroke-linecap="round" stroke-linejoin="round" stroke-width="0.75"/>
    <circle id="Ellipse_207" data-name="Ellipse 207" cx="3.482" cy="3.482" r="3.482" transform="translate(8.491 20.316)" fill="none" stroke="#0d2330" stroke-linecap="round" stroke-linejoin="round" stroke-width="0.75"/>
    <ellipse id="Ellipse_208" data-name="Ellipse 208" cx="2.837" cy="2.777" rx="2.837" ry="2.777" transform="translate(27.063 26.915)" fill="none" stroke="#0d2330" stroke-linecap="round" stroke-linejoin="round" stroke-width="0.75"/>
    <circle id="Ellipse_209" data-name="Ellipse 209" cx="1.19" cy="1.19" r="1.19" transform="translate(21.044 23.551)" fill="#0d2330"/>
    <ellipse id="Ellipse_210" data-name="Ellipse 210" cx="0.698" cy="0.683" rx="0.698" ry="0.683" transform="translate(40.578 17.542)" fill="#0d2330"/>
    <circle id="Ellipse_214" data-name="Ellipse 214" cx="0.857" cy="0.857" r="0.857" transform="translate(42.277)" fill="#0d2330"/>
    <ellipse id="Ellipse_211" data-name="Ellipse 211" cx="1.221" cy="1.195" rx="1.221" ry="1.195" transform="translate(8.787 15.198)" fill="#0d2330"/>
    <ellipse id="Ellipse_212" data-name="Ellipse 212" cx="1.221" cy="1.195" rx="1.221" ry="1.195" transform="translate(5.922 30.327)" fill="#0d2330"/>
    <circle id="Ellipse_213" data-name="Ellipse 213" cx="1.499" cy="1.499" r="1.499" transform="translate(22.895 40.661)" fill="#0d2330"/>
    <circle id="Ellipse_215" data-name="Ellipse 215" cx="0.499" cy="0.499" r="0.499" transform="translate(22.701 16.322)" fill="#0d2330"/>
  </g>
</svg>
