<svg id="Facebook" xmlns="http://www.w3.org/2000/svg" width="34.059" height="34.06" viewBox="0 0 34.059 34.06">
  <path id="Pfad_43" data-name="Pfad 43" d="M455.282,550.944q-.213.035-.427.064.215-.029.427-.064Zm0,0" transform="translate(-435.508 -517.106)" fill="#ffffff"/>
  <path id="Pfad_44" data-name="Pfad 44" d="M463.543,550.069l-.2.036.2-.036Zm0,0" transform="translate(-443.428 -516.289)" fill="#ffffff"/>
  <path id="Pfad_45" data-name="Pfad 45" d="M442.11,552.616q-.249.028-.5.049.251-.021.5-.049Zm0,0" transform="translate(-423.143 -518.667)" fill="#ffffff"/>
  <path id="Pfad_46" data-name="Pfad 46" d="M450.685,552.014l-.24.03.24-.03Zm0,0" transform="translate(-431.391 -518.105)" fill="#ffffff"/>
  <path id="Pfad_47" data-name="Pfad 47" d="M470.844,548.686l-.18.038.18-.038Zm0,0" transform="translate(-450.264 -514.999)" fill="#ffffff"/>
  <path id="Pfad_48" data-name="Pfad 48" d="M488.629,544.389l-.145.04.145-.04Zm0,0" transform="translate(-466.898 -510.987)" fill="#ffffff"/>
  <path id="Pfad_49" data-name="Pfad 49" d="M483.217,545.819l-.158.041.158-.041Zm0,0" transform="translate(-461.834 -512.322)" fill="#ffffff"/>
  <path id="Pfad_50" data-name="Pfad 50" d="M476.234,547.53l-.168.038.168-.038Zm0,0" transform="translate(-455.307 -513.92)" fill="#ffffff"/>
  <path id="Pfad_51" data-name="Pfad 51" d="M437.749,553.366l-.269.02.269-.02Zm0,0" transform="translate(-419.287 -519.367)" fill="#ffffff"/>
  <path id="Pfad_52" data-name="Pfad 52" d="M198.059,59.306a17.03,17.03,0,1,0-17.03,17.03c.1,0,.2,0,.3,0V63.075H177.67V58.811h3.659V55.673c0-3.639,2.222-5.62,5.468-5.62a30.1,30.1,0,0,1,3.28.168v3.8h-2.238c-1.766,0-2.108.839-2.108,2.071v2.716h4.223l-.55,4.264H185.73v12.6a17.039,17.039,0,0,0,12.329-16.372Zm0,0" transform="translate(-164 -42.276)" fill="#ffffff"/>
  <path id="Pfad_53" data-name="Pfad 53" d="M429.425,553.706c-.177.011-.355.021-.534.026.178-.006.357-.015.534-.026Zm0,0" transform="translate(-411.27 -519.685)" fill="#ffffff"/>
  <path id="Pfad_54" data-name="Pfad 54" d="M424.787,554.112l-.283.007.283-.007Zm0,0" transform="translate(-407.176 -520.063)" fill="#ffffff"/>
</svg>
