<svg xmlns="http://www.w3.org/2000/svg" width="51.852" height="44.021" viewBox="0 0 51.852 44.021">
  <g id="Komponente_212_5" data-name="Komponente 212 – 5" transform="translate(1.37 0.375)">
    <rect id="Rechteck_1812" data-name="Rechteck 1812" width="11.546" height="2.795" rx="1.398" transform="translate(10.565)" fill="none" stroke="#0d2330" stroke-linecap="round" stroke-linejoin="round" stroke-width="0.75"/>
    <rect id="Rechteck_1813" data-name="Rechteck 1813" width="11.546" height="2.795" rx="1.398" transform="translate(28.72 2.796)" fill="none" stroke="#0d2330" stroke-linecap="round" stroke-linejoin="round" stroke-width="0.75"/>
    <path id="Pfad_5744" data-name="Pfad 5744" d="M206.6,34.92l.132,15.216-7.361,18.853c-1.074,2.829.688,6.076,3.587,6.325.124.01.25.016.377.016h14.7c.126,0,.251-.006.374-.016,2.9-.246,4.665-3.5,3.585-6.332L214.9,50.136l-.132-15.216" transform="translate(-194.343 -32.156)" fill="none" stroke="#0d2330" stroke-linecap="round" stroke-linejoin="round" stroke-width="0.75"/>
    <path id="Pfad_5745" data-name="Pfad 5745" d="M215.929,34.953" transform="translate(-198.277 -32.164)" fill="none" stroke="#0d2330" stroke-linecap="round" stroke-linejoin="round" stroke-width="0.75"/>
    <path id="Pfad_5746" data-name="Pfad 5746" d="M204.939,71.834l-2.164,5.543a1.9,1.9,0,0,0,.154,1.611,1.424,1.424,0,0,0,1.094.728c.052,0,.1.006.151.006h14.7c.048,0,.1,0,.144-.006a1.425,1.425,0,0,0,1.1-.728,1.909,1.909,0,0,0,.143-1.64l-1.965-5.222" transform="translate(-195.185 -39.45)" fill="none" stroke="#0d2330" stroke-linecap="round" stroke-linejoin="round" stroke-width="0.75"/>
    <path id="Pfad_5747" data-name="Pfad 5747" d="M212.5,34.888" transform="translate(-197.479 -32.15)" fill="none" stroke="#0d2330" stroke-linecap="round" stroke-linejoin="round" stroke-width="0.75"/>
    <path id="Pfad_5748" data-name="Pfad 5748" d="M205.342,72.012c1.659,0,1.659,1.16,3.318,1.16s1.661-1.16,3.321-1.16,1.661,1.16,3.323,1.16,1.65-.843,3.311-.843" transform="translate(-195.559 -39.625)" fill="none" stroke="#0d2330" stroke-linecap="round" stroke-linejoin="round" stroke-width="0.75"/>
    <path id="Pfad_5749" data-name="Pfad 5749" d="M226.817,62.5c1.557.284,1.8,1.456,3.784,1.456,2.261,0,2.261-1.519,4.522-1.519s2.266,1.519,4.526,1.519c2.022,0,2.228-.881,3.857-1.073" transform="translate(-200.816 -37.593)" fill="none" stroke="#0d2330" stroke-linecap="round" stroke-linejoin="round" stroke-width="0.75"/>
    <ellipse id="Ellipse_183" data-name="Ellipse 183" cx="0.516" cy="0.54" rx="0.516" ry="0.54" transform="translate(21.305 35.39)" fill="#0d2330"/>
    <ellipse id="Ellipse_184" data-name="Ellipse 184" cx="0.388" cy="0.406" rx="0.388" ry="0.406" transform="translate(18.882 37.558)" fill="none" stroke="#0d2330" stroke-linecap="round" stroke-linejoin="round" stroke-width="0.75"/>
    <ellipse id="Ellipse_185" data-name="Ellipse 185" cx="0.546" cy="0.572" rx="0.546" ry="0.572" transform="translate(10.619 35.199)" fill="#0d2330"/>
    <ellipse id="Ellipse_186" data-name="Ellipse 186" cx="0.516" cy="0.54" rx="0.516" ry="0.54" transform="translate(40.037 32.881)" fill="none" stroke="#0d2330" stroke-linecap="round" stroke-linejoin="round" stroke-width="0.75"/>
    <ellipse id="Ellipse_187" data-name="Ellipse 187" cx="0.388" cy="0.406" rx="0.388" ry="0.406" transform="translate(37.615 35.047)" fill="none" stroke="#0d2330" stroke-linecap="round" stroke-linejoin="round" stroke-width="0.75"/>
    <ellipse id="Ellipse_188" data-name="Ellipse 188" cx="0.546" cy="0.572" rx="0.546" ry="0.572" transform="translate(29.35 32.69)" fill="#0d2330"/>
    <ellipse id="Ellipse_217" data-name="Ellipse 217" cx="0.546" cy="0.572" rx="0.546" ry="0.572" transform="translate(33.799 35.047)" fill="#0d2330"/>
    <ellipse id="Ellipse_216" data-name="Ellipse 216" cx="0.546" cy="0.572" rx="0.546" ry="0.572" transform="translate(38.611 28.342)" fill="#0d2330"/>
    <path id="Pfad_5750" data-name="Pfad 5750" d="M240.416,53.963a13.019,13.019,0,0,1,8.073,12.2c0,7.195-5.574,13.028-12.444,13.028a11.915,11.915,0,0,1-4.986-1.091" transform="translate(-201.804 -35.918)" fill="none" stroke="#0d2330" stroke-linecap="round" stroke-linejoin="round" stroke-width="0.75"/>
    <path id="Pfad_5751" data-name="Pfad 5751" d="M224.931,57.938a12.448,12.448,0,0,1,5.8-4.192" transform="translate(-200.376 -35.876)" fill="none" stroke="#0d2330" stroke-linecap="round" stroke-linejoin="round" stroke-width="0.75"/>
    <path id="Pfad_5752" data-name="Pfad 5752" d="M221.326,69.164" transform="translate(-199.535 -38.922)" fill="none" stroke="#0d2330" stroke-linecap="round" stroke-linejoin="round" stroke-width="0.75"/>
    <path id="Pfad_5753" data-name="Pfad 5753" d="M244.627,62.994a10.429,10.429,0,0,1,1.235,4.951,9.917,9.917,0,0,1-9.685,10.134,9.313,9.313,0,0,1-4.548-1.183" transform="translate(-201.938 -37.702)" fill="none" stroke="#0d2330" stroke-linecap="round" stroke-linejoin="round" stroke-width="0.75"/>
    <line id="Linie_215" data-name="Linie 215" y1="12.453" transform="translate(38.611 5.59)" fill="none" stroke="#0d2330" stroke-linecap="round" stroke-linejoin="round" stroke-width="0.75"/>
    <line id="Linie_216" data-name="Linie 216" y1="12.28" transform="translate(30.35 5.59)" fill="none" stroke="#0d2330" stroke-linecap="round" stroke-linejoin="round" stroke-width="0.75"/>
    <path id="Pfad_5897" data-name="Pfad 5897" d="M0,31,49.111,1.82" transform="translate(0 5.473)" fill="none" stroke="#0d2330" stroke-linecap="round" stroke-width="2"/>
  </g>
</svg>
