<svg xmlns="http://www.w3.org/2000/svg" width="935.604" height="846.538" viewBox="0 0 935.604 846.538">
  <path id="Path_5549" data-name="Path 5549" d="M435.006,741.263c43.488-13.2,87.464-35.949,115.32-79.776,35.659-56.11,37.655-133.88,36.481-205.554-1.182-72.342-4.073-145.506-20.54-214.863S518.38,105.642,470.253,65.523c-44.89-37.423-99.994-49.364-153.484-58.1C266.989-.708,215.04-6.564,167.727,14.429,108.038,40.909,64.06,107.565,40.01,180.868S9.253,334.326,4.2,413.313c-5.946,93.073-18.966,281.781,74.25,315.511C187.311,768.216,325.094,774.617,435.006,741.263Z" transform="translate(238.771 846.538) rotate(-114)" fill="#f7e690" opacity="0.652"/>
</svg>
