<svg xmlns="http://www.w3.org/2000/svg" width="155.626" height="4.135" viewBox="0 0 155.626 4.135">
  <g id="Group_1358" data-name="Group 1358" transform="translate(12983.855 -9570.463)">
    <g id="Group_1352" data-name="Group 1352" transform="translate(-12983.855 9570.963)">
      <path id="Path_5737" data-name="Path 5737" d="M-749.213-252.266c3.264,0,3.264,3.135,6.528,3.135s3.264-3.135,6.53-3.135,3.263,3.135,6.526,3.135,3.265-3.135,6.531-3.135,3.268,3.135,6.536,3.135,3.268-3.135,6.535-3.135" transform="translate(749.213 252.266)" fill="none" stroke="#fff" stroke-miterlimit="10" stroke-width="1"/>
      <path id="Path_5738" data-name="Path 5738" d="M-706.912-252.266c3.264,0,3.264,3.135,6.528,3.135s3.265-3.135,6.53-3.135,3.263,3.135,6.526,3.135,3.265-3.135,6.531-3.135,3.268,3.135,6.536,3.135,3.268-3.135,6.536-3.135" transform="translate(745.711 252.266)" fill="none" stroke="#fff" stroke-miterlimit="10" stroke-width="1"/>
    </g>
    <g id="Group_1353" data-name="Group 1353" transform="translate(-12919.171 9570.963)">
      <path id="Path_5737-2" data-name="Path 5737" d="M-749.213-252.266c3.264,0,3.264,3.135,6.528,3.135s3.264-3.135,6.53-3.135,3.263,3.135,6.526,3.135,3.265-3.135,6.531-3.135,3.268,3.135,6.536,3.135,3.268-3.135,6.535-3.135" transform="translate(749.213 252.266)" fill="none" stroke="#fff" stroke-miterlimit="10" stroke-width="1"/>
      <path id="Path_5738-2" data-name="Path 5738" d="M-706.912-252.266c3.264,0,3.264,3.135,6.528,3.135s3.265-3.135,6.53-3.135,3.263,3.135,6.526,3.135,3.265-3.135,6.531-3.135,3.268,3.135,6.536,3.135,3.268-3.135,6.536-3.135" transform="translate(745.711 252.266)" fill="none" stroke="#fff" stroke-miterlimit="10" stroke-width="1"/>
    </g>
    <g id="Group_1354" data-name="Group 1354" transform="translate(-12854.345 9570.963)">
      <path id="Path_5737-3" data-name="Path 5737" d="M-749.213-252.266c3.264,0,3.264,3.135,6.528,3.135s3.264-3.135,6.53-3.135,3.263,3.135,6.526,3.135,3.265-3.135,6.531-3.135" transform="translate(749.213 252.266)" fill="none" stroke="#fff" stroke-miterlimit="10" stroke-width="1"/>
    </g>
  </g>
</svg>
