<svg id="instagram" xmlns="http://www.w3.org/2000/svg" width="34.059" height="34.06" viewBox="0 0 34.059 34.06">
  <path id="Pfad_58" data-name="Pfad 58" d="M378.794,253.173a3.9,3.9,0,1,1-3.9-3.9,3.9,3.9,0,0,1,3.9,3.9Zm0,0" transform="translate(-357.867 -236.144)" fill="#ffffff"/>
  <path id="Pfad_59" data-name="Pfad 59" d="M314.613,179.94a3.132,3.132,0,0,0-1.8-1.8,5.235,5.235,0,0,0-1.756-.325c-1-.045-1.3-.055-3.822-.055s-2.825.01-3.822.055a5.237,5.237,0,0,0-1.756.326,3.133,3.133,0,0,0-1.8,1.8,5.236,5.236,0,0,0-.325,1.756c-.046,1-.055,1.3-.055,3.822s.01,2.825.055,3.822a5.234,5.234,0,0,0,.325,1.756,3.132,3.132,0,0,0,1.8,1.8,5.228,5.228,0,0,0,1.757.326c1,.046,1.3.055,3.822.055s2.825-.01,3.822-.055a5.229,5.229,0,0,0,1.757-.326,3.133,3.133,0,0,0,1.8-1.8,5.237,5.237,0,0,0,.326-1.756c.046-1,.055-1.3.055-3.822s-.01-2.825-.055-3.822a5.226,5.226,0,0,0-.326-1.756Zm-7.374,10.436a4.857,4.857,0,1,1,4.857-4.857,4.857,4.857,0,0,1-4.857,4.857Zm5.049-8.771a1.135,1.135,0,1,1,1.135-1.135,1.135,1.135,0,0,1-1.135,1.135Zm0,0" transform="translate(-290.209 -168.489)" fill="#ffffff"/>
  <path id="Pfad_60" data-name="Pfad 60" d="M181.03,42.276a17.03,17.03,0,1,0,17.03,17.03,17.032,17.032,0,0,0-17.03-17.03Zm9.72,21.061a7.174,7.174,0,0,1-.454,2.374,5,5,0,0,1-2.86,2.86,7.179,7.179,0,0,1-2.373.454c-1.043.048-1.376.059-4.032.059s-2.989-.011-4.032-.059a7.179,7.179,0,0,1-2.374-.454,5,5,0,0,1-2.86-2.86,7.172,7.172,0,0,1-.454-2.374c-.048-1.043-.059-1.376-.059-4.032s.011-2.989.059-4.032a7.175,7.175,0,0,1,.454-2.374,5,5,0,0,1,2.86-2.86A7.181,7.181,0,0,1,177,49.586c1.043-.048,1.376-.059,4.032-.059s2.989.011,4.032.059a7.182,7.182,0,0,1,2.374.454,5,5,0,0,1,2.86,2.86,7.174,7.174,0,0,1,.455,2.374c.048,1.043.059,1.376.059,4.032s-.011,2.989-.059,4.032Zm0,0" transform="translate(-164 -42.276)" fill="#ffffff"/>
</svg>
