<svg xmlns="http://www.w3.org/2000/svg" width="44.241" height="22.236" viewBox="0 0 44.241 22.236">
  <g id="Group_1054" data-name="Group 1054" transform="translate(0.6 0.682)">
    <path id="Path_5588" data-name="Path 5588" d="M139.219,194.579v-6.092a.5.5,0,0,1,.5-.5h29.69a.5.5,0,0,1,.5.5V208.2a.5.5,0,0,1-.5.5h-29.69a.5.5,0,0,1-.5-.5v-8.869" transform="translate(-127.015 -187.991)" fill="none" stroke="#0d2330" stroke-linecap="round" stroke-miterlimit="10" stroke-width="1.2"/>
    <path id="Path_5589" data-name="Path 5589" d="M139.7,188.467l15.436,13.647,11.859-9.883" transform="translate(-127.327 -188.303)" fill="none" stroke="#0d2330" stroke-linecap="round" stroke-linejoin="round" stroke-width="1.2"/>
    <line id="Line_155" data-name="Line 155" x1="11.514" y2="9.945" transform="translate(12.392 10.573)" fill="none" stroke="#0d2330" stroke-linecap="round" stroke-miterlimit="10" stroke-width="1.2"/>
    <path id="Path_5590" data-name="Path 5590" d="M184.171,208.423" transform="translate(-156.437 -201.364)" fill="none" stroke="#0d2330" stroke-linecap="round" stroke-miterlimit="10" stroke-width="1.2"/>
    <line id="Line_156" data-name="Line 156" x1="10.918" y1="10.071" transform="translate(31.875 10.635)" fill="none" stroke="#0d2330" stroke-linecap="round" stroke-miterlimit="10" stroke-width="1.2"/>
    <line id="Line_157" data-name="Line 157" x2="9.538" transform="translate(0 3.922)" fill="none" stroke="#0d2330" stroke-linecap="round" stroke-miterlimit="10" stroke-width="1.2"/>
    <line id="Line_158" data-name="Line 158" x2="16.565" transform="translate(0.376 9.318)" fill="none" stroke="#0d2330" stroke-linecap="round" stroke-miterlimit="10" stroke-width="1.2"/>
    <line id="Line_159" data-name="Line 159" x2="7.404" transform="translate(0 18.479)" fill="none" stroke="#0d2330" stroke-linecap="round" stroke-miterlimit="10" stroke-width="1.2"/>
    <line id="Line_160" data-name="Line 160" x2="5.773" transform="translate(6.275 14.588)" fill="none" stroke="#0d2330" stroke-linecap="round" stroke-miterlimit="10" stroke-width="1.2"/>
  </g>
</svg>
