<svg id="linkedin" xmlns="http://www.w3.org/2000/svg" width="34.059" height="34.06" viewBox="0 0 34.059 34.06">
  <path id="Pfad_57" data-name="Pfad 57" d="M181.03,42.276a17.03,17.03,0,1,0,17.03,17.03,17.032,17.032,0,0,0-17.03-17.03ZM176.081,68.02h-4.147V55.542h4.147Zm-2.074-14.182h-.027a2.37,2.37,0,1,1,.027,0ZM191.036,68.02h-4.147V61.345c0-1.678-.6-2.822-2.1-2.822a2.27,2.27,0,0,0-2.128,1.517,2.84,2.84,0,0,0-.136,1.012V68.02h-4.147s.054-11.307,0-12.478h4.147v1.767a4.118,4.118,0,0,1,3.738-2.06c2.729,0,4.775,1.783,4.775,5.616Zm0,0" transform="translate(-164 -42.276)" fill="#0d2330"/>
</svg>
