<svg xmlns="http://www.w3.org/2000/svg" width="129.09" height="45" viewBox="0 0 129.09 45">
  <g id="Group_1177" data-name="Group 1177" transform="translate(-104 -20.45)">
    <path id="Path_5610" data-name="Path 5610" d="M-232.214-139.624a21.645,21.645,0,0,1-2.853,1.457,23.411,23.411,0,0,1-3.022,1.042c-.512.146-1.029.271-1.545.4-.521.11-1.039.226-1.564.31a33.4,33.4,0,0,1-6.351.439q-1.593-.042-3.179-.208c-1.056-.1-2.111-.229-3.158-.41a57.218,57.218,0,0,1-6.218-1.4l-.013,0a18.549,18.549,0,0,0,.716-3.471,17.447,17.447,0,0,0,.076-3.409,17.806,17.806,0,0,0-.539-3.364c-.028-.105-.061-.21-.091-.315a14.78,14.78,0,0,0,1.56-1.5A5.45,5.45,0,0,0-256.889-153c-.732.784-1.439,1.58-2.2,2.325-.383.386-.777.762-1.186,1.121a13.122,13.122,0,0,0-.835-1.917,8.594,8.594,0,0,0-1.02-1.5,5.65,5.65,0,0,0-.692-.683,4.1,4.1,0,0,0-.856-.542,5.107,5.107,0,0,0-3.73-.243,4.206,4.206,0,0,0-.849.365,4.2,4.2,0,0,0-.752.52,3.842,3.842,0,0,0-1.047,1.438,4.356,4.356,0,0,0-.322,1.687,3.951,3.951,0,0,0,.337,1.7,4.512,4.512,0,0,0,2.505,2.439,5.552,5.552,0,0,0,3.587.039,8.873,8.873,0,0,0,1.516-.608h0a11.46,11.46,0,0,0,2.043-1.476,9.063,9.063,0,0,1-1.518,1.686,18.7,18.7,0,0,1-.054,4.824,18.787,18.787,0,0,1-.7,3.068c-.167-.052-.334-.1-.5-.16-1.006-.324-1.987-.7-2.958-1.089a33.724,33.724,0,0,1-5.487-2.823,21.873,21.873,0,0,1-2.412-1.788,15.951,15.951,0,0,1-2.076-2.082,13.586,13.586,0,0,1-2.174-3.741,51.467,51.467,0,0,1,3.968-3.915q2.4-2.14,5.013-4.058c.865-.642,1.74-1.272,2.616-1.9a23.658,23.658,0,0,0,2.546-1.989,9.378,9.378,0,0,0,1.965-2.52,4.266,4.266,0,0,0,.451-3.079,2.962,2.962,0,0,0-.837-1.35,4.1,4.1,0,0,0-1.388-.831,8.725,8.725,0,0,0-3.231-.4,11.317,11.317,0,0,0-3.208.592,12.413,12.413,0,0,0-2.9,1.452,15.2,15.2,0,0,0-2.467,2.081q-.56.579-1.063,1.207a10.8,10.8,0,0,0-.879,1.341,20.291,20.291,0,0,0-2.238,5.939,15.656,15.656,0,0,0-.051,6.307c.081.4.189.8.309,1.192a27.94,27.94,0,0,0-3.952,5.161,17.07,17.07,0,0,0-1.409,3.077,13.944,13.944,0,0,0-.445,1.668c-.057.285-.1.572-.139.862s-.064.562-.081.847a13.894,13.894,0,0,0,1.126,6.8,11.054,11.054,0,0,0,4.994,5.311,10.408,10.408,0,0,0,3.693,1.1,11.522,11.522,0,0,0,3.838-.257,14.831,14.831,0,0,0,6.433-3.5,19.641,19.641,0,0,0,5.029-7.376l.1.026,1.586.393,1.6.336c.531.121,1.072.2,1.609.292l.806.138.811.107a38.047,38.047,0,0,0,13.023-.312,27.319,27.319,0,0,0,3.147-.864,23.83,23.83,0,0,0,3.011-1.236,18.014,18.014,0,0,0,5.242-3.731,15.319,15.319,0,0,1-2.577,1.916m-32.038-7.508a4.564,4.564,0,0,1-2.973.024,3.6,3.6,0,0,1-2.034-1.953,3.126,3.126,0,0,1-.266-1.367,3.534,3.534,0,0,1,.287-1.371,2.613,2.613,0,0,1,2.112-1.507,4.006,4.006,0,0,1,2.571.549,4.6,4.6,0,0,1,1.608,2.083,13.038,13.038,0,0,1,.8,2.539,8.976,8.976,0,0,1-2.1,1m-14.589-10.542a19.74,19.74,0,0,1,1.942-5.73,10.263,10.263,0,0,1,.76-1.262q.46-.614.975-1.186a13.817,13.817,0,0,1,2.287-2.05,10.956,10.956,0,0,1,5.739-2.085,11.194,11.194,0,0,1,1.557.053,5.8,5.8,0,0,1,1.45.357,2.868,2.868,0,0,1,1.809,1.837,3.8,3.8,0,0,1-.4,2.641,7.525,7.525,0,0,1-.8,1.244,9.813,9.813,0,0,1-1.014,1.133,13.934,13.934,0,0,1-1.171,1.015c-.416.323-.853.638-1.287.956-.87.636-1.742,1.277-2.623,1.905-1.745,1.281-3.493,2.568-5.174,3.947-1.316,1.081-2.59,2.219-3.8,3.425-.032-.116-.068-.23-.1-.347a14.212,14.212,0,0,1-.152-5.855m15.079,21.631a17.991,17.991,0,0,1-3.648,4.906,12.255,12.255,0,0,1-5.238,3.045,8.726,8.726,0,0,1-5.917-.484,9.048,9.048,0,0,1-4.223-4.19,12.491,12.491,0,0,1-1.243-5.938,13.1,13.1,0,0,1,1.6-5.929,25.949,25.949,0,0,1,3.158-4.652q.147.368.314.728a14.873,14.873,0,0,0,1.677,2.722,19.487,19.487,0,0,0,4.794,4.285,32.317,32.317,0,0,0,5.8,2.922c1.015.388,2.038.759,3.079,1.076.156.052.314.1.471.142q-.281.7-.619,1.367" transform="translate(439.656 190.947)" fill="#0d2330"/>
    <path id="Path_5611" data-name="Path 5611" d="M-48.01-55.682V-61.32c.068-5.4-1.828-6.674-5.232-6.674-2.585,0-5.579,1.25-5.579,3.291a1.6,1.6,0,0,0,1.671,1.615,1.454,1.454,0,0,0,1.544-1.433A1.675,1.675,0,0,0-57.025-66.2v-.061a5.987,5.987,0,0,1,2.49-.518c2.616,0,4.066.671,4.066,3.566v2.042l-2.269.518c-3.845.884-6.336,1.92-6.336,4.48,0,1.829,1.45,3.139,3.719,3.139,1.923,0,3.782-1.554,4.886-3.139v1.158a2.121,2.121,0,0,0,2.364,1.92c.032,0,.063-.005.095-.006Zm-2.459-1.067c-1.2,1.219-2.4,2.225-4.066,2.225-1.607,0-2.017-.914-2.017-2.164,0-1.493.5-2.194,3.5-3.139l2.585-.823Z" transform="translate(179.57 100.499)" fill="#0d2330"/>
    <path id="Path_5612" data-name="Path 5612" d="M-28.755-68.07c-4.249,0-6.626-3.709-6.626-7.326,0-4.231,2.758-7.725,6.753-7.725,2.807,0,5.408,1.5,5.685,5.905a.507.507,0,0,1-.512.532H-32.75a8.931,8.931,0,0,0-.032.92c0,4.782,1.839,6.5,4.788,6.5A9.632,9.632,0,0,0-24.162-70a.356.356,0,0,1,.457.182.335.335,0,0,1-.15.427,9.738,9.738,0,0,1-4.9,1.317m.1-14.1c-2.061,0-3.678,1.073-4.058,4.69h7a.274.274,0,0,0,.277-.285c-.224-3.561-1.179-4.4-3.218-4.4" transform="translate(139.381 115.626)" fill="#0d2330"/>
    <path id="Path_5613" data-name="Path 5613" d="M-53.245,0h-2.5V10.147c-1.966,2.054-3.139,3.065-4.914,3.065-1.744,0-2.346-.736-2.346-2.483V0h-2.5V9.6c0,2.851,1.046,4.966,4.122,4.966,2.318,0,3.912-1.266,5.644-3.622V12.51c0,1.128,1.06,1.92,2.408,1.92.033,0,.064-.005.1-.006V.009h0Z" transform="translate(202.289 32.986)" fill="#0d2330"/>
    <path id="Path_5614" data-name="Path 5614" d="M-74.549-59.532V-66.9a4.328,4.328,0,0,0-.716-2.7,2.49,2.49,0,0,0-2.089-.918,2.866,2.866,0,0,0-2.367,1.1,5.35,5.35,0,0,0-.877,3.362v6.525h-2.542v-7.232a4.593,4.593,0,0,0-.716-2.853,2.474,2.474,0,0,0-2.06-.9,2.917,2.917,0,0,0-2.367,1.1,5.222,5.222,0,0,0-.906,3.362v6.525h-2.542V-72.356h2.542v2.288a3.978,3.978,0,0,1,1.4-1.85,4.033,4.033,0,0,1,2.512-.777,4.775,4.775,0,0,1,2.863.748,3.766,3.766,0,0,1,1.4,1.991A3.858,3.858,0,0,1-80.393-71a4.339,4.339,0,0,1,.95-.876,4.9,4.9,0,0,1,1.227-.593,4.69,4.69,0,0,1,1.475-.226,5.545,5.545,0,0,1,2.221.4,3.834,3.834,0,0,1,1.461,1.073,4.224,4.224,0,0,1,.8,1.61,7.664,7.664,0,0,1,.248,1.977v8.107Z" transform="translate(281.053 106.399)" fill="#0d2330"/>
    <path id="Path_5615" data-name="Path 5615" d="M-30.175-60.938a7.363,7.363,0,0,1-2.863-.537,6.494,6.494,0,0,1-2.191-1.469,6.674,6.674,0,0,1-1.4-2.147,6.718,6.718,0,0,1-.5-2.571,6.824,6.824,0,0,1,.5-2.585,6.634,6.634,0,0,1,1.4-2.161,6.507,6.507,0,0,1,2.191-1.469,7.37,7.37,0,0,1,2.863-.537,7.452,7.452,0,0,1,2.892.537,6.678,6.678,0,0,1,2.206,1.469,6.53,6.53,0,0,1,1.417,2.161,6.835,6.835,0,0,1,.5,2.585,6.729,6.729,0,0,1-.5,2.571,6.569,6.569,0,0,1-1.417,2.147,6.664,6.664,0,0,1-2.206,1.469,7.446,7.446,0,0,1-2.892.537m0-2.2a4.547,4.547,0,0,0,1.855-.367,4.4,4.4,0,0,0,1.417-.975A4.3,4.3,0,0,0-26-65.91a4.755,4.755,0,0,0,.321-1.751A4.758,4.758,0,0,0-26-69.412a4.47,4.47,0,0,0-.906-1.441,4.306,4.306,0,0,0-1.417-.989,4.556,4.556,0,0,0-1.855-.367,4.45,4.45,0,0,0-1.841.367,4.18,4.18,0,0,0-1.388.989,4.594,4.594,0,0,0-.891,1.441,4.747,4.747,0,0,0-.322,1.752,4.744,4.744,0,0,0,.322,1.751,4.41,4.41,0,0,0,.891,1.427,4.27,4.27,0,0,0,1.388.975,4.442,4.442,0,0,0,1.841.367" transform="translate(249.447 108.116)" fill="#0d2330"/>
    <path id="Path_5616" data-name="Path 5616" d="M0-9.07a1.942,1.942,0,0,1,.584-1.412,1.932,1.932,0,0,1,1.432-.593,2.03,2.03,0,0,1,1.461.593A1.9,1.9,0,0,1,4.09-9.07a1.808,1.808,0,0,1-.614,1.384,2.082,2.082,0,0,1-1.461.565A1.979,1.979,0,0,1,.584-7.685,1.848,1.848,0,0,1,0-9.07M.76-4.211H3.3V8.614H.76Z" transform="translate(229 38.254)" fill="#0d2330"/>
  </g>
</svg>
