<svg xmlns="http://www.w3.org/2000/svg" width="88.151" height="26.67" viewBox="0 0 88.151 26.67">
  <g id="Сгруппировать_1632" data-name="Сгруппировать 1632" transform="translate(0 -0.001)">
    <path id="Контур_405" data-name="Контур 405" d="M83.171,13.57H73.68v2.268h3.4v9.707h2.685V15.838h3.4Z" transform="translate(4.98 -6.221)" fill="#fff"/>
    <path id="Контур_406" data-name="Контур 406" d="M51.294,13.57H41.787v2.268h3.4v9.707h2.685V15.838h3.4Z" transform="translate(-6.292 -6.221)" fill="#fff"/>
    <path id="Контур_407" data-name="Контур 407" d="M70.336,13.428A4.331,4.331,0,0,0,65.682,18.1v7.689h2.669V18.047a1.948,1.948,0,0,1,2.018-2.134,2.021,2.021,0,0,1,2,2.134v7.739h2.651V18.1A4.323,4.323,0,0,0,70.336,13.428Z" transform="translate(2.153 -6.271)" fill="#fff"/>
    <rect id="Прямоугольник_178" data-name="Прямоугольник 178" width="2.652" height="11.975" transform="translate(62.465 7.348)" fill="#fff"/>
    <path id="Контур_408" data-name="Контур 408" d="M56.894,18.306l.083.534,2.5,6.7h1.084l3.4-11.975H61.347l-1.618,6.288-.1.684-.133-.684L57.328,13.57H56.46l-2.168,6.288-.133.684-.083-.684L52.457,13.57H49.822l3.4,11.975h1.084l2.5-6.7.083-.534" transform="translate(-3.452 -6.221)" fill="#fff"/>
    <path id="Контур_409" data-name="Контур 409" d="M24.635,16.546a1.368,1.368,0,0,0-1.2,2.05c.483.767,1.2,1.869,1.2,1.869s.734-1.1,1.2-1.869A1.373,1.373,0,0,0,24.635,16.546Z" transform="translate(-12.844 -7.129)" fill="#fff"/>
    <path id="Контур_410" data-name="Контур 410" d="M38.427,14.4,27.819,8.266a1.275,1.275,0,0,0-1.1,0L16.11,14.4a1.181,1.181,0,0,0-.549.935V27.614a1.2,1.2,0,0,0,.549.934l10.608,6.138a1.275,1.275,0,0,0,1.1,0l10.608-6.138a1.18,1.18,0,0,0,.551-.934V15.339A1.208,1.208,0,0,0,38.427,14.4ZM25.518,27.981a1.083,1.083,0,0,1-.835.483,1.164,1.164,0,0,1-.85-.5L19.08,20.909a3.137,3.137,0,0,1-.184-3.22,3.414,3.414,0,0,1,3.086-1.968,3.558,3.558,0,0,1,1.351.284l-.95,1.75a1.592,1.592,0,0,0-.4-.05,1.369,1.369,0,0,0-1.2,2.052c.483.767,1.2,1.869,1.2,1.869L24.7,25.446l1.016-1.452,1.234,1.8Zm5.353-.018a1.163,1.163,0,0,1-.834.485,1.06,1.06,0,0,1-.817-.467l-1.851-2.835L26.135,23.36c-.751-1.118-1.669-2.451-1.669-2.451a3.141,3.141,0,0,1-.183-3.22,3.4,3.4,0,0,1,6.17,0,3.21,3.21,0,0,1-.2,3.27L28.62,23.41l1.417,2.168,2.769-4.07v.034h2.4Z" transform="translate(-15.561 -8.14)" fill="#fff"/>
  </g>
</svg>
