<svg xmlns="http://www.w3.org/2000/svg" width="82.848" height="13.883" viewBox="0 0 82.848 13.883">
  <g id="Сгруппировать_1631" data-name="Сгруппировать 1631" transform="translate(0 -0.001)">
    <path id="Контур_395" data-name="Контур 395" d="M107.177,14.737a9.719,9.719,0,0,0-3.394.616l-.406,2.42a8.7,8.7,0,0,1,3.052-.5c1.041,0,1.808.123,1.808.966a1.8,1.8,0,0,1-.093.709s-.823-.068-1.2-.068c-2.421,0-4.973,1.031-4.973,4.151,0,2.461,1.673,3.017,2.7,3.017a3.609,3.609,0,0,0,2.873-1.286l-.085,1.077h2.461l1.106-7.715c0-3.283-2.857-3.388-3.849-3.388Zm-1.39,8.965a1.017,1.017,0,0,1-1.087-1.058c0-.765.407-1.682,2.467-1.682a2.061,2.061,0,0,1,.6.055c.058.472-.292,2.685-1.986,2.685Zm0,0" transform="translate(-89.304 -12.203)" fill="#fff"/>
    <path id="Контур_396" data-name="Контур 396" d="M113.856,17.325c.4,0,1.91.12,1.91.12l.359-2.475a13.126,13.126,0,0,0-2.58-.218c-2.083,0-4.182.832-4.182,3.66,0,3.2,3.508,2.883,3.508,4.236,0,.9-.983.973-1.738.973a8.933,8.933,0,0,1-2.489-.426l-.368,2.451a8.95,8.95,0,0,0,3.14.341c.635,0,4.236.169,4.236-3.557,0-3.478-3.338-2.8-3.338-4.2,0-.69.55-.908,1.542-.908Zm0,0" transform="translate(-87.074 -12.197)" fill="#fff"/>
    <path id="Контур_397" data-name="Контур 397" d="M117.733,18h1.477l.359-2.639h-1.4l.294-1.636h-2.808C115.6,13.79,114,22.946,114,24.052a2.088,2.088,0,0,0,2.243,2.382,7.452,7.452,0,0,0,2.1-.367l.352-2.385c-.2,0-.475.084-.73.084-.973,0-1.077-.528-1.022-.907Zm0,0" transform="translate(-85.052 -12.56)" fill="#fff"/>
    <path id="Контур_398" data-name="Контур 398" d="M101.843,13.09,99.08,21.277,98.94,13.09H94.854L92.611,26.431h2.7l1.705-10.06.244,10.06H99.2l3.592-10.06-1.6,10.06h2.876l2.213-13.341Zm0,0" transform="translate(-92.611 -12.785)" fill="#fff"/>
    <path id="Контур_399" data-name="Контур 399" d="M140.737,14.737a9.734,9.734,0,0,0-3.4.616l-.406,2.42a8.769,8.769,0,0,1,3.055-.5c1.041,0,1.805.123,1.805.966a1.8,1.8,0,0,1-.093.709s-.824-.068-1.2-.068c-2.429,0-4.974,1.031-4.974,4.151,0,2.461,1.674,3.017,2.706,3.017a3.6,3.6,0,0,0,2.873-1.286l-.084,1.077h2.459l1.107-7.715c0-3.283-2.857-3.388-3.849-3.388ZM139.354,23.7a1.02,1.02,0,0,1-1.1-1.058c0-.765.417-1.682,2.469-1.682a2.2,2.2,0,0,1,.616.055c.055.472-.294,2.685-1.988,2.685Zm0,0" transform="translate(-77.443 -12.203)" fill="#fff"/>
    <path id="Контур_400" data-name="Контур 400" d="M148.054,14.836c-1.256,0-2.183,1.711-2.183,1.711l.246-1.569h-2.611l-1.749,10.856h2.883c.813-4.644.966-8.407,2.913-7.716a10.772,10.772,0,0,1,1.041-3.244,2.783,2.783,0,0,0-.54-.038Zm0,0" transform="translate(-75.241 -12.168)" fill="#fff"/>
    <path id="Контур_401" data-name="Контур 401" d="M153.843,13.1l-.6,3.756a3.691,3.691,0,0,0-2.7-1.455c-2.563,0-4.71,3.091-4.71,6.647,0,2.3,1.145,4.549,3.481,4.549a3.517,3.517,0,0,0,2.609-1.173l-.123,1h2.723L156.651,13.1ZM150.3,23.868c-1.012,0-1.483-.843-1.483-2.176,0-2.174.973-3.6,2.2-3.6,1.012,0,1.523.69,1.523,2.317,0,1.485-.728,3.462-2.241,3.462Zm0,0" transform="translate(-73.803 -12.783)" fill="#fff"/>
    <path id="Контур_402" data-name="Контур 402" d="M126.393,21.351a20.122,20.122,0,0,0,.368-2.554c0-1.842-.927-4.094-4-4.094-2.818,0-4.9,3.036-4.9,6.469,0,3.96,2.612,4.9,4.834,4.9a7.039,7.039,0,0,0,2.957-.463l.5-2.7a8.738,8.738,0,0,1-2.978.692c-3.007,0-2.489-2.251-2.489-2.251Zm-3.622-4.132c1.578,0,1.286,1.777,1.286,1.919h-3.1c0-.188.292-1.919,1.815-1.919Zm0,0" transform="translate(-83.686 -12.215)" fill="#fff"/>
    <path id="Контур_403" data-name="Контур 403" d="M135.569,15.721a4.974,4.974,0,0,1,2.572.8l.464-2.968a10.057,10.057,0,0,0-3.159-.692c-3.235,0-6.384,2.81-6.384,8.085,0,3.49,1.7,5.8,5.04,5.8a13.261,13.261,0,0,0,2.461-.378l.5-3.066a6.78,6.78,0,0,1-2.317.69c-1.995,0-2.791-1.513-2.791-3.149,0-3.309,1.713-5.125,3.614-5.125Zm0,0" transform="translate(-79.728 -12.864)" fill="#fff"/>
    <path id="Контур_404" data-name="Контур 404" d="M130.67,14.836c-1.259,0-2.186,1.711-2.186,1.711l.248-1.569h-2.6l-1.751,10.856h2.873c.813-4.634.966-8.4,2.915-7.716a10.848,10.848,0,0,1,1.038-3.244,2.766,2.766,0,0,0-.537-.038Zm0,0" transform="translate(-81.382 -12.168)" fill="#fff"/>
  </g>
</svg>
