<svg xmlns="http://www.w3.org/2000/svg" xmlns:xlink="http://www.w3.org/1999/xlink" width="112.802" height="19.503" viewBox="0 0 112.802 19.503">
  <defs>
    <clipPath id="clip-path">
      <rect id="Прямоугольник_1924" data-name="Прямоугольник 1924" width="112.802" height="19.503" fill="none"/>
    </clipPath>
  </defs>
  <g id="Сгруппировать_1629" data-name="Сгруппировать 1629" transform="translate(0 0.001)">
    <g id="Сгруппировать_1629-2" data-name="Сгруппировать 1629" transform="translate(0 -0.001)" clip-path="url(#clip-path)">
      <path id="Контур_6052" data-name="Контур 6052" d="M156.45,6.077S157.763.057,157.781,0h-8.345c0,.038-1.725,7.989-1.725,8.027h2.138c.018,0,1.312-6,1.312-6h4.05s-1.275,6.019-1.312,6.057h6.169l-.806,3.713H153.13c0,.038-1.237,5.664-1.237,5.664h-4.632c0,.018-.413,2.025-.431,2.044h6.825c0-.018,1.22-5.682,1.22-5.682h6.133c0-.018,1.613-7.707,1.613-7.744h-6.17" transform="translate(-49.819 0)" fill="#fff"/>
      <path id="Контур_6053" data-name="Контур 6053" d="M91.531,8.917a1.44,1.44,0,0,1,1.482,1.594,4.337,4.337,0,0,1-.038.488H89.168a2.576,2.576,0,0,1,2.363-2.081m1.894,7.464.488-2.232a7.851,7.851,0,0,1-2.663.505c-1.2,0-2.25-.412-2.307-1.857h6.188a7.4,7.4,0,0,0,.356-2.137A3.487,3.487,0,0,0,91.718,6.91c-3.338,0-5.363,2.739-5.363,5.758,0,2.587,1.725,4.106,4.407,4.106A8.715,8.715,0,0,0,93.425,16.381ZM83.242,14.486A1.8,1.8,0,0,1,81.2,12.443a3,3,0,0,1,2.907-3.263,5.354,5.354,0,0,1,1.837.413l.45-2.138A7.439,7.439,0,0,0,83.936,7a5.372,5.372,0,0,0-5.457,5.57c0,2.775,1.707,4.087,4.164,4.087a5.475,5.475,0,0,0,2.026-.355l.487-2.195a5.41,5.41,0,0,1-1.913.375M70.285,16.493l1.031-4.745c.412-1.913,1.35-2.569,2.326-2.569,1.256,0,1.407.938,1.162,2.007l-1.125,5.307H76.36l1.181-5.438c.581-2.719-.675-4.145-2.644-4.145A4.09,4.09,0,0,0,71.86,8.3L72.1,7.192H69.609l-2.007,9.3Zm-9.638-2.682c0-.937.825-1.463,2.193-1.463a10.782,10.782,0,0,1,1.37.094l-.113.525a2.422,2.422,0,0,1-2.287,1.857C61.039,14.824,60.646,14.449,60.646,13.811Zm2.588-6.845a11.231,11.231,0,0,0-2.907.413l-.45,2.157a11.251,11.251,0,0,1,2.832-.488c1.406,0,1.912.431,1.912,1.163a1.77,1.77,0,0,1-.037.431l-.038.188c-.675-.075-1.312-.13-1.613-.13-2.662,0-4.8,1.031-4.8,3.469a2.577,2.577,0,0,0,2.85,2.55,3.544,3.544,0,0,0,2.756-1.2l-.206.975h2.381l1.163-5.325a5.267,5.267,0,0,0,.13-1.2C67.208,8.373,66.328,6.966,63.234,6.966Zm-13,9.527,1.031-4.745c.413-1.913,1.35-2.569,2.326-2.569,1.257,0,1.407.938,1.163,2.007l-1.126,5.307h2.682l1.181-5.438c.581-2.719-.674-4.145-2.643-4.145A4.089,4.089,0,0,0,51.813,8.3l.243-1.106H49.563l-2.007,9.3Zm-4.8-11.87a1.369,1.369,0,0,0,1.387,1.5,1.583,1.583,0,0,0,1.631-1.5,1.369,1.369,0,0,0-1.387-1.5,1.584,1.584,0,0,0-1.631,1.5m-.376,2.569-2.007,9.3h2.663l2.007-9.3Zm-7.577,9.3,1.051-4.857h4.051l.488-2.382H39.042l.619-2.982h4.257l.525-2.382H37.412l-2.663,12.6ZM34.842,9.236l.431-2.044H32.4L32.967,4.6l-2.794.618-1.744,7.951c-.487,2.251.75,3.488,3,3.488a6.638,6.638,0,0,0,1.82-.28l.45-2.045a6.562,6.562,0,0,1-1.5.225c-.77,0-1.313-.262-1.125-1.2l.881-4.125h2.887M24.678,13.755c0,.751-.919.881-1.687.881a9.467,9.467,0,0,1-2.643-.45l-.451,2.1a12.832,12.832,0,0,0,2.926.375c2.4,0,4.351-.9,4.351-3.15,0-2.906-3.488-2.4-3.488-3.693,0-.582.563-.788,1.444-.788a10.334,10.334,0,0,1,2.42.45L28,7.36A10.179,10.179,0,0,0,25.372,7c-2.606,0-4.181,1.163-4.181,3.094C21.191,12.93,24.678,12.461,24.678,13.755ZM14.589,16.774a5.445,5.445,0,0,0,5.382-4.932C20.44,9.048,18.884,6.91,15.94,6.91a5.446,5.446,0,0,0-5.382,4.932c-.468,2.794,1.088,4.932,4.032,4.932m.244-2.157c-1.069,0-1.913-.844-1.52-2.776s1.331-2.775,2.4-2.775,1.913.862,1.5,2.775c-.394,1.913-1.313,2.776-2.381,2.776M3.525,12.648H4.707c3.769,0,5.87-1.856,5.87-4.95,0-2.307-1.633-3.808-4.426-3.808H2.663L0,16.493H2.7l.825-3.845m.469-2.307L4.875,6.2H6c1.238,0,1.837.507,1.837,1.688,0,1.518-.956,2.456-2.718,2.456H3.994" transform="translate(0 -1.059)" fill="#fff"/>
    </g>
  </g>
</svg>
