<svg xmlns="http://www.w3.org/2000/svg" width="42.695" height="13.147" viewBox="0 0 42.695 13.147">
  <g id="Сгруппировать_1630" data-name="Сгруппировать 1630" transform="translate(0 -0.001)">
    <path id="Контур_390" data-name="Контур 390" d="M178.939,13.3l-2.166,12.733h3.469l2.17-12.733Zm0,0" transform="translate(-161.846 -13.079)" fill="#fff"/>
    <path id="Контур_391" data-name="Контур 391" d="M176.861,13.308l-3.4,8.685-.363-1.311a13.676,13.676,0,0,0-4.807-5.277L171.4,26.023l3.673-.005,5.467-12.71Zm0,0" transform="translate(-164.843 -13.076)" fill="#fff"/>
    <path id="Контур_392" data-name="Контур 392" d="M172.679,14.256a1.394,1.394,0,0,0-1.51-1.037H165.79l-.046.256c4.189,1.014,6.959,3.459,8.107,6.4Zm0,0" transform="translate(-165.744 -13.107)" fill="#fff"/>
    <path id="Контур_393" data-name="Контур 393" d="M187.973,15.8a6.439,6.439,0,0,1,2.6.483l.311.149.47-2.762a9.005,9.005,0,0,0-3.106-.533c-3.431,0-5.848,1.728-5.867,4.2-.022,1.831,1.722,2.85,3.041,3.459,1.353.627,1.8,1.022,1.8,1.581-.015.854-1.08,1.245-2.08,1.245a7.24,7.24,0,0,1-3.267-.67l-.447-.2-.489,2.85a11.107,11.107,0,0,0,3.868.679c3.65,0,6.021-1.712,6.044-4.351.014-1.451-.911-2.553-2.915-3.459-1.213-.591-1.957-.987-1.952-1.581,0-.531.632-1.092,1.988-1.092Zm0,0" transform="translate(-160.373 -13.136)" fill="#fff"/>
    <path id="Контур_394" data-name="Контур 394" d="M197.737,13.308h-2.683a1.729,1.729,0,0,0-1.819,1.061l-5.151,11.668h3.646s.594-1.571.73-1.911l4.443.005c.1.441.424,1.906.424,1.906h3.217Zm-4.282,8.211c.287-.729,1.385-3.561,1.385-3.561-.019.037.284-.736.462-1.214l.237,1.1.8,3.679Zm0,0" transform="translate(-157.848 -13.076)" fill="#fff"/>
  </g>
</svg>
