<svg id="Gruppe_406" data-name="Gruppe 406" xmlns="http://www.w3.org/2000/svg" width="95.238" height="15.96" viewBox="0 0 95.238 15.96">
  <path id="Pfad_395" data-name="Pfad 395" d="M107.956,14.737a11.172,11.172,0,0,0-3.9.708l-.467,2.782a10,10,0,0,1,3.508-.576c1.2,0,2.079.142,2.079,1.111a2.073,2.073,0,0,1-.107.815s-.946-.078-1.383-.078c-2.783,0-5.716,1.186-5.716,4.772,0,2.829,1.923,3.468,3.109,3.468a4.148,4.148,0,0,0,3.3-1.478l-.1,1.238h2.829l1.271-8.868c0-3.774-3.284-3.894-4.425-3.894Zm-1.6,10.306a1.169,1.169,0,0,1-1.249-1.217c0-.879.468-1.934,2.836-1.934a2.369,2.369,0,0,1,.7.064c.067.543-.336,3.087-2.282,3.087Zm0,0" transform="translate(-87.41 -11.824)" fill="#fff"/>
  <path id="Pfad_396" data-name="Pfad 396" d="M114.691,17.71c.457,0,2.2.138,2.2.138L117.3,15a15.089,15.089,0,0,0-2.965-.25c-2.394,0-4.808.957-4.808,4.207,0,3.684,4.033,3.314,4.033,4.87,0,1.033-1.13,1.119-2,1.119a10.269,10.269,0,0,1-2.861-.49l-.423,2.818a10.288,10.288,0,0,0,3.61.392c.73,0,4.87.194,4.87-4.089,0-4-3.837-3.216-3.837-4.825,0-.793.632-1.044,1.772-1.044Zm0,0" transform="translate(-83.904 -11.816)" fill="#fff"/>
  <path id="Pfad_397" data-name="Pfad 397" d="M118.292,18.64h1.7l.412-3.034h-1.609l.338-1.881H115.9c-.067.075-1.9,10.6-1.9,11.871,0,1.9,1.066,2.751,2.578,2.738a8.567,8.567,0,0,0,2.412-.422l.4-2.741c-.229,0-.546.1-.839.1-1.119,0-1.238-.607-1.175-1.042Zm0,0" transform="translate(-80.723 -12.387)" fill="#fff"/>
  <path id="Pfad_398" data-name="Pfad 398" d="M103.223,13.09,100.048,22.5l-.162-9.411h-4.7L92.611,28.426H95.72l1.96-11.565.28,11.565h2.23l4.129-11.565-1.836,11.565h3.306l2.544-15.336Zm0,0" transform="translate(-92.611 -12.74)" fill="#fff"/>
  <path id="Pfad_399" data-name="Pfad 399" d="M141.517,14.737a11.19,11.19,0,0,0-3.905.708l-.467,2.782a10.08,10.08,0,0,1,3.512-.576c1.2,0,2.075.142,2.075,1.111a2.073,2.073,0,0,1-.107.815s-.947-.078-1.382-.078c-2.793,0-5.718,1.186-5.718,4.772,0,2.829,1.925,3.468,3.11,3.468a4.141,4.141,0,0,0,3.3-1.478l-.1,1.238h2.827l1.273-8.868c0-3.774-3.284-3.894-4.425-3.894Zm-1.59,10.306a1.173,1.173,0,0,1-1.26-1.217c0-.879.479-1.934,2.838-1.934a2.526,2.526,0,0,1,.708.064c.064.543-.338,3.087-2.286,3.087Zm0,0" transform="translate(-68.758 -11.824)" fill="#fff"/>
  <path id="Pfad_400" data-name="Pfad 400" d="M149,14.836c-1.444,0-2.51,1.967-2.51,1.967l.283-1.8h-3l-2.01,12.479h3.314c.935-5.338,1.111-9.665,3.348-8.87a12.385,12.385,0,0,1,1.2-3.729,3.2,3.2,0,0,0-.621-.044Zm0,0" transform="translate(-65.293 -11.769)" fill="#fff"/>
  <path id="Pfad_401" data-name="Pfad 401" d="M155.042,13.1l-.7,4.317a4.243,4.243,0,0,0-3.109-1.673c-2.947,0-5.414,3.554-5.414,7.641,0,2.642,1.316,5.229,4,5.229a4.042,4.042,0,0,0,3-1.349l-.142,1.151h3.13L158.271,13.1Zm-4.076,12.384c-1.164,0-1.705-.969-1.705-2.5,0-2.5,1.119-4.142,2.531-4.142,1.164,0,1.75.793,1.75,2.664,0,1.707-.837,3.98-2.576,3.98Zm0,0" transform="translate(-63.033 -12.737)" fill="#fff"/>
  <path id="Pfad_402" data-name="Pfad 402" d="M127.668,22.345a23.131,23.131,0,0,0,.423-2.936c0-2.117-1.066-4.706-4.6-4.706-3.239,0-5.632,3.49-5.632,7.437,0,4.552,3,5.629,5.557,5.629a8.091,8.091,0,0,0,3.4-.532l.577-3.1a10.045,10.045,0,0,1-3.423.8c-3.457,0-2.861-2.587-2.861-2.587Zm-4.163-4.75c1.814,0,1.478,2.043,1.478,2.206h-3.564c0-.216.336-2.206,2.086-2.206Zm0,0" transform="translate(-78.575 -11.843)" fill="#fff"/>
  <path id="Pfad_403" data-name="Pfad 403" d="M136.542,16.148a5.718,5.718,0,0,1,2.956.924l.534-3.412a11.562,11.562,0,0,0-3.631-.8c-3.718,0-7.339,3.23-7.339,9.295,0,4.013,1.957,6.665,5.794,6.665a15.244,15.244,0,0,0,2.828-.434l.576-3.524a7.794,7.794,0,0,1-2.664.793c-2.293,0-3.208-1.739-3.208-3.62,0-3.8,1.97-5.892,4.154-5.892Zm0,0" transform="translate(-72.35 -12.865)" fill="#fff"/>
  <path id="Pfad_404" data-name="Pfad 404" d="M131.611,14.836c-1.447,0-2.513,1.967-2.513,1.967l.285-1.8h-2.989l-2.013,12.479h3.3c.935-5.327,1.111-9.654,3.351-8.87a12.472,12.472,0,0,1,1.193-3.729,3.18,3.18,0,0,0-.618-.044Zm0,0" transform="translate(-74.952 -11.769)" fill="#fff"/>
</svg>
