<svg id="Gruppe_405" data-name="Gruppe 405" xmlns="http://www.w3.org/2000/svg" width="49.081" height="15.113" viewBox="0 0 49.081 15.113">
  <path id="Pfad_390" data-name="Pfad 390" d="M179.262,13.3l-2.489,14.637h3.988L183.255,13.3Zm0,0" transform="translate(-159.614 -13.048)" fill="#fff"/>
  <path id="Pfad_391" data-name="Pfad 391" d="M178.142,13.308l-3.907,9.984-.417-1.508a15.721,15.721,0,0,0-5.526-6.066l3.571,12.207,4.223-.006,6.284-14.611Zm0,0" transform="translate(-164.328 -13.042)" fill="#fff"/>
  <path id="Pfad_392" data-name="Pfad 392" d="M173.716,14.411a1.6,1.6,0,0,0-1.736-1.192H165.8l-.053.294c4.815,1.165,8,3.977,9.319,7.359Zm0,0" transform="translate(-165.744 -13.091)" fill="#fff"/>
  <path id="Pfad_393" data-name="Pfad 393" d="M189.025,16.2a7.4,7.4,0,0,1,2.989.555l.358.171.54-3.175a10.352,10.352,0,0,0-3.571-.613c-3.944,0-6.723,1.987-6.745,4.831-.025,2.105,1.979,3.277,3.5,3.977,1.556.72,2.072,1.175,2.069,1.817-.017.982-1.242,1.431-2.391,1.431a8.323,8.323,0,0,1-3.756-.77l-.513-.23-.562,3.277a12.768,12.768,0,0,0,4.447.781c4.2,0,6.922-1.968,6.948-5,.016-1.668-1.047-2.934-3.351-3.977-1.394-.68-2.25-1.134-2.244-1.817,0-.61.727-1.256,2.286-1.256Zm0,0" transform="translate(-157.298 -13.137)" fill="#fff"/>
  <path id="Pfad_394" data-name="Pfad 394" d="M199.18,13.308H196.1a1.988,1.988,0,0,0-2.091,1.22l-5.922,13.413h4.191s.683-1.806.839-2.2l5.108.006c.118.507.487,2.191.487,2.191h3.7Zm-4.923,9.439c.33-.839,1.592-4.093,1.592-4.093-.022.042.327-.846.531-1.4l.272,1.26.924,4.229Zm0,0" transform="translate(-153.327 -13.042)" fill="#fff"/>
</svg>
