<svg id="Gruppe_407" data-name="Gruppe 407" xmlns="http://www.w3.org/2000/svg" width="101.334" height="30.659" viewBox="0 0 101.334 30.659">
  <path id="Pfad_405" data-name="Pfad 405" d="M84.59,13.57H73.68v2.608h3.911V27.336h3.087V16.177H84.59Z" transform="translate(16.744 -5.123)" fill="#fff"/>
  <path id="Pfad_406" data-name="Pfad 406" d="M52.716,13.57H41.787v2.608H45.7V27.336h3.087V16.177H52.7Z" transform="translate(-0.983 -5.123)" fill="#fff"/>
  <path id="Pfad_407" data-name="Pfad 407" d="M71.033,13.428A4.979,4.979,0,0,0,65.682,18.8v8.839H68.75v-8.9a2.239,2.239,0,0,1,2.32-2.454,2.324,2.324,0,0,1,2.3,2.454v8.9h3.048V18.8C76.458,15.614,74.483,13.428,71.033,13.428Z" transform="translate(12.298 -5.202)" fill="#fff"/>
  <rect id="Rechteck_178" data-name="Rechteck 178" width="3.049" height="13.766" transform="translate(71.807 8.446)" fill="#fff"/>
  <path id="Pfad_408" data-name="Pfad 408" d="M57.952,19.015l.1.614,2.876,7.708H62.17L66.081,13.57h-3.01L61.211,20.8l-.115.786-.153-.786L58.45,13.57h-1L54.961,20.8l-.153.786-.1-.786-1.86-7.228H49.822l3.911,13.766H54.98l2.876-7.708.1-.614" transform="translate(3.483 -5.123)" fill="#fff"/>
  <path id="Pfad_409" data-name="Pfad 409" d="M24.842,16.546a1.572,1.572,0,0,0-1.38,2.357c.555.882,1.38,2.149,1.38,2.149s.843-1.266,1.38-2.149A1.579,1.579,0,0,0,24.842,16.546Z" transform="translate(-11.288 -3.469)" fill="#fff"/>
  <path id="Pfad_410" data-name="Pfad 410" d="M41.847,15.34,29.652,8.284a1.465,1.465,0,0,0-1.265,0L16.193,15.34a1.358,1.358,0,0,0-.632,1.075V30.527a1.384,1.384,0,0,0,.632,1.074l12.195,7.056a1.465,1.465,0,0,0,1.265,0L41.847,31.6a1.357,1.357,0,0,0,.633-1.074V16.415A1.389,1.389,0,0,0,41.847,15.34ZM27.007,30.948a1.245,1.245,0,0,1-.96.555,1.338,1.338,0,0,1-.977-.576l-5.464-8.109a3.606,3.606,0,0,1-.212-3.7,3.925,3.925,0,0,1,3.547-2.262,4.09,4.09,0,0,1,1.553.327L23.4,19.194a1.83,1.83,0,0,0-.461-.058,1.573,1.573,0,0,0-1.38,2.359c.555.882,1.38,2.149,1.38,2.149l3.126,4.391,1.168-1.669,1.419,2.071Zm6.153-.02a1.337,1.337,0,0,1-.958.557,1.218,1.218,0,0,1-.94-.537l-2.128-3.259-1.417-2.052c-.863-1.285-1.918-2.818-1.918-2.818a3.61,3.61,0,0,1-.21-3.7,3.911,3.911,0,0,1,7.093,0,3.69,3.69,0,0,1-.23,3.759l-1.878,2.818L32.2,28.187l3.183-4.678v.039h2.76Z" transform="translate(-15.561 -8.141)" fill="#fff"/>
</svg>
