<svg xmlns="http://www.w3.org/2000/svg" width="79.462" height="34.555" viewBox="0 0 79.462 34.555">
  <path id="Path_5810" data-name="Path 5810" d="M433.22-1473.763a15.088,15.088,0,0,1-6.839,7.542c-3.943,1.975-9.027,2.122-13.8,2.2l-25.465.41a83.45,83.45,0,0,1-13.9-.549c-4.544-.7-8.98-2.239-11.835-4.874a14.538,14.538,0,0,1-4.237-8.767c-.98-6.07.537-13.117,7.5-16.651,4.824-2.447,11.084-2.615,16.947-2.693l26.232-.35c6.458-.086,22.893-1.3,26.656,3.618,1.576,2.058,1.258,6.042,1.3,8.29A26.865,26.865,0,0,1,433.22-1473.763Z" transform="translate(-356.569 1497.891)" fill="none" stroke="#12232f" stroke-miterlimit="10" stroke-width="0.5"/>
</svg>
