<svg id="star" xmlns="http://www.w3.org/2000/svg" width="15.108" height="15.108" viewBox="0 0 15.108 15.108">
  <path id="Shape" d="M11.94,15.108a.438.438,0,0,1-.262-.09L7.554,11.952,3.74,14.787l-.31.23a.438.438,0,0,1-.262.09.458.458,0,0,1-.363-.188.485.485,0,0,1-.073-.432L4.24,9.428.463,6.482.184,6.264a.482.482,0,0,1-.157-.541A.446.446,0,0,1,.45,5.406l5.055-.062L7.123.324a.448.448,0,0,1,.861,0L9.6,5.345l5.055.061a.446.446,0,0,1,.423.317.482.482,0,0,1-.157.542l-.279.218L10.868,9.429l1.507,5.059a.485.485,0,0,1-.073.432A.457.457,0,0,1,11.94,15.108ZM7.554,4.461,6.733,7.008l-2.822.034L6.175,8.809l-.794,2.666L7.555,9.861h0l2.171,1.614L8.932,8.81,11.2,7.043,8.375,7.009Z" transform="translate(0 0)" fill="#0d2330"/>
</svg>
