<svg xmlns="http://www.w3.org/2000/svg" width="95.682" height="15.108" viewBox="0 0 95.682 15.108">
  <g id="Group" transform="translate(0 -2)">
    <g id="star" transform="translate(0 2)">
      <path id="Path-4" data-name="Path" d="M7.985.324,9.6,5.345l5.055.061a.48.48,0,0,1,.266.858L10.868,9.429l1.506,5.059a.46.46,0,0,1-.7.53L7.554,11.952,3.43,15.017a.46.46,0,0,1-.7-.53L4.24,9.428.184,6.264A.48.48,0,0,1,.45,5.406l5.055-.061L7.123.324A.448.448,0,0,1,7.985.324Z" transform="translate(0 0)" fill="#0d2330"/>
    </g>
    <g id="star-2" data-name="star" transform="translate(80.574 2)">
      <path id="Path-4" data-name="Path" d="M7.985.324,9.6,5.345l5.055.061a.48.48,0,0,1,.266.858L10.868,9.429l1.506,5.059a.46.46,0,0,1-.7.53L7.554,11.952,3.43,15.017a.46.46,0,0,1-.7-.53L4.24,9.428.184,6.264A.48.48,0,0,1,.45,5.406l5.055-.061L7.123.324A.448.448,0,0,1,7.985.324Z" transform="translate(0 0)" fill="#0d2330"/>
    </g>
    <g id="star-3" data-name="star" transform="translate(60.43 2)">
      <path id="Path-4" data-name="Path" d="M7.985.324,9.6,5.345l5.055.061a.48.48,0,0,1,.266.858L10.868,9.429l1.506,5.059a.46.46,0,0,1-.7.53L7.554,11.952,3.43,15.017a.46.46,0,0,1-.7-.53L4.24,9.428.184,6.264A.48.48,0,0,1,.45,5.406l5.055-.061L7.123.324A.448.448,0,0,1,7.985.324Z" transform="translate(0 0)" fill="#0d2330"/>
    </g>
    <g id="star-4" data-name="star" transform="translate(40.287 2)">
      <path id="Path-4" data-name="Path" d="M7.985.324,9.6,5.345l5.055.061a.48.48,0,0,1,.266.858L10.868,9.429l1.506,5.059a.46.46,0,0,1-.7.53L7.554,11.952,3.43,15.017a.46.46,0,0,1-.7-.53L4.24,9.428.184,6.264A.48.48,0,0,1,.45,5.406l5.055-.061L7.123.324A.448.448,0,0,1,7.985.324Z" transform="translate(0 0)" fill="#0d2330"/>
    </g>
    <g id="star-5" data-name="star" transform="translate(20.143 2)">
      <path id="Path-4" data-name="Path" d="M7.985.324,9.6,5.345l5.055.061a.48.48,0,0,1,.266.858L10.868,9.429l1.506,5.059a.46.46,0,0,1-.7.53L7.554,11.952,3.43,15.017a.46.46,0,0,1-.7-.53L4.24,9.428.184,6.264A.48.48,0,0,1,.45,5.406l5.055-.061L7.123.324A.448.448,0,0,1,7.985.324Z" transform="translate(0 0)" fill="#0d2330"/>
    </g>
  </g>
</svg>
