<svg xmlns="http://www.w3.org/2000/svg" width="48.322" height="43.548" viewBox="0 0 48.322 43.548">
  <path id="Path_5893" data-name="Path 5893" d="M29.3,29.666c2.929-.528,5.891-1.439,7.767-3.193,2.4-2.246,2.536-5.358,2.457-8.226a24.617,24.617,0,0,0-1.383-8.6,13.288,13.288,0,0,0-6.467-7.025C28.648,1.125,24.937.647,21.334.3c-3.353-.325-6.851-.56-10.038.28a13.889,13.889,0,0,0-8.6,6.661C1.075,10.172.623,13.38.283,16.541c-.4,3.725-1.277,11.277,5,12.627A66.579,66.579,0,0,0,29.3,29.666Z" transform="matrix(0.921, -0.391, 0.391, 0.921, 0, 15.448)" fill="#0d2330"/>
</svg>
