<svg xmlns="http://www.w3.org/2000/svg" width="973.02" height="833.431" viewBox="0 0 973.02 833.431">
  <path id="Path_5548" data-name="Path 5548" d="M623.139,630.965c62.3-11.236,125.29-30.6,165.194-67.905C839.414,515.3,842.273,449.1,840.59,388.091c-1.693-61.577-5.835-123.855-29.423-182.892S742.57,89.923,673.628,55.774c-64.3-31.854-143.239-42.019-219.863-49.456-71.308-6.92-145.725-11.9-213.5,5.965-85.5,22.54-148.5,79.278-182.952,141.673S13.255,284.579,6.019,351.813C-2.5,431.037-21.149,591.666,112.381,620.376,268.32,653.908,465.692,659.356,623.139,630.965Z" transform="translate(157.075 0) rotate(14)" fill="#f0f6ff" opacity="0.72"/>
</svg>
