<svg xmlns="http://www.w3.org/2000/svg" width="35.22" height="33.552" viewBox="0 0 35.22 33.552">
  <g id="Gruppe_1436" data-name="Gruppe 1436" transform="translate(-16.5 -10.732)">
    <g id="Gruppe_1339" data-name="Gruppe 1339" transform="translate(26.282 17.411)">
      <path id="Pfad_5866" data-name="Pfad 5866" d="M45.861,27a11.294,11.294,0,0,0-3.829.516q-.29-1.879-.58-3.752c-1.064.312-2.128.661-3.191.894q.29,1.895.58,3.779a9.711,9.711,0,0,1-3.829.334q.242,1.668.483,3.318a11.3,11.3,0,0,0,3.83-.516l.58,3.752c1.064-.312,2.128-.661,3.191-.894q-.29-1.895-.58-3.779a9.712,9.712,0,0,1,3.829-.334Q46.1,28.653,45.861,27Z" transform="translate(-35.011 -23.767)" fill="#12232f"/>
    </g>
    <path id="Pfad_5867" data-name="Pfad 5867" d="M17.732,24.132l.55,1.971L26,49.561" transform="translate(0 -6.54)" fill="none" stroke="#11232f" stroke-linecap="round" stroke-linejoin="round" stroke-width="2"/>
    <path id="Pfad_5868" data-name="Pfad 5868" d="M24.288,37.1a8.783,8.783,0,0,1,2.932-3.36,10.057,10.057,0,0,1,6.064-1.735l6.214.212A18.057,18.057,0,0,0,50.559,28.9l1.537-1.09a16.741,16.741,0,0,1-7.485-5.961C45.973,19.6,47.3,11.187,47.3,11.187a8.9,8.9,0,0,1-7.987,4.083c-5.325-.414-9.467-1.42-12.543-.592a13.221,13.221,0,0,0-7.4,4.438" transform="translate(-0.831)" fill="none" stroke="#11232f" stroke-linecap="round" stroke-linejoin="round" stroke-width="0.911"/>
  </g>
</svg>
