<svg xmlns="http://www.w3.org/2000/svg" width="101" height="81.436" viewBox="0 0 101 81.436">
  <g id="Gruppe_1345" data-name="Gruppe 1345" transform="translate(-818.824 -572.427)">

    <g id="Gruppe_1015" data-name="Gruppe 1015" transform="translate(821.135 554.209)">
      <g id="Gruppe_1018" data-name="Gruppe 1018" transform="translate(17.67 32.536)">
        <path id="Pfad_5685" data-name="Pfad 5685" d="M18.729,41.11c-.772-.334,15.895-14.45,24.828-2.627C43.557,38.614,41.192,50.83,18.729,41.11Z" transform="translate(-17.755 -33.772)" fill="none" stroke="#0d2330" stroke-width="1"/>
        <g id="Gruppe_1017" data-name="Gruppe 1017" transform="translate(16.014 13.503)">
          <g id="Gruppe_1016" data-name="Gruppe 1016">
            <path id="Pfad_5686" data-name="Pfad 5686" d="M55.869,56.936a3.077,3.077,0,0,0,5.866-1.862" transform="translate(-36.831 -49.03)" fill="none" stroke="#0d2330" stroke-width="1"/>
            <path id="Pfad_5687" data-name="Pfad 5687" d="M79.064,48.487a23.052,23.052,0,0,1-43.942,13.95l22.119-7.023Z" transform="translate(-35.122 -48.487)" fill="none" stroke="#0d2330" stroke-width="1"/>
            <path id="Pfad_5688" data-name="Pfad 5688" d="M38.394,61.57A19.9,19.9,0,1,0,76.33,49.526" transform="translate(-35.392 -48.573)" fill="none" stroke="#0d2330" stroke-width="1"/>
          </g>
          <path id="Pfad_5689" data-name="Pfad 5689" d="M78.075,62.685c-.2,0-15.877-5.4-15.877-5.4" transform="translate(-37.353 -49.211)" fill="none" stroke="#0d2330" stroke-width="1"/>
          <line id="Linie_183" data-name="Linie 183" x1="9.655" y1="13.662" transform="translate(23.448 9.73)" fill="none" stroke="#0d2330" stroke-width="1"/>
          <line id="Linie_184" data-name="Linie 184" y1="16.88" x2="0.328" transform="translate(21.281 9.993)" fill="none" stroke="#0d2330" stroke-width="1"/>
          <line id="Linie_185" data-name="Linie 185" y1="13.333" x2="10.115" transform="translate(9.787 9.402)" fill="none" stroke="#0d2330" stroke-width="1"/>
        </g>
        <path id="Pfad_5690" data-name="Pfad 5690" d="M23.491,39.677a57.816,57.816,0,0,1,20.46-.886s4.663,1.182,7.224-1.281a14.769,14.769,0,0,0-4.828,9.458" transform="translate(-18.15 -34.08)" fill="none" stroke="#0d2330" stroke-width="1"/>
        <path id="Pfad_5691" data-name="Pfad 5691" d="M24.281,44.189A19.245,19.245,0,0,0,45.56,75.9" transform="translate(-17.67 -34.63)" fill="none" stroke="#0d2330" stroke-width="1"/>
        <path id="Pfad_5692" data-name="Pfad 5692" d="M58.084,54.726a19.272,19.272,0,0,0-12.773-14.6" transform="translate(-19.947 -34.296)" fill="none" stroke="#0d2330" stroke-width="1"/>
      </g>
    </g>
    <g id="Gruppe_1034" data-name="Gruppe 1034" transform="translate(883.364 573.262) rotate(19)">
      <line id="Linie_181" data-name="Linie 181" y2="24.124" transform="translate(4.785 9.979)" fill="none" stroke="#0d2330" stroke-width="1"/>
      <path id="Pfad_5683" data-name="Pfad 5683" d="M54.307,29.728c0,6.052,4.862,10.958,4.862,10.958s4.862-4.906,4.862-10.958-4.862-10.959-4.862-10.959S54.307,23.675,54.307,29.728Z" transform="translate(-54.307 -18.769)" fill="none" stroke="#0d2330" stroke-width="1"/>
      <line id="Linie_182" data-name="Linie 182" x1="5.748" y2="6.264" transform="translate(5.011 22.74)" fill="none" stroke="#0d2330" stroke-width="1"/>
      <path id="Pfad_5684" data-name="Pfad 5684" d="M65.526,39.232c-2.654,2.856-2.512,7.3-2.512,7.3s4.446-.183,7.1-3.039,2.512-7.3,2.512-7.3S68.18,36.377,65.526,39.232Z" transform="translate(-54.901 -20.918)" fill="none" stroke="#0d2330" stroke-width="1"/>
      <g id="Gruppe_1035" data-name="Gruppe 1035" transform="translate(-3.106 19.137)">
        <line id="Linie_188" data-name="Linie 188" x2="3.614" y2="3.938" transform="translate(4.381 4.694)" fill="none" stroke="#0d2330" stroke-width="1"/>
        <path id="Pfad_5712" data-name="Pfad 5712" d="M67.478,38.1A7.2,7.2,0,0,1,69.057,42.7a7.191,7.191,0,0,1-4.464-1.911,7.191,7.191,0,0,1-1.579-4.591A7.193,7.193,0,0,1,67.478,38.1Z" transform="translate(-63.014 -36.194)" fill="none" stroke="#0d2330" stroke-width="1"/>
      </g>
    </g>
  </g>
</svg>
