<svg xmlns="http://www.w3.org/2000/svg" width="55.577" height="46.231" viewBox="0 0 55.577 46.231">
  <g id="Komponente_213_17" data-name="Komponente 213 – 17" transform="translate(1.366 0.375)">
    <g id="Gruppe_1019" data-name="Gruppe 1019" transform="translate(17.576)">
      <path id="Pfad_5698" data-name="Pfad 5698" d="M1951.537-177l-10.651-6.8,12.252-5.59,10.651,6.8Z" transform="translate(-1940.587 189.391)" fill="none" stroke="#0d2330" stroke-linecap="round" stroke-linejoin="round" stroke-width="0.75"/>
      <path id="Pfad_5699" data-name="Pfad 5699" d="M2038.308-122.09l.262-12.08-12.251,5.591-.226,10.4" transform="translate(-2015.368 140.966)" fill="none" stroke="#0d2330" stroke-linecap="round" stroke-linejoin="round" stroke-width="0.75"/>
      <path id="Pfad_5700" data-name="Pfad 5700" d="M1947.913-124.159l-9.471-6.043.3-13.768,10.652,6.8-.226,10.4" transform="translate(-1938.442 149.56)" fill="none" stroke="#0d2330" stroke-linecap="round" stroke-linejoin="round" stroke-width="0.75"/>
      <ellipse id="Ellipse_156" data-name="Ellipse 156" cx="0.506" cy="0.509" rx="0.506" ry="0.509" transform="translate(20.206 15.849)" fill="#0d2330"/>
      <ellipse id="Ellipse_157" data-name="Ellipse 157" cx="0.506" cy="0.509" rx="0.506" ry="0.509" transform="translate(19.194 13.812)" fill="#0d2330"/>
      <ellipse id="Ellipse_158" data-name="Ellipse 158" cx="0.506" cy="0.509" rx="0.506" ry="0.509" transform="translate(18.181 15.849)" fill="#0d2330"/>
    </g>
    <g id="Gruppe_1020" data-name="Gruppe 1020" transform="translate(5.022 19.37)">
      <path id="Pfad_5701" data-name="Pfad 5701" d="M1859.994-25.976l-9.47-6.044-12.252,5.591,10.651,6.8,10.279-4.689" transform="translate(-1837.974 32.02)" fill="none" stroke="#0d2330" stroke-linecap="round" stroke-linejoin="round" stroke-width="0.75"/>
      <path id="Pfad_5702" data-name="Pfad 5702" d="M1846.486,33.811l-10.651-6.8.3-13.608,10.651,6.8Z" transform="translate(-1835.835 -7.816)" fill="none" stroke="#0d2330" stroke-linecap="round" stroke-linejoin="round" stroke-width="0.75"/>
      <path id="Pfad_5703" data-name="Pfad 5703" d="M1925.883,69.016" transform="translate(-1914.866 -56.581)" fill="none" stroke="#0d2330" stroke-linecap="round" stroke-linejoin="round" stroke-width="0.75"/>
      <path id="Pfad_5704" data-name="Pfad 5704" d="M1922.972,133.858l12.171-5.474.02-.884" transform="translate(-1912.311 -107.867)" fill="none" stroke="#0d2330" stroke-linecap="round" stroke-linejoin="round" stroke-width="0.75"/>
    </g>
    <path id="Pfad_5705" data-name="Pfad 5705" d="M2056.237-36.692l-14.444-.141,8.2,11.225,14.444.141-8.2-11.224" transform="translate(-2011.572 55.609)" fill="none" stroke="#0d2330" stroke-linecap="round" stroke-linejoin="round" stroke-width="0.75"/>
    <path id="Pfad_5706" data-name="Pfad 5706" d="M2054.044,68.561l6.7-14.122,14.425.142-6.7,14.122Z" transform="translate(-2022.323 -24.43)" fill="none" stroke="#0d2330" stroke-linecap="round" stroke-linejoin="round" stroke-width="0.75"/>
    <path id="Pfad_5707" data-name="Pfad 5707" d="M1986.373-22.679l6.781-14.153,8.2,11.225-6.781,14.153Z" transform="translate(-1962.934 55.609)" fill="none" stroke="#0d2330" stroke-linecap="round" stroke-linejoin="round" stroke-width="0.75"/>
    <ellipse id="Ellipse_172" data-name="Ellipse 172" cx="0.506" cy="0.509" rx="0.506" ry="0.509" transform="translate(29.914 22.342)" fill="#0d2330"/>
    <ellipse id="Ellipse_176" data-name="Ellipse 176" cx="0.506" cy="0.509" rx="0.506" ry="0.509" transform="translate(43.297 39.662)" fill="#0d2330"/>
    <ellipse id="Ellipse_179" data-name="Ellipse 179" cx="0.507" cy="0.509" rx="0.507" ry="0.509" transform="matrix(0.899, -0.438, 0.438, 0.899, 13.002, 39.483)" fill="#0d2330"/>
    <ellipse id="Ellipse_174" data-name="Ellipse 174" cx="0.506" cy="0.509" rx="0.506" ry="0.509" transform="translate(30.709 24.38)" fill="#0d2330"/>
    <ellipse id="Ellipse_175" data-name="Ellipse 175" cx="0.506" cy="0.509" rx="0.506" ry="0.509" transform="translate(44.092 41.7)" fill="#0d2330"/>
    <ellipse id="Ellipse_178" data-name="Ellipse 178" cx="0.507" cy="0.509" rx="0.507" ry="0.509" transform="matrix(0.899, -0.438, 0.438, 0.899, 16.631, 42.1)" fill="#0d2330"/>
    <ellipse id="Ellipse_173" data-name="Ellipse 173" cx="0.506" cy="0.509" rx="0.506" ry="0.509" transform="translate(28.901 24.38)" fill="#0d2330"/>
    <ellipse id="Ellipse_177" data-name="Ellipse 177" cx="0.506" cy="0.509" rx="0.506" ry="0.509" transform="translate(42.284 41.7)" fill="#0d2330"/>
    <ellipse id="Ellipse_180" data-name="Ellipse 180" cx="0.507" cy="0.509" rx="0.507" ry="0.509" transform="matrix(0.899, -0.438, 0.438, 0.899, 12.981, 41.762)" fill="#0d2330"/>
    <path id="Pfad_5896" data-name="Pfad 5896" d="M0,32.391,52.845,1.82" transform="translate(0 8.296)" fill="none" stroke="#0d2330" stroke-linecap="round" stroke-width="2"/>
  </g>
</svg>
