<svg xmlns="http://www.w3.org/2000/svg" preserveAspectRatio="none" width="1444.996" height="305.611" viewBox="0 0 1444.996 305.611">
  <path id="Differenzmenge_26" data-name="Differenzmenge 26" d="M16962.441,18887.189c-3.549,0-6.861-.018-10.131-.051-17.3-.172-34.371-.768-50.73-1.773v-294.654c426.3-2.58,1152.543-7.246,1445-9.133v222.176a504.621,504.621,0,0,1-64.357,4.041c-2.07,0-4.174-.012-6.256-.035-11.551-.137-23.268-.607-34.826-1.4-11.037-.76-22.322-1.842-33.541-3.217-20.715-2.533-41.66-6.084-64.033-10.85-18.67-3.977-38.719-8.9-61.3-15.053-20.215-5.508-40.521-11.463-60.16-17.223l-.066-.018c-41.832-12.264-85.09-24.945-130.67-34.365-24.578-5.076-47.76-8.807-70.867-11.4-12.547-1.408-25.211-2.486-37.639-3.2-13.055-.75-26.316-1.131-39.42-1.131-3.73,0-7.467.029-11.105.09-11.35.18-23.105.859-34.945,2.016-11.312,1.107-23.1,2.691-35.025,4.711a692.2,692.2,0,0,0-70.822,16.172c-47.73,13.336-96.631,31.156-148.4,50.023l-.012,0C17309.008,18831.787,17156.99,18887.184,16962.441,18887.189Z" transform="translate(-16901.58 -18581.578)" fill="#f4f8ff"/>
</svg>
