<svg xmlns="http://www.w3.org/2000/svg" width="27.785" height="25.048" viewBox="0 0 27.785 25.048"><g transform="translate(0.39 0.395)"><path d="M-130.509,30.807l-.987-2.738a1.077,1.077,0,0,1,.624-1.39l0,0,18.224-6.6a1.077,1.077,0,0,1,1.39.624l0,0,3.905,10.773a1.078,1.078,0,0,1-.624,1.39h0l-4.713,1.706m-17.909-4.13,20.154-7.361m-3.726,4.4,2.02-.718" transform="translate(134.235 -20.009)" fill="none" stroke="#e27291" stroke-linecap="round" stroke-linejoin="round" stroke-width="0.779"/><rect width="21.545" height="13.466" rx="2.4" transform="translate(0 10.798)" fill="none" stroke="#e27291" stroke-linecap="round" stroke-linejoin="round" stroke-width="0.779"/><path d="M-129.51,54.759h6.284m5.386-2.693h2.693M-129.51,58.35h.9m3.591,0h.9m3.591,0h.9m3.591,0h.9" transform="translate(133.101 -37.677)" fill="none" stroke="#e27291" stroke-linecap="round" stroke-linejoin="round" stroke-width="0.779"/></g></svg>