<svg xmlns="http://www.w3.org/2000/svg" width="15.694" height="15.681" viewBox="0 0 15.694 15.681">
  <path id="Контур_5805" data-name="Контур 5805" d="M8.3,10.794a3.966,3.966,0,0,0,2.2-1.162,4.415,4.415,0,0,0,.7-2.993A11.3,11.3,0,0,0,10.8,3.51,4.6,4.6,0,0,0,8.972.954,7.014,7.014,0,0,0,6.044.108,6.423,6.423,0,0,0,3.2.21,4.269,4.269,0,0,0,.763,2.634,10.76,10.76,0,0,0,.08,6.018c-.113,1.355-.362,4.1,1.417,4.594A14.769,14.769,0,0,0,8.3,10.794Z" transform="translate(8.704 15.681) rotate(-141)" fill="#0d2330"/>
</svg>
