<svg xmlns="http://www.w3.org/2000/svg" width="10.374" height="10.365" viewBox="0 0 10.374 10.365">
  <path id="Pfad_6015" data-name="Pfad 6015" d="M5.486,7.135A2.621,2.621,0,0,0,6.94,6.367,2.918,2.918,0,0,0,7.4,4.388,7.469,7.469,0,0,0,7.142,2.32,3.04,3.04,0,0,0,5.931.631,4.637,4.637,0,0,0,3.995.071a4.245,4.245,0,0,0-1.88.067A2.822,2.822,0,0,0,.5,1.741,7.112,7.112,0,0,0,.053,3.978c-.075.9-.239,2.712.936,3.037A9.763,9.763,0,0,0,5.486,7.135Z" transform="translate(5.754 10.365) rotate(-141)" fill="#0d2330"/>
</svg>
