<svg xmlns="http://www.w3.org/2000/svg" xmlns:xlink="http://www.w3.org/1999/xlink" width="1439.7" height="155" viewBox="0 0 1439.7 155">
  <defs>
    <clipPath id="clip-path">
      <rect x="489" width="1439.7" height="155" fill="none"/>
    </clipPath>
  </defs>
  <g id="Группа_прокрутки_16" data-name="Группа прокрутки 16" transform="translate(-489)" clip-path="url(#clip-path)" style="isolation: isolate">
    <path id="Объединение_1" data-name="Объединение 1" d="M-6855.534,19487.492c-199.915-10.486-327.974-87.6-545.926-94.721-104.407-3.412-208.931,21.949-328.326,47.309-129.855,27.578-277.3,55.16-461.3,45.732-353.2-18.1-403.941-145.773-403.941-145.773s9.428-84.764,32-83.437c4.956.291,109.355,4.492,269.293,10.873l26.894-486.559c-188.393-.912-314.392-1.48-319.9-1.389-23.03.377-30.25-97-30.25-97s55.287-143.365,415.669-146.225,579.657,143.359,801.926,146.225,354.915-78.812,558.9-80.7,295.418,86.314,295.418,86.314l107.789,102.092s-102.056-.531-261.745-1.359l161.445,14.281-29.448,532.77,111.3,4.4-108.122,84.533s-79.9,63.656-253.006,63.658Q-6835.486,19488.52-6855.534,19487.492Z" transform="translate(8617 -18536.266)" fill="#c9ede8"/>
  </g>
</svg>
